<svg width="20" height="24" viewBox="0 0 20 24" fill="none" xmlns="http://www.w3.org/2000/svg">
<path d="M9.90951 18.053L9.19741 18.755L9.90951 19.4773L10.6216 18.755L9.90951 18.053ZM19 22.8008V23.8008C19.5523 23.8008 20 23.3531 20 22.8008H19ZM1.00007 22.8008H7.26581e-05C7.26581e-05 23.3531 0.447788 23.8008 1.00007 23.8008V22.8008ZM10.9095 18.053V0.800781H8.90951V18.053H10.9095ZM18 19.1494V22.8008H20V19.1494H18ZM19 21.8008H1.00007V23.8008H19V21.8008ZM2.00007 22.8008V19.1494H7.26581e-05V22.8008H2.00007ZM10.6216 18.755L17.6854 11.5904L16.2612 10.1863L9.19741 17.3509L10.6216 18.755ZM2.1336 11.5904L9.19741 18.755L10.6216 17.3509L3.55779 10.1863L2.1336 11.5904Z" fill="#102A59"/>
</svg>
