<svg width="49" height="49" viewBox="0 0 49 49" fill="none" xmlns="http://www.w3.org/2000/svg">
<path d="M24.9923 48.3008C18.2656 48.3008 14.0445 48.1295 11.1198 47.578C8.23098 47.0332 6.6369 46.1231 5.14945 44.6357C3.65388 43.1401 2.74403 41.546 2.20129 38.6616C1.65172 35.7409 1.48438 31.5278 1.48438 24.8087C1.48438 18.082 1.65565 13.8649 2.20717 10.9422C2.75184 8.05586 3.66178 6.46121 5.14988 4.96545C6.6372 3.47825 8.23125 2.56832 11.1198 2.02359C14.0445 1.47206 18.2656 1.30078 24.9923 1.30078C31.719 1.30078 35.94 1.47206 38.8647 2.02359C41.7536 2.56837 43.3477 3.47843 44.8351 4.96587C46.3307 6.46141 47.2405 8.05553 47.7833 10.9419C48.3328 13.8646 48.5002 18.0816 48.5002 24.8087C48.5002 31.5357 48.3328 35.7488 47.7833 38.6695C47.2407 41.5529 46.3312 43.1475 44.8355 44.6511C43.3403 46.1309 41.7417 47.0371 38.8532 47.5799C35.9283 48.1295 31.7109 48.3008 24.9923 48.3008Z" fill="black" stroke="white"/>
<path d="M34.4022 24.7775C33.4849 24.7775 32.8839 24.1765 32.8839 23.2751C32.8839 22.4052 33.4849 21.8042 34.4022 21.8042H36.7903V24.7775H34.4022ZM38.7989 20.0803H34.165C32.2039 20.0803 30.8595 21.3614 30.8595 23.2118C30.8595 24.6668 31.6978 25.7739 33.0263 26.1693L30.4958 30.0125H32.7258L35.0032 26.5172H36.7903V30.0125H38.7989V20.0803ZM13.7472 22.6741V19.6849H17.6378V28.1779H12.7508C13.2727 27.2764 13.7472 25.1571 13.7472 22.6741ZM19.6938 17.7555H11.7544V22.7531C11.7544 25.2994 11.3116 27.2922 10.7106 28.1779H9.76172V32.7169H11.7228V30.0283H19.1561V32.7169H21.1172V28.1779H19.6938V17.7555ZM25.6879 28.3202L25.5139 28.2095L27.823 20.0803H23.1416L22.6355 21.8833L25.3558 21.8675L23.5844 28.0672C23.2681 29.1901 24.0273 30.2497 25.2767 30.2497C25.6721 30.2497 26.0516 30.1548 26.4787 29.8859L29.6734 27.7192L28.7086 26.28L25.6879 28.3202ZM27.048 18.2141C28.0444 18.2141 28.4556 17.8503 28.4556 16.9647C28.4556 16.0474 28.0286 15.6836 27.048 15.6836C26.0833 15.6836 25.6404 16.0474 25.6404 16.9647C25.6404 17.8345 26.0516 18.2141 27.048 18.2141Z" fill="white"/>
</svg>
