<svg width="63" height="54" viewBox="0 0 63 54" fill="none" xmlns="http://www.w3.org/2000/svg">
<path d="M26.5796 25.6279C30.3461 25.6279 33.3994 22.5746 33.3994 18.8081C33.3994 15.0416 30.3461 11.9883 26.5796 11.9883C22.8131 11.9883 19.7598 15.0416 19.7598 18.8081C19.7598 22.5746 22.8131 25.6279 26.5796 25.6279Z" fill="#C5D1E8"/>
<path d="M21.2562 15.1266C22.3583 14.0246 22.5816 12.4611 21.7551 11.6346C20.9285 10.808 19.3651 11.0314 18.263 12.1335C17.161 13.2355 16.9376 14.799 17.7642 15.6255C18.5907 16.452 20.1542 16.2287 21.2562 15.1266Z" fill="#C5D1E8"/>
<path d="M33.6877 12.9622C34.1469 11.8872 33.3573 10.5195 31.924 9.90724C30.4907 9.295 28.9566 9.67011 28.4974 10.7451C28.0383 11.82 28.8279 13.1877 30.2612 13.8C31.6944 14.4122 33.2285 14.0371 33.6877 12.9622Z" fill="#C5D1E8"/>
<path d="M41.0231 48.0909C39.8513 48.905 38.613 49.619 37.3213 50.2253L37.1304 49.8879L35.3026 46.6796L35.1425 46.3981L34.2075 44.7573L34.2055 44.7554L31.2536 39.5689L29.7363 36.9062L34.2421 33.7461L35.9948 37.4518L36.9453 39.4647L40.8573 47.7381L41.0231 48.0909Z" fill="#C5D1E8"/>
<path d="M36.9977 35.5792L36.4327 34.6942L33.9339 30.7745C33.5928 30.0129 32.9637 29.4176 32.1844 29.119C31.4052 28.8204 30.5394 28.8428 29.7766 29.1813C29.0139 29.5198 28.4164 30.1468 28.1151 30.925C27.8138 31.7032 27.8332 32.5691 28.169 33.333L29.7135 38.8357C29.757 38.9914 29.8334 39.136 29.9374 39.2597C30.0415 39.3835 30.1708 39.4835 30.3168 39.5531C30.4627 39.6227 30.6219 39.6602 30.7835 39.6632C30.9452 39.6661 31.1056 39.6345 31.254 39.5703C31.2598 39.5684 31.2636 39.5664 31.2694 39.5645L35.9951 37.4533L36.5041 37.2258C36.6527 37.1588 36.7852 37.0607 36.8926 36.9381C37 36.8155 37.0798 36.6712 37.1266 36.5151C37.1734 36.359 37.1861 36.1946 37.1639 36.0331C37.1416 35.8717 37.0849 35.7169 36.9977 35.5792H36.9977Z" fill="#C5D1E8"/>
<path d="M23.4193 35.6993L22.1044 38.6686L21.819 39.3144L16.9507 50.3121L16.7945 50.665C15.4761 50.1153 14.2068 49.4548 13 48.6906L13.1311 48.3204L17.1049 37.1087L18.0805 34.3555L20.2168 34.8934L23.4193 35.6993Z" fill="#C5D1E8"/>
<path d="M31.8749 23.2082C33.4082 20.4034 32.3774 16.8866 29.5725 15.3533C26.7677 13.8201 23.2509 14.8509 21.7176 17.6557C20.1844 20.4606 21.2152 23.9773 24.02 25.5106C26.8249 27.0439 30.3416 26.0131 31.8749 23.2082Z" fill="#C5D1E8"/>
<path d="M36.8855 36.9412C36.8018 36.1785 36.6502 35.4249 36.4324 34.6892C35.7761 32.4742 34.5211 30.4833 32.8058 28.9359C32.1755 28.3702 31.3582 28.0577 30.5113 28.0586H22.3575C21.7715 28.0571 21.1949 28.2058 20.6827 28.4905C20.1705 28.7752 19.7399 29.1865 19.4318 29.685C19.1238 30.1835 18.9487 30.7526 18.9232 31.3381C18.8977 31.9235 19.0226 32.5058 19.2862 33.0292L20.2174 34.8917L22.105 38.6668L22.558 39.5711L24.5767 43.6104L24.7368 43.9304L34.9844 46.7493L35.0288 46.6509C35.0674 46.5642 35.1059 46.4794 35.1425 46.3945C35.1984 46.2653 35.2544 46.14 35.3064 46.0128C36.3399 43.5622 36.8277 41.3815 36.9453 39.4612C36.9981 38.621 36.9781 37.7779 36.8855 36.9412Z" fill="#C5D1E8"/>
<path d="M23.8358 29.1139C23.0816 28.7605 22.2181 28.7203 21.4343 29.0022C20.6505 29.284 20.0103 29.8649 19.6539 30.6177L18.927 31.7148L16.4976 35.382C16.4075 35.5181 16.3477 35.672 16.3224 35.8332C16.297 35.9945 16.3067 36.1593 16.3508 36.3165C16.3949 36.4736 16.4724 36.6194 16.5779 36.744C16.6834 36.8685 16.8145 36.9689 16.9623 37.0382L17.1049 37.1057L21.8191 39.3114L22.1545 39.4676C22.281 39.5271 22.4178 39.5618 22.5575 39.5697C22.7438 39.5845 22.9308 39.552 23.1012 39.4753C23.2499 39.4087 23.3825 39.3109 23.49 39.1884C23.5975 39.066 23.6773 38.9218 23.724 38.7657L25.3551 33.3074C25.709 32.5497 25.7478 31.6826 25.4629 30.8963C25.1781 30.1101 24.5929 29.469 23.8358 29.1139Z" fill="#C5D1E8"/>
<path d="M35.3052 46.0173C35.2708 45.8973 35.2153 45.7844 35.1413 45.6838C34.8776 45.3303 34.5624 45.0183 34.2063 44.7583L34.2043 44.7564C32.9646 43.8174 30.4966 42.7203 25.7362 42.6914H25.7285C25.5103 42.6912 25.2967 42.7539 25.1131 42.8718C24.9295 42.9898 24.7837 43.1581 24.6931 43.3566L24.5755 43.615L23.8178 45.2808C23.7535 45.4242 23.6516 45.5474 23.5228 45.6375C22.8383 46.1214 20.6596 47.876 19.5337 51.227C19.4932 51.3465 19.4546 51.468 19.418 51.5933C24.2322 52.9997 29.3546 52.9534 34.1426 51.4603L34.2486 51.0226L35.3014 46.6806L35.3188 46.6092C35.3665 46.4142 35.3618 46.21 35.3052 46.0173Z" fill="#C5D1E8"/>
<path d="M20.7148 16.7908C22.0375 17.7024 23.6073 18.1876 25.2137 18.1811C24.6407 18.5784 23.9883 18.8468 23.3016 18.9678C25.4374 19.4259 27.6447 19.4383 29.7854 19.0042C30.2613 18.9279 30.7204 18.7702 31.1428 18.538C31.3532 18.4205 31.5365 18.26 31.6809 18.0669C31.8252 17.8739 31.9273 17.6526 31.9806 17.4175C32.1228 16.6049 31.4896 15.8666 30.8315 15.369C29.824 14.6188 28.6622 14.1019 27.4304 13.8557C26.1986 13.6096 24.9275 13.6403 23.709 13.9457C22.9133 14.1514 22.1163 14.4988 21.5995 15.1378C21.0827 15.7767 20.9296 16.7618 21.422 17.4198L20.7148 16.7908Z" fill="#C5D1E8"/>
<circle cx="25" cy="28.8008" r="24" stroke="#C5D1E8" stroke-width="2"/>
<path d="M49.6609 0.800781C66.5434 1.0891 66.5407 26.2015 49.6604 26.4873C32.7784 26.199 32.7811 1.08665 49.6609 0.800781Z" fill="#C5D1E8"/>
<path d="M49.6612 20.6389C49.4219 20.6386 49.1924 20.5434 49.0232 20.3742C48.854 20.205 48.7588 19.9756 48.7585 19.7363V14.9506C48.7584 14.844 48.716 14.7417 48.6406 14.6663C48.5652 14.5909 48.463 14.5485 48.3563 14.5483H43.5707C43.3313 14.5483 43.1017 14.4532 42.9324 14.2839C42.7631 14.1146 42.668 13.885 42.668 13.6456C42.668 13.4062 42.7631 13.1766 42.9324 13.0073C43.1017 12.838 43.3313 12.7429 43.5707 12.7429H48.3563C48.4629 12.7428 48.5652 12.7004 48.6406 12.625C48.716 12.5496 48.7584 12.4474 48.7585 12.3408V7.55489C48.7585 7.31552 48.8536 7.08596 49.0229 6.9167C49.1921 6.74744 49.4217 6.65234 49.6611 6.65234C49.9004 6.65234 50.13 6.74744 50.2993 6.9167C50.4685 7.08596 50.5636 7.31552 50.5636 7.55489V12.3408C50.5637 12.4474 50.6062 12.5496 50.6816 12.625C50.757 12.7004 50.8592 12.7428 50.9658 12.7429H55.7515C55.9909 12.7429 56.2205 12.838 56.3898 13.0073C56.5591 13.1766 56.6542 13.4062 56.6542 13.6456C56.6542 13.885 56.5591 14.1146 56.3898 14.2839C56.2205 14.4532 55.9909 14.5483 55.7515 14.5483H50.9658C50.8592 14.5485 50.7569 14.5909 50.6815 14.6663C50.6061 14.7417 50.5637 14.844 50.5636 14.9506V19.7363C50.5633 19.9756 50.4682 20.205 50.299 20.3742C50.1298 20.5434 49.9004 20.6386 49.6612 20.6389Z" fill="white"/>
</svg>
