<svg width="30" height="30" viewBox="0 0 30 30" fill="none" xmlns="http://www.w3.org/2000/svg">
<path d="M15 0C6.71566 0 0 6.71566 0 15C0 23.2843 6.71566 30 15 30C23.2843 30 30 23.2843 30 15C30 6.71566 23.2843 0 15 0Z" fill="#40B3E0"/>
<path d="M22.2991 8.6278L19.6198 22.1359C19.6198 22.1359 19.2452 23.0727 18.2147 22.623L12.0322 17.883L9.78403 16.7965L5.99957 15.5224C5.99957 15.5224 5.41879 15.3164 5.36254 14.8667C5.30629 14.4171 6.01832 14.1736 6.01832 14.1736L21.0624 8.27202C21.0624 8.27202 22.2989 7.72874 22.2989 8.62803" fill="white"/>
<path d="M11.5562 21.9825C11.5562 21.9825 11.3758 21.9656 11.1508 21.2536C10.9261 20.5416 9.7832 16.7947 9.7832 16.7947L18.8697 11.0244C18.8697 11.0244 19.3943 10.7059 19.3756 11.0244C19.3756 11.0244 19.4692 11.0806 19.1881 11.3429C18.9072 11.6053 12.0502 17.769 12.0502 17.769" fill="#D2E5F1"/>
<path d="M14.4023 19.7014L11.957 21.931C11.957 21.931 11.7657 22.0761 11.5566 21.9852L12.0249 17.8438" fill="#B5CFE4"/>
</svg>
