<svg width="172" height="113" viewBox="0 0 172 113" fill="none" xmlns="http://www.w3.org/2000/svg">
<path d="M79.0975 1.19141H31.4343C22.5011 1.19141 13.8549 1.48233 7.00914 8.05716C-0.4401 15.3593 0.00507412 24.2616 0.00507412 32.8826V111.548H23.8367V32.8826C23.8367 29.8182 23.6882 26.5987 25.6272 24.5623C27.5662 22.6614 30.8408 22.5161 33.5216 22.5161H48.5389C51.0913 19.1995 53.9502 16.0284 57.1852 13.0513C63.2297 7.49473 70.1841 3.20846 79.0975 1.19141Z" fill="#102A59"/>
<path d="M157.112 72.8433C164.71 70.5063 169.033 64.523 169.033 57.3662C169.033 53.565 167.994 49.6279 165.61 46.7089C160.1 39.8432 151.008 39.9885 144.014 39.9885H100.357C102.93 42.956 105.472 45.9331 107.846 49.0168C110.695 52.731 112.822 56.5711 114.336 60.4306H137.613C141.036 60.4306 146.547 60.1398 146.547 64.6686C146.547 68.1692 141.63 68.4698 139.246 68.4698H124.496V81.6099H138.642C143.114 81.6099 148.179 81.6099 148.179 85.5567C148.179 90.6673 142.669 90.2308 138.791 90.2308H118.233V111.546H142.214C148.911 111.546 161.574 111.691 168.429 102.488C170.962 98.9876 172.001 94.6043 172.001 90.2213C172.001 87.3022 171.407 84.3834 170.062 81.7554C168.588 78.9819 164.858 74.0169 157.112 72.8433Z" fill="#102A59"/>
<path d="M154.153 31.3731H157.329V12.2789H154.153V31.3731ZM142.381 12.2789V27.2031C142.381 29.3949 142.549 31.9453 144.508 33.7392C146.298 35.3974 148.672 35.4946 150.701 35.4946H169.101V12.2789H165.925V32.5757H150.908C149.523 32.5757 147.832 32.5077 146.714 31.412C145.497 30.2482 145.566 28.464 145.566 27.3389V12.2789H142.381ZM123.001 35.4848V20.5702C123.001 16.7203 125.434 14.8681 127.908 14.8681C130.885 14.8681 132.814 17.3895 132.814 20.5702V22.0248H124.227V24.9438H132.814V35.4848H135.99V20.5023C135.99 16.0609 132.913 11.9492 127.908 11.9492C122.902 11.9492 119.825 16.0609 119.825 20.5023V35.4946H123.001V35.4848ZM99.9705 35.4848V24.9438H110.249V35.4848H113.425V12.2789H110.249V22.0248H99.9705V12.2789H96.7949V35.4946H99.9705V35.4848Z" fill="#FFCF1C"/>
<path d="M110.883 78.6908C110.883 77.8472 110.853 77.0326 110.814 76.2179C111.259 67.3159 108.429 57.8318 101.682 49.0264C98.0024 44.2262 93.8969 39.6976 89.9497 35.0719C79.9879 23.3961 80.324 14.7752 91.1862 3.89472C92.136 2.94438 93.0362 1.96494 94.8863 0.0351562C81.9861 0.859436 72.8255 5.95057 65.0992 13.0491C53.4851 23.7259 46.2337 36.7301 43.4736 51.509C40.7532 66.0745 49.5874 77.595 65.8609 80.097C58.847 73.3184 53.228 66.763 54.1577 57.6087C55.0581 48.7937 60.3901 42.2867 67.2163 35.6635C81.9366 48.687 93.788 62.535 94.3224 81.6874C94.718 96.185 83.3909 106.91 66.6227 108.278C60.3013 108.801 53.8908 108.365 47.8463 108.365C54.4941 112.224 62.6755 113.592 71.1931 112.768C77.0396 112.205 82.3423 110.799 87.0413 108.753V111.546H110.873V78.6908H110.883Z" fill="#FFCF1C"/>
<path d="M53.3276 23.8398C11.3626 93.2927 72.5097 91.8672 86.9135 90.655C88.7536 90.4997 89.8416 90.3446 89.8416 90.3446V92.7107C84.8756 97.1522 80.1272 100.1 75.6754 101.923C74.6464 102.369 73.5681 102.757 72.4305 103.068C66.0596 104.978 60.3613 104.648 55.5436 103.3C46.4621 101.08 38.3599 94.4467 34.9172 86.4075C18.2678 54.2025 53.3276 23.8398 53.3276 23.8398Z" fill="#102A59"/>
</svg>
