<svg width="224" height="259" viewBox="0 0 224 259" fill="none" xmlns="http://www.w3.org/2000/svg">
<path d="M152.052 45.8794C137.773 43.6007 121.513 42.3848 104.58 42.3848C89.0823 42.3848 74.1516 43.4016 60.7891 45.3189C60.7922 45.1137 60.7952 44.9085 60.8043 44.7033C61.1586 32.7923 66.1578 21.4924 74.7335 13.2186C83.3092 4.94493 94.7811 0.353836 106.697 0.426634C118.613 0.499432 130.028 5.23035 138.502 13.6082C146.976 21.9861 151.837 33.3463 152.045 45.2607C152.049 45.469 152.052 45.6742 152.052 45.8794Z" fill="#93A2BF"/>
<g opacity="0.1">
<path opacity="0.1" d="M112.405 0.410809C106.068 -0.445235 99.6207 0.0399456 93.4826 1.83491C87.3444 3.62986 81.6518 6.69455 76.7739 10.8303C71.8959 14.9661 67.9414 20.0807 65.1667 25.8426C62.3919 31.6045 60.8587 37.8852 60.6666 44.2776C60.6574 44.4828 60.6544 44.688 60.6514 44.8932C64.6212 44.3236 68.7322 43.8355 72.9527 43.4279C73.4689 32.7785 77.6971 22.6459 84.9036 14.7883C92.1101 6.93065 101.84 1.84394 112.405 0.410809Z" fill="white"/>
</g>
<path d="M172.015 49.4967C165.442 47.715 158.775 46.2999 152.046 45.258C141.016 43.5487 129.896 42.4801 118.742 42.0574C114.096 41.8675 109.364 41.7695 104.58 41.7695C100.788 41.7695 97.0272 41.8308 93.3183 41.9533C82.4384 42.2747 71.5842 43.1919 60.8046 44.7005C52.8249 45.7993 44.9227 47.4012 37.1452 49.4967C19.0109 54.5104 9.02344 61.23 9.02344 68.4151C9.02344 75.6002 19.0109 82.3198 37.1452 87.3334C49.8983 90.8617 65.6222 93.2659 82.7551 94.3685C89.8269 94.8279 97.1376 95.0606 104.58 95.0606C112.047 95.0606 119.382 94.8248 126.475 94.3654C142.067 93.3578 156.493 91.2721 168.566 88.24C168.63 88.2216 168.692 88.2063 168.756 88.191C169.571 87.9888 170.373 87.7775 171.166 87.5662C171.451 87.4865 171.733 87.41 172.015 87.3334C172.03 87.3269 172.047 87.3218 172.064 87.3181C172.333 87.2446 172.599 87.168 172.866 87.0945C173.399 86.9414 173.926 86.7913 174.443 86.6351C174.468 86.629 174.489 86.6229 174.511 86.6167C174.961 86.482 175.402 86.3472 175.84 86.2125C176.198 86.0991 176.553 85.9889 176.906 85.8756C177.163 85.7929 177.417 85.7102 177.668 85.6275C177.852 85.5662 178.033 85.508 178.21 85.4468C178.452 85.3672 178.694 85.2845 178.933 85.2018C179.034 85.1681 179.135 85.1344 179.233 85.0976C179.463 85.0211 179.687 84.9414 179.91 84.8618C180.152 84.7761 180.394 84.6872 180.633 84.6015C180.832 84.531 181.031 84.4575 181.227 84.384C181.392 84.3197 181.555 84.2585 181.72 84.1972C182.17 84.0288 182.612 83.8542 183.046 83.6827C183.264 83.5938 183.481 83.5081 183.696 83.4193C183.907 83.3335 184.121 83.2447 184.33 83.1559C184.673 83.0119 185.01 82.868 185.34 82.724C185.5 82.6505 185.662 82.5801 185.818 82.5127C185.938 82.4576 186.054 82.4055 186.173 82.3504C186.259 82.3137 186.345 82.2738 186.428 82.234C186.737 82.0931 187.043 81.9492 187.343 81.8052C188.495 81.254 189.57 80.6904 190.568 80.1146C196.832 76.5282 200.136 72.5497 200.136 68.4151C200.136 61.23 190.149 54.5104 172.015 49.4967ZM171.849 86.7454C159.081 90.2767 143.314 92.6809 126.135 93.7743C119.149 94.2184 111.927 94.4481 104.58 94.4481C97.2569 94.4481 90.0595 94.2214 83.095 93.7773C65.8887 92.687 50.0974 90.2828 37.3106 86.7454C19.4642 81.8083 9.63598 75.3 9.63598 68.4151C9.63698 67.8067 9.71312 67.2008 9.86269 66.6111C11.4246 60.4 21.0323 54.587 37.3106 50.0848C45.0293 48.0056 52.871 46.4129 60.7893 45.3161C71.6338 43.7989 82.5535 42.8787 93.499 42.5597C97.1498 42.4403 100.843 42.3811 104.58 42.3821C109.3 42.3821 113.967 42.477 118.555 42.6608C129.774 43.0796 140.958 44.1534 152.052 45.8766C158.723 46.9139 165.333 48.3187 171.849 50.0848C188.124 54.587 197.729 60.3969 199.294 66.605C199.446 67.1964 199.523 67.8045 199.524 68.4151C199.524 75.3 189.696 81.8083 171.849 86.7454Z" fill="#102A59"/>
<path d="M199.962 68.6987C199.962 72.7905 196.59 76.6617 190.569 80.1195C189.567 80.6953 188.489 81.2588 187.344 81.8101C187.044 81.9541 186.737 82.098 186.428 82.2389C186.345 82.2787 186.26 82.3185 186.174 82.3553C186.054 82.4104 185.938 82.4625 185.819 82.5176C185.663 82.585 185.5 82.6554 185.341 82.7289C185.01 82.8729 184.673 83.0168 184.33 83.1607C184.122 83.2496 183.907 83.3384 183.696 83.4241C183.482 83.513 183.264 83.5987 183.047 83.6875C182.612 83.859 182.171 84.0336 181.721 84.2021C181.555 84.2633 181.393 84.3246 181.228 84.3889C181.032 84.4624 180.833 84.5359 180.633 84.6063C180.395 84.6921 180.153 84.7809 179.911 84.8667C179.687 84.9463 179.464 85.0259 179.234 85.1025C179.136 85.1393 179.035 85.1729 178.934 85.2066C178.695 85.2893 178.453 85.372 178.211 85.4517C178.033 85.5129 177.853 85.5711 177.669 85.6324C177.418 85.715 177.163 85.7977 176.906 85.8804C176.554 85.9938 176.199 86.104 175.84 86.2173C175.402 86.3521 174.961 86.4869 174.511 86.6216C174.49 86.6277 174.468 86.6339 174.444 86.64C173.926 86.7962 173.399 86.9463 172.866 87.0994C172.6 87.1729 172.334 87.2495 172.064 87.323C172.047 87.3267 172.031 87.3318 172.015 87.3383C171.733 87.4149 171.451 87.4914 171.167 87.571C170.376 87.7793 169.571 87.9906 168.756 88.1958C168.692 88.2111 168.631 88.2265 168.566 88.2448C156.821 91.1789 142.411 93.3167 126.463 94.3488C119.477 94.799 112.194 95.0379 104.712 95.0379C97.1626 95.0379 89.818 94.796 82.7769 94.3366C40.7443 91.5954 9.46191 81.1577 9.46191 68.6986C9.46522 67.9405 9.58078 67.1871 9.80482 66.4629C9.82322 66.5149 9.84161 66.5639 9.86315 66.616C14.2335 78.095 45.2497 87.372 85.4936 89.6353C91.6588 89.9844 98.0446 90.1652 104.58 90.1652C111.144 90.1652 117.554 89.9814 123.744 89.6322C163.954 87.3597 194.939 78.0797 199.295 66.6099C199.368 66.4261 199.432 66.2423 199.487 66.0586C199.798 66.9043 199.959 67.7977 199.962 68.6987Z" fill="#102A59"/>
<path d="M37.0985 65.3988C32.0013 65.3988 26.584 64.3022 26.584 62.2697C26.584 60.2372 32.0013 59.1406 37.0985 59.1406C42.1956 59.1406 47.6129 60.2372 47.6129 62.2697C47.6129 64.3022 42.1956 65.3988 37.0985 65.3988ZM37.0985 59.7532C31.2631 59.7532 27.1965 61.0795 27.1965 62.2697C27.1965 63.46 31.2631 64.7863 37.0985 64.7863C42.9338 64.7863 47.0004 63.46 47.0004 62.2697C47.0004 61.0795 42.9338 59.7532 37.0985 59.7532Z" fill="#102A59"/>
<path d="M58.8435 79.7934C53.7464 79.7934 48.3291 78.6967 48.3291 76.6643C48.3291 74.6318 53.7464 73.5352 58.8435 73.5352C63.9408 73.5352 69.3581 74.6318 69.3581 76.6643C69.3581 78.6967 63.9408 79.7934 58.8435 79.7934ZM58.8435 74.1477C53.0082 74.1477 48.9416 75.474 48.9416 76.6643C48.9416 77.8545 53.0082 79.1808 58.8435 79.1808C64.6789 79.1808 68.7455 77.8545 68.7455 76.6643C68.7455 75.474 64.6789 74.1477 58.8435 74.1477Z" fill="#102A59"/>
<path d="M171.858 65.3988C166.761 65.3988 161.344 64.3022 161.344 62.2697C161.344 60.2372 166.761 59.1406 171.858 59.1406C176.955 59.1406 182.373 60.2372 182.373 62.2697C182.373 64.3022 176.955 65.3988 171.858 65.3988ZM171.858 59.7532C166.023 59.7532 161.956 61.0795 161.956 62.2697C161.956 63.46 166.023 64.7863 171.858 64.7863C177.694 64.7863 181.76 63.46 181.76 62.2697C181.76 61.0795 177.694 59.7532 171.858 59.7532Z" fill="#102A59"/>
<path d="M150.113 79.7934C145.016 79.7934 139.599 78.6967 139.599 76.6643C139.599 74.6318 145.016 73.5352 150.113 73.5352C155.21 73.5352 160.628 74.6318 160.628 76.6643C160.628 78.6967 155.21 79.7934 150.113 79.7934ZM150.113 74.1477C144.278 74.1477 140.211 75.474 140.211 76.6643C140.211 77.8545 144.278 79.1808 150.113 79.1808C155.948 79.1808 160.015 77.8545 160.015 76.6643C160.015 75.474 155.948 74.1477 150.113 74.1477Z" fill="#102A59"/>
<path d="M104.478 86.5316C99.3812 86.5316 93.9639 85.435 93.9639 83.4025C93.9639 81.3701 99.3812 80.2734 104.478 80.2734C109.576 80.2734 114.993 81.3701 114.993 83.4025C114.993 85.435 109.576 86.5316 104.478 86.5316ZM104.478 80.886C98.6429 80.886 94.5764 82.2123 94.5764 83.4025C94.5764 84.5928 98.6429 85.9191 104.478 85.9191C110.314 85.9191 114.38 84.5928 114.38 83.4025C114.38 82.2123 110.314 80.886 104.478 80.886Z" fill="#102A59"/>
<path d="M112.229 150.902C119.336 150.902 125.097 145.141 125.097 138.035C125.097 130.929 119.336 125.168 112.229 125.168C105.123 125.168 99.3623 130.929 99.3623 138.035C99.3623 145.141 105.123 150.902 112.229 150.902Z" fill="#102A59"/>
<path d="M107.337 146.493L101.074 149.629L102.825 153.124L109.087 149.988L107.337 146.493Z" fill="#102A59"/>
<path d="M103.652 152.77C104.023 152.206 103.106 150.947 101.604 149.957C100.102 148.966 98.5838 148.62 98.2125 149.183C97.8411 149.747 98.7576 151.006 100.26 151.996C101.762 152.987 103.28 153.333 103.652 152.77Z" fill="#102A59"/>
<path d="M117.123 146.489L115.373 149.984L121.635 153.12L123.386 149.625L117.123 146.489Z" fill="#102A59"/>
<path d="M124.201 151.993C125.703 151.002 126.62 149.743 126.248 149.18C125.877 148.616 124.358 148.963 122.856 149.953C121.354 150.943 120.438 152.203 120.809 152.766C121.181 153.329 122.699 152.983 124.201 151.993Z" fill="#102A59"/>
<path d="M111.329 139.287C113.758 139.287 115.727 137.319 115.727 134.89C115.727 132.461 113.758 130.492 111.329 130.492C108.901 130.492 106.932 132.461 106.932 134.89C106.932 137.319 108.901 139.287 111.329 139.287Z" fill="white"/>
<path d="M112.398 134.047C112.968 133.477 112.965 132.549 112.391 131.975C111.817 131.401 110.889 131.398 110.319 131.968C109.749 132.538 109.753 133.465 110.327 134.04C110.901 134.614 111.828 134.617 112.398 134.047Z" fill="#102A59"/>
<path d="M122.38 124.04C122.574 119.277 118.468 115.242 113.21 115.028C107.952 114.815 103.533 118.503 103.339 123.267C103.146 128.031 106.801 129.113 112.059 129.326C117.317 129.54 122.187 128.804 122.38 124.04Z" fill="#93A2BF"/>
<path d="M129.798 144.772C130.644 144.045 129.454 141.271 127.139 138.575C124.825 135.879 122.263 134.282 121.416 135.009C120.57 135.735 121.76 138.51 124.074 141.206C126.389 143.902 128.951 145.498 129.798 144.772Z" fill="#102A59"/>
<path d="M100.422 141.207C102.736 138.511 103.926 135.736 103.08 135.01C102.233 134.283 99.6711 135.88 97.3567 138.576C95.0422 141.271 93.8521 144.046 94.6985 144.773C95.5448 145.499 98.1072 143.903 100.422 141.207Z" fill="#102A59"/>
<path d="M115.764 143.107C115.903 143.872 115.733 144.661 115.29 145.3C114.848 145.939 114.17 146.377 113.405 146.516C112.64 146.655 111.851 146.485 111.211 146.043C110.572 145.6 110.135 144.922 109.995 144.157L109.994 144.151C109.706 142.558 110.938 141.994 112.531 141.706C114.124 141.417 115.476 141.513 115.764 143.107Z" fill="white"/>
<path d="M90.4914 151.724C90.329 151.724 90.1732 151.66 90.0583 151.545C89.9435 151.43 89.8789 151.274 89.8789 151.112V114.972C89.8789 114.809 89.9434 114.654 90.0583 114.539C90.1732 114.424 90.329 114.359 90.4914 114.359C90.6539 114.359 90.8097 114.424 90.9246 114.539C91.0394 114.654 91.104 114.809 91.104 114.972V151.112C91.104 151.274 91.0394 151.43 90.9246 151.545C90.8097 151.66 90.6539 151.724 90.4914 151.724Z" fill="#93A2BF"/>
<path d="M81.303 184.189C81.1405 184.189 80.9847 184.125 80.8698 184.01C80.755 183.895 80.6904 183.739 80.6904 183.577V157.238C80.6904 157.075 80.755 156.919 80.8698 156.804C80.9847 156.69 81.1405 156.625 81.303 156.625C81.4654 156.625 81.6212 156.69 81.7361 156.804C81.851 156.919 81.9155 157.075 81.9155 157.238V183.577C81.9155 183.739 81.851 183.895 81.7361 184.01C81.6212 184.125 81.4654 184.189 81.303 184.189Z" fill="#93A2BF"/>
<path d="M104.887 162.443C104.725 162.443 104.569 162.379 104.454 162.264C104.339 162.149 104.274 161.993 104.274 161.831V125.691C104.274 125.528 104.339 125.372 104.454 125.258C104.569 125.143 104.724 125.078 104.887 125.078C105.049 125.078 105.205 125.143 105.32 125.258C105.435 125.372 105.499 125.528 105.499 125.691V161.831C105.499 161.993 105.435 162.149 105.32 162.264C105.205 162.379 105.049 162.443 104.887 162.443Z" fill="#93A2BF"/>
<path d="M96.0051 188.477C95.8427 188.477 95.6869 188.412 95.572 188.297C95.4571 188.183 95.3926 188.027 95.3926 187.864V173.163C95.3926 173.001 95.4571 172.845 95.572 172.73C95.6869 172.615 95.8427 172.551 96.0051 172.551C96.1676 172.551 96.3234 172.615 96.4382 172.73C96.5531 172.845 96.6177 173.001 96.6177 173.163V187.864C96.6177 188.027 96.5531 188.183 96.4382 188.297C96.3234 188.412 96.1676 188.477 96.0051 188.477Z" fill="#93A2BF"/>
<path d="M108.562 113.133C108.399 113.133 108.244 113.069 108.129 112.954C108.014 112.839 107.949 112.683 107.949 112.521V97.8196C107.949 97.6571 108.014 97.5013 108.129 97.3864C108.243 97.2716 108.399 97.207 108.562 97.207C108.724 97.207 108.88 97.2716 108.995 97.3864C109.11 97.5013 109.174 97.6571 109.174 97.8196V112.521C109.174 112.683 109.11 112.839 108.995 112.954C108.88 113.069 108.724 113.133 108.562 113.133Z" fill="#93A2BF"/>
<path d="M77.9348 119.567C77.7724 119.567 77.6166 119.502 77.5017 119.387C77.3868 119.272 77.3223 119.117 77.3223 118.954V104.253C77.3223 104.091 77.3868 103.935 77.5017 103.82C77.6165 103.705 77.7724 103.641 77.9348 103.641C78.0973 103.641 78.2531 103.705 78.3679 103.82C78.4828 103.935 78.5473 104.091 78.5473 104.253V118.954C78.5473 119.117 78.4828 119.272 78.3679 119.387C78.2531 119.502 78.0973 119.567 77.9348 119.567Z" fill="#93A2BF"/>
<path d="M131.225 121.098C131.062 121.098 130.907 121.033 130.792 120.919C130.677 120.804 130.612 120.648 130.612 120.485V105.784C130.612 105.622 130.677 105.466 130.792 105.351C130.907 105.236 131.062 105.172 131.225 105.172C131.387 105.172 131.543 105.236 131.658 105.351C131.773 105.466 131.837 105.622 131.837 105.784V120.485C131.837 120.648 131.773 120.804 131.658 120.919C131.543 121.033 131.387 121.098 131.225 121.098Z" fill="#93A2BF"/>
<path d="M130 167.04C129.838 167.04 129.682 166.975 129.567 166.86C129.452 166.745 129.388 166.589 129.388 166.427V148.663C129.388 148.501 129.452 148.345 129.567 148.23C129.682 148.115 129.838 148.051 130 148.051C130.163 148.051 130.318 148.115 130.433 148.23C130.548 148.345 130.613 148.501 130.613 148.663V166.427C130.613 166.589 130.548 166.745 130.433 166.86C130.318 166.975 130.163 167.04 130 167.04Z" fill="#93A2BF"/>
<path d="M117.75 182.658C117.588 182.658 117.432 182.594 117.317 182.479C117.202 182.364 117.138 182.208 117.138 182.046V155.706C117.138 155.544 117.202 155.388 117.317 155.273C117.432 155.158 117.588 155.094 117.75 155.094C117.913 155.094 118.068 155.158 118.183 155.273C118.298 155.388 118.363 155.544 118.363 155.706V182.046C118.363 182.208 118.298 182.364 118.183 182.479C118.068 182.594 117.913 182.658 117.75 182.658Z" fill="#93A2BF"/>
<path d="M120.199 137.635C120.037 137.635 119.881 137.57 119.766 137.455C119.651 137.34 119.587 137.184 119.587 137.022V100.882C119.587 100.72 119.651 100.564 119.766 100.449C119.881 100.334 120.037 100.27 120.199 100.27C120.362 100.27 120.518 100.334 120.633 100.449C120.747 100.564 120.812 100.72 120.812 100.882V137.022C120.812 137.184 120.747 137.34 120.633 137.455C120.518 137.57 120.362 137.635 120.199 137.635Z" fill="#93A2BF"/>
<path d="M195.294 214.538C196.171 213.804 194.986 210.945 192.648 208.152C190.31 205.36 187.703 203.691 186.827 204.425C185.95 205.159 187.135 208.018 189.473 210.811C191.811 213.603 194.418 215.272 195.294 214.538Z" fill="#102A59"/>
<path d="M189.546 211.364C191.849 204.453 188.114 196.983 181.203 194.68C174.292 192.376 166.822 196.111 164.519 203.022C162.215 209.933 165.95 217.403 172.861 219.706C179.772 222.01 187.242 218.275 189.546 211.364Z" fill="#102A59"/>
<path d="M182.615 217.539H178.607V224.719H182.615V217.539Z" fill="#102A59"/>
<path d="M174.601 217.539H170.594V224.719H174.601V217.539Z" fill="#102A59"/>
<path d="M179.276 226.059C181.12 226.059 182.615 225.499 182.615 224.807C182.615 224.115 181.12 223.555 179.276 223.555C177.432 223.555 175.937 224.115 175.937 224.807C175.937 225.499 177.432 226.059 179.276 226.059Z" fill="#102A59"/>
<path d="M171.261 225.891C173.105 225.891 174.6 225.331 174.6 224.639C174.6 223.947 173.105 223.387 171.261 223.387C169.417 223.387 167.922 223.947 167.922 224.639C167.922 225.331 169.417 225.891 171.261 225.891Z" fill="#102A59"/>
<path d="M172.891 190.612C174.068 185.869 179.267 183.078 184.503 184.378C189.738 185.678 193.028 190.577 191.85 195.32C190.672 200.063 186.765 200.078 181.529 198.778C176.294 197.478 171.713 195.355 172.891 190.612Z" fill="#93A2BF"/>
<path d="M168.135 203.895C168.625 202.862 166.354 200.759 163.063 199.198C159.772 197.637 156.707 197.209 156.217 198.243C155.727 199.276 157.998 201.379 161.289 202.939C164.58 204.5 167.645 204.928 168.135 203.895Z" fill="#102A59"/>
<path d="M175.06 208.803C177.488 208.803 179.457 206.834 179.457 204.405C179.457 201.977 177.488 200.008 175.06 200.008C172.631 200.008 170.662 201.977 170.662 204.405C170.662 206.834 172.631 208.803 175.06 208.803Z" fill="white"/>
<path d="M173.253 204.295C174.063 204.295 174.719 203.639 174.719 202.829C174.719 202.02 174.063 201.363 173.253 201.363C172.443 201.363 171.787 202.02 171.787 202.829C171.787 203.639 172.443 204.295 173.253 204.295Z" fill="#102A59"/>
<path d="M175.022 215.429C176.037 215.429 176.86 214.606 176.86 213.592C176.86 212.577 176.037 211.754 175.022 211.754C174.007 211.754 173.185 212.577 173.185 213.592C173.185 214.606 174.007 215.429 175.022 215.429Z" fill="white"/>
<path d="M214.694 226.148H142.414C142.332 226.148 142.255 226.115 142.197 226.058C142.14 226.001 142.107 225.923 142.107 225.841C142.107 225.76 142.14 225.682 142.197 225.625C142.255 225.567 142.332 225.535 142.414 225.535H214.694C214.775 225.535 214.853 225.567 214.91 225.625C214.968 225.682 215 225.76 215 225.841C215 225.923 214.968 226.001 214.91 226.058C214.853 226.115 214.775 226.148 214.694 226.148Z" fill="#DFE8FA"/>
</svg>
