<svg width="50" height="33" viewBox="0 0 50 33" fill="none" xmlns="http://www.w3.org/2000/svg">
<path fill-rule="evenodd" clip-rule="evenodd" d="M27.9858 14.2294C28.062 13.6674 28.5196 13.346 29.0533 13.346C29.8921 13.2653 30.8058 13.4267 31.5683 13.8274L32.0258 11.5804C31.2633 11.259 30.4245 11.0977 29.6633 11.0977C27.1483 11.0977 25.3183 12.5432 25.3183 14.5494C25.3183 16.0757 26.6146 16.8771 27.5296 17.3598C28.5196 17.8412 28.9008 18.1626 28.8246 18.644C28.8246 19.3661 28.062 19.6875 27.3008 19.6875C26.3858 19.6875 25.4708 19.4468 24.6333 19.0447L24.1758 21.293C25.0909 21.6937 26.0808 21.8551 26.9958 21.8551C29.8158 21.9344 31.5683 20.4902 31.5683 18.3226C31.5683 16.6821 30.2744 15.9698 29.2418 15.4012C28.5562 15.0237 27.9858 14.7097 27.9858 14.2294ZM14.1161 21.7743H16.8598L20.9748 11.3382H18.3073L15.5649 18.4032L14.4974 12.3817C14.4211 11.821 13.9636 11.3382 13.3536 11.3382H8.93359V11.6596C9.84862 11.821 10.6874 12.141 11.4486 12.5431C11.7536 12.7031 11.961 13.0425 12.0586 13.4265L14.1161 21.7743ZM19.909 21.7743H22.5002L24.634 11.3382H22.0427L19.909 21.7743ZM40.6369 21.7743L38.5794 11.3382H36.3694C35.9119 11.3382 35.4544 11.6596 35.3019 12.141L31.4919 21.7743H34.1594L34.6918 20.2494H37.9694L38.2744 21.7743H40.6369ZM36.7514 14.1484L37.5126 18.0815H35.3789L36.7514 14.1484Z" fill="#7C8AA4"/>
<rect x="1.19141" y="1" width="47.1891" height="30.9542" rx="1" stroke="#D9D9D9" stroke-opacity="0.18" stroke-width="2"/>
</svg>
