<svg width="83" height="33" viewBox="0 0 83 33" fill="none" xmlns="http://www.w3.org/2000/svg">
<path fill-rule="evenodd" clip-rule="evenodd" d="M66.0932 16.0937L61.6269 10.837L62.8657 9.75L68.2546 16.0937L62.8657 22.4369L61.6269 21.3511L66.0932 16.0937ZM71.5248 16.0937L67.0588 10.837L68.2972 9.75L73.6863 16.0937L68.2972 22.4369L67.0588 21.3511L71.5248 16.0937ZM14.698 20.959C14.698 21.0713 14.6925 21.1655 14.6814 21.2412C14.6702 21.3172 14.6523 21.3818 14.6274 21.4351C14.6024 21.4887 14.572 21.5279 14.536 21.5531C14.4999 21.5785 14.4572 21.5911 14.4073 21.5911H9.65494C9.52744 21.5911 9.40703 21.5477 9.29351 21.4605C9.1798 21.3734 9.12305 21.2202 9.12305 21.0011V10.9046C9.12305 10.8597 9.13408 10.8203 9.15635 10.7867C9.17842 10.7529 9.21725 10.7263 9.27262 10.7065C9.328 10.6869 9.40269 10.6702 9.49689 10.656C9.59109 10.6422 9.7046 10.635 9.83762 10.635C9.97597 10.635 10.0909 10.6422 10.1823 10.656C10.2737 10.6702 10.3471 10.6869 10.4026 10.7065C10.4578 10.7263 10.4968 10.7529 10.5189 10.7867C10.541 10.8205 10.5522 10.8597 10.5522 10.9046V20.3354H14.4073C14.4572 20.3354 14.4999 20.348 14.536 20.3734C14.5718 20.3988 14.6024 20.4352 14.6274 20.4828C14.6525 20.5306 14.6704 20.5937 14.6814 20.6725C14.6925 20.7513 14.698 20.8466 14.698 20.959ZM17.6722 21.4899C17.6942 21.4563 17.7055 21.4171 17.7055 21.372V10.9046C17.7055 10.8597 17.6942 10.8205 17.6722 10.7867C17.6501 10.7529 17.6111 10.7263 17.5559 10.7065C17.5003 10.6869 17.427 10.6702 17.3356 10.656C17.2441 10.6422 17.1292 10.635 16.9909 10.635C16.8632 10.635 16.754 10.6422 16.6626 10.656C16.5713 10.6702 16.4964 10.6869 16.4383 10.7065C16.3802 10.7263 16.3388 10.7529 16.3138 10.7867C16.2887 10.8203 16.2763 10.8597 16.2763 10.9046V21.372C16.2763 21.4171 16.2874 21.4561 16.3096 21.4899C16.3317 21.5237 16.3705 21.5503 16.4259 21.5701C16.4813 21.5897 16.556 21.6065 16.6502 21.6206C16.7442 21.6344 16.8579 21.6416 16.9909 21.6416C17.1292 21.6416 17.2441 21.6344 17.3356 21.6206C17.4272 21.6065 17.5003 21.5899 17.5559 21.5701C17.6111 21.5503 17.6499 21.5237 17.6722 21.4899ZM30.8909 22.5518C30.8909 22.6809 30.884 22.7891 30.8702 22.876C30.8562 22.9632 30.8355 23.0306 30.8079 23.0783C30.7801 23.1259 30.7498 23.1585 30.7165 23.1753C30.6832 23.1921 30.6498 23.2007 30.6167 23.2007C30.506 23.2007 30.3272 23.1543 30.0809 23.0617C29.8346 22.9692 29.5506 22.8341 29.2294 22.6573C28.9081 22.4802 28.5646 22.2653 28.1991 22.0124C27.8335 21.7596 27.479 21.4647 27.1357 21.1275C26.8643 21.296 26.5208 21.4421 26.1054 21.5656C25.69 21.6892 25.2081 21.7512 24.6597 21.7512C23.8509 21.7512 23.1517 21.6302 22.5619 21.3887C21.972 21.1472 21.4845 20.7932 21.0996 20.3268C20.7145 19.8604 20.428 19.2805 20.2396 18.5866C20.0512 17.8928 19.9572 17.0963 19.9572 16.1974C19.9572 15.3322 20.0597 14.5497 20.2646 13.8502C20.4696 13.1508 20.777 12.5553 21.1869 12.0635C21.5968 11.5719 22.1092 11.1927 22.7239 10.9258C23.3387 10.6589 24.0559 10.5254 24.8757 10.5254C25.6454 10.5254 26.3228 10.6463 26.9071 10.8878C27.4914 11.1295 27.9815 11.4822 28.3776 11.9455C28.7735 12.4091 29.0713 12.9809 29.2707 13.6605C29.4702 14.3404 29.5699 15.1215 29.5699 16.0034C29.5699 16.4586 29.5435 16.894 29.4909 17.3098C29.4383 17.7258 29.3551 18.1191 29.2418 18.4899C29.1281 18.8607 28.9854 19.2034 28.8139 19.518C28.6421 19.8329 28.4399 20.1163 28.2074 20.3692C28.6115 20.7062 28.9661 20.9691 29.2707 21.1572C29.5752 21.3455 29.8275 21.4875 30.0267 21.5828C30.2261 21.6784 30.381 21.7472 30.492 21.7891C30.6026 21.8313 30.6857 21.8791 30.7413 21.9325C30.7965 21.9857 30.8355 22.0616 30.8576 22.16C30.8796 22.2581 30.8909 22.3889 30.8909 22.5518ZM28.0661 16.1046C28.0661 15.4865 28.0121 14.9136 27.9041 14.3852C27.7961 13.857 27.6159 13.3979 27.3639 13.0072C27.1118 12.6168 26.7752 12.312 26.3545 12.0929C25.9336 11.8738 25.4129 11.7642 24.7925 11.7642C24.1721 11.7642 23.6515 11.8808 23.2305 12.1141C22.8096 12.3474 22.4675 12.6618 22.2044 13.058C21.9413 13.454 21.7529 13.9134 21.6394 14.436C21.5259 14.9585 21.4689 15.5119 21.4689 16.0964C21.4689 16.7369 21.5215 17.3254 21.6268 17.862C21.732 18.3985 21.9092 18.8637 22.1585 19.2569C22.4078 19.6503 22.7414 19.9552 23.1596 20.1713C23.5778 20.3876 24.1026 20.4957 24.734 20.4957C25.3599 20.4957 25.8861 20.3778 26.3125 20.1419C26.739 19.906 27.0823 19.5872 27.3428 19.1854C27.6031 18.7837 27.7886 18.3172 27.8995 17.7864C28.0107 17.2551 28.0661 16.6945 28.0661 16.1046ZM38.3517 15.3545C38.5289 14.9163 38.6175 14.4248 38.6175 13.8796C38.6175 13.4696 38.5606 13.0946 38.4471 12.7543C38.3336 12.4145 38.1716 12.1152 37.9611 11.8568C37.7504 11.5985 37.4942 11.3806 37.1925 11.2037C36.8906 11.0267 36.5942 10.906 36.3035 10.8412C36.0127 10.7767 35.7608 10.7347 35.5476 10.7149C35.3344 10.6951 35.1115 10.6853 34.8787 10.6853H32.5773C32.4331 10.6853 32.303 10.7331 32.1867 10.8286C32.0705 10.9242 32.0123 11.0843 32.0123 11.309V21.3719C32.0123 21.4171 32.0234 21.4561 32.0456 21.4899C32.0677 21.5236 32.1065 21.5502 32.1619 21.57C32.2173 21.5896 32.2908 21.6064 32.3822 21.6206C32.4737 21.6344 32.5886 21.6416 32.7271 21.6416C32.8655 21.6416 32.9803 21.6344 33.0718 21.6206C33.1632 21.6064 33.2352 21.5898 33.2878 21.57C33.3404 21.5502 33.379 21.5236 33.404 21.4899C33.4291 21.4563 33.4415 21.4171 33.4415 21.3719V17.4446H34.6629C35.3275 17.4446 35.8994 17.3602 36.3784 17.1917C36.8575 17.0232 37.2621 16.7845 37.5916 16.4754C37.9211 16.1666 38.1743 15.7929 38.3517 15.3545ZM36.8685 12.8849C37.0319 13.1829 37.1137 13.5538 37.1137 13.9976C37.1137 14.3234 37.0638 14.6255 36.9643 14.9035C36.8644 15.1816 36.7178 15.4205 36.5239 15.6198C36.33 15.8195 36.0903 15.9754 35.8052 16.0876C35.5198 16.2001 35.1613 16.2561 34.7291 16.2561H33.4413V11.8822H34.7623C35.006 11.8822 35.2567 11.9019 35.5143 11.9411C35.7718 11.9805 36.0211 12.0731 36.262 12.2192C36.503 12.3653 36.7052 12.5872 36.8685 12.8849ZM48.8532 21.0771C48.8973 21.2009 48.921 21.3004 48.9237 21.3764C48.9263 21.4523 48.9056 21.5099 48.8614 21.5493C48.8171 21.5885 48.7438 21.6137 48.6413 21.6251C48.5386 21.6362 48.4017 21.642 48.23 21.642C48.0584 21.642 47.9212 21.6378 47.8187 21.6295C47.7163 21.6211 47.6386 21.6069 47.5862 21.5873C47.5334 21.5677 47.4948 21.5409 47.4699 21.5073C47.4449 21.4735 47.4214 21.4313 47.3994 21.381L46.4771 18.7262H42.0071L41.1264 21.3472C41.1097 21.3978 41.0876 21.4415 41.0598 21.4777C41.032 21.5143 40.992 21.5453 40.9394 21.5705C40.8868 21.5957 40.8119 21.6139 40.7151 21.6253C40.6182 21.6364 40.4921 21.6422 40.3372 21.6422C40.1765 21.6422 40.0449 21.635 39.9426 21.6213C39.8401 21.6071 39.7682 21.5805 39.7266 21.5411C39.6852 21.5019 39.6655 21.4441 39.6685 21.3684C39.6713 21.2924 39.6947 21.1927 39.739 21.0691L43.3448 10.9388C43.3669 10.8771 43.3961 10.8265 43.432 10.7871C43.4678 10.7477 43.5206 10.7167 43.5898 10.6944C43.659 10.672 43.7477 10.6564 43.8557 10.648C43.9635 10.6396 44.1008 10.6354 44.2669 10.6354C44.4441 10.6354 44.5909 10.6396 44.7074 10.648C44.8237 10.6564 44.9179 10.672 44.9898 10.6944C45.0617 10.7169 45.1171 10.7491 45.1559 10.7913C45.1946 10.8335 45.2251 10.8855 45.2474 10.9472L48.8532 21.0771ZM44.2254 12.1351H44.2171L42.3644 17.5709H46.103L44.2254 12.1351ZM54.0706 21.3718V17.3519L57.1114 11.1993C57.1723 11.0758 57.2098 10.9776 57.2236 10.9045C57.2374 10.8315 57.2224 10.7753 57.1778 10.736C57.1333 10.6966 57.0545 10.67 56.941 10.6558C56.8274 10.642 56.671 10.6348 56.4715 10.6348C56.3275 10.6348 56.2085 10.6406 56.1142 10.6518C56.0201 10.6632 55.9467 10.6786 55.8941 10.6982C55.8413 10.718 55.7999 10.7476 55.7696 10.7867C55.739 10.8261 55.7156 10.8739 55.6988 10.9301L54.2035 14.082C54.0651 14.3911 53.9285 14.7043 53.7937 15.0216C53.6586 15.3392 53.5279 15.6579 53.4014 15.9781H53.3848C53.2416 15.6467 53.101 15.318 52.9635 14.9922C52.8259 14.6663 52.688 14.3545 52.55 14.0566L51.0629 10.9215C51.0351 10.8655 51.0062 10.8191 50.9756 10.7825C50.9453 10.746 50.8996 10.718 50.8387 10.6982C50.7776 10.6786 50.696 10.6632 50.5935 10.6518C50.4908 10.6406 50.3566 10.6348 50.1905 10.6348C50.0076 10.6348 49.8624 10.6406 49.7544 10.6518C49.6464 10.6632 49.5715 10.6884 49.5301 10.7276C49.4885 10.7669 49.4746 10.8231 49.4885 10.8961C49.5021 10.9693 49.5396 11.0704 49.6007 11.1995L52.6415 17.3519V21.3718C52.6415 21.417 52.6523 21.456 52.6744 21.4897C52.6965 21.5235 52.7363 21.5501 52.7942 21.5699C52.8519 21.5895 52.9264 21.6063 53.0173 21.6205C53.1083 21.6343 53.2224 21.6415 53.3602 21.6415C53.4922 21.6415 53.6051 21.6343 53.6988 21.6205C53.7924 21.6063 53.8669 21.5897 53.9218 21.5699C53.9768 21.5501 54.0154 21.5235 54.0375 21.4897C54.0596 21.4562 54.0706 21.417 54.0706 21.3718Z" fill="#7C8AA4"/>
<rect x="1.38086" y="1" width="80.0492" height="30.9542" rx="1" stroke="#D9D9D9" stroke-opacity="0.18" stroke-width="2"/>
</svg>
