<svg width="50" height="33" viewBox="0 0 50 33" fill="none" xmlns="http://www.w3.org/2000/svg">
<path d="M39.7993 28.4609V28.5254H39.8585C39.8715 28.5254 39.8828 28.5223 39.8909 28.5172C39.8983 28.5122 39.9027 28.5035 39.9027 28.4929C39.9027 28.4822 39.8983 28.4741 39.8909 28.4691C39.8828 28.4634 39.8715 28.4609 39.8585 28.4609H39.7993ZM39.8591 28.4159C39.8896 28.4159 39.9133 28.4228 39.9301 28.4365C39.9469 28.4503 39.955 28.4691 39.955 28.4929C39.955 28.5129 39.9488 28.5291 39.9351 28.5423C39.922 28.5548 39.9033 28.5629 39.8784 28.566L39.9569 28.6567H39.8958L39.8229 28.5667H39.7993V28.6567H39.7482V28.4159H39.8591ZM39.8435 28.7399C39.8715 28.7399 39.8977 28.7343 39.9214 28.7237C39.9457 28.713 39.9669 28.6987 39.985 28.6805C40.003 28.6624 40.0174 28.6411 40.028 28.6161C40.0379 28.5917 40.0435 28.5654 40.0435 28.5373C40.0435 28.5091 40.0379 28.4828 40.028 28.4584C40.0174 28.434 40.003 28.4122 39.985 28.394C39.9669 28.3759 39.9457 28.3615 39.9214 28.3508C39.8977 28.3408 39.8715 28.3358 39.8435 28.3358C39.8155 28.3358 39.7887 28.3408 39.7644 28.3508C39.7394 28.3615 39.7176 28.3759 39.6996 28.394C39.6815 28.4122 39.6672 28.434 39.6572 28.4584C39.6466 28.4828 39.6416 28.5091 39.6416 28.5373C39.6416 28.5654 39.6466 28.5917 39.6572 28.6161C39.6672 28.6411 39.6815 28.6624 39.6996 28.6805C39.7176 28.6987 39.7394 28.713 39.7644 28.7237C39.7887 28.7343 39.8155 28.7399 39.8435 28.7399ZM39.8435 28.2777C39.8803 28.2777 39.9139 28.2845 39.9463 28.2983C39.9781 28.3114 40.0055 28.3302 40.0298 28.354C40.0535 28.3771 40.0722 28.4046 40.0859 28.4365C40.0996 28.4678 40.1065 28.5016 40.1065 28.5373C40.1065 28.5729 40.0996 28.6067 40.0859 28.638C40.0722 28.6693 40.0535 28.6968 40.0298 28.7206C40.0055 28.7437 39.9781 28.7625 39.9463 28.7762C39.9139 28.79 39.8803 28.7969 39.8435 28.7969C39.8061 28.7969 39.7718 28.79 39.7394 28.7762C39.707 28.7625 39.679 28.7437 39.6553 28.7206C39.6316 28.6968 39.6129 28.6693 39.5992 28.638C39.5855 28.6067 39.5787 28.5729 39.5787 28.5373C39.5787 28.5016 39.5855 28.4678 39.5992 28.4365C39.6129 28.4046 39.6316 28.3771 39.6553 28.354C39.679 28.3302 39.707 28.3114 39.7394 28.2983C39.7718 28.2845 39.8061 28.2777 39.8435 28.2777ZM15.5655 27.3499C15.5655 26.8908 15.8652 26.5136 16.355 26.5136C16.823 26.5136 17.1389 26.8745 17.1389 27.3499C17.1389 27.8254 16.823 28.1863 16.355 28.1863C15.8652 28.1863 15.5655 27.8091 15.5655 27.3499ZM17.6723 27.3499V26.0438H17.1065V26.3609C16.9271 26.1257 16.6547 25.9781 16.2846 25.9781C15.5549 25.9781 14.9829 26.5523 14.9829 27.3499C14.9829 28.1482 15.5549 28.7218 16.2846 28.7218C16.6547 28.7218 16.9271 28.5742 17.1065 28.339V28.6561H17.6723V27.3499ZM36.7926 27.3499C36.7926 26.8908 37.0924 26.5136 37.5821 26.5136C38.0507 26.5136 38.3661 26.8745 38.3661 27.3499C38.3661 27.8254 38.0507 28.1863 37.5821 28.1863C37.0924 28.1863 36.7926 27.8091 36.7926 27.3499ZM38.9001 27.3499V24.9947H38.3336V26.3609C38.1542 26.1257 37.8819 25.9781 37.5117 25.9781C36.782 25.9781 36.21 26.5523 36.21 27.3499C36.21 28.1482 36.782 28.7218 37.5117 28.7218C37.8819 28.7218 38.1542 28.5742 38.3336 28.339V28.6561H38.9001V27.3499ZM24.6957 26.4867C25.0602 26.4867 25.2945 26.7162 25.3543 27.1204H24.004C24.0645 26.7431 24.2925 26.4867 24.6957 26.4867ZM24.7069 25.9781C23.9442 25.9781 23.4108 26.5355 23.4108 27.3499C23.4108 28.1807 23.966 28.7218 24.7449 28.7218C25.1369 28.7218 25.4958 28.6236 25.8117 28.3559L25.5344 27.9348C25.3163 28.1094 25.0384 28.2082 24.7773 28.2082C24.4128 28.2082 24.0807 28.0387 23.999 27.5683H25.9314C25.937 27.4976 25.9426 27.4263 25.9426 27.3499C25.937 26.5355 25.436 25.9781 24.7069 25.9781ZM31.539 27.3499C31.539 26.8908 31.8387 26.5136 32.3285 26.5136C32.7965 26.5136 33.1124 26.8745 33.1124 27.3499C33.1124 27.8254 32.7965 28.1863 32.3285 28.1863C31.8387 28.1863 31.539 27.8091 31.539 27.3499ZM33.6458 27.3499V26.0438H33.08V26.3609C32.8999 26.1257 32.6282 25.9781 32.2581 25.9781C31.5284 25.9781 30.9563 26.5523 30.9563 27.3499C30.9563 28.1482 31.5284 28.7218 32.2581 28.7218C32.6282 28.7218 32.8999 28.5742 33.08 28.339V28.6561H33.6458V27.3499ZM28.3435 27.3499C28.3435 28.1425 28.8931 28.7218 29.7319 28.7218C30.1238 28.7218 30.3849 28.6342 30.6678 28.4103L30.3961 27.9511C30.1837 28.1044 29.9606 28.1863 29.7151 28.1863C29.2633 28.1807 28.9312 27.8529 28.9312 27.3499C28.9312 26.847 29.2633 26.5192 29.7151 26.5136C29.9606 26.5136 30.1837 26.5955 30.3961 26.7488L30.6678 26.2896C30.3849 26.0657 30.1238 25.9781 29.7319 25.9781C28.8931 25.9781 28.3435 26.5574 28.3435 27.3499ZM35.6386 25.9781C35.3121 25.9781 35.0996 26.1313 34.9525 26.3609V26.0438H34.3917V28.6561H34.9581V27.1917C34.9581 26.7594 35.1432 26.5192 35.5133 26.5192C35.628 26.5192 35.7476 26.5355 35.8673 26.5849L36.0418 26.0494C35.9165 26 35.7532 25.9781 35.6386 25.9781ZM20.4708 26.2514C20.1985 26.0713 19.8234 25.9781 19.4096 25.9781C18.7504 25.9781 18.326 26.2952 18.326 26.8145C18.326 27.2405 18.6419 27.5032 19.2239 27.5852L19.4913 27.6233C19.8016 27.6671 19.948 27.7491 19.948 27.8967C19.948 28.0987 19.7411 28.2138 19.3548 28.2138C18.9628 28.2138 18.6799 28.0881 18.4893 27.9405L18.2226 28.3828C18.5329 28.6123 18.9248 28.7218 19.3492 28.7218C20.1007 28.7218 20.5363 28.3665 20.5363 27.8692C20.5363 27.41 20.1935 27.1698 19.6271 27.0878L19.3604 27.049C19.1155 27.0165 18.9192 26.9677 18.9192 26.7926C18.9192 26.6011 19.1043 26.4867 19.4146 26.4867C19.7467 26.4867 20.0683 26.6124 20.2259 26.7106L20.4708 26.2514ZM27.7715 25.9781C27.445 25.9781 27.2325 26.1313 27.086 26.3609V26.0438H26.5252V28.6561H27.091V27.1917C27.091 26.7594 27.2761 26.5192 27.6462 26.5192C27.7609 26.5192 27.8805 26.5355 28.0002 26.5849L28.1747 26.0494C28.0494 26 27.8862 25.9781 27.7715 25.9781ZM22.9428 26.0438H22.0175V25.2512H21.4454V26.0438H20.9176V26.563H21.4454V27.7547C21.4454 28.3609 21.6797 28.7218 22.349 28.7218C22.5945 28.7218 22.8774 28.6455 23.0568 28.5197L22.8936 28.0331C22.7247 28.1313 22.5396 28.1807 22.3926 28.1807C22.1097 28.1807 22.0175 28.0055 22.0175 27.7434V26.563H22.9428V26.0438ZM14.4825 28.6561V27.0165C14.4825 26.3991 14.0905 25.9837 13.4587 25.9781C13.1266 25.9724 12.7838 26.0763 12.5439 26.4429C12.3645 26.1532 12.0816 25.9781 11.684 25.9781C11.4061 25.9781 11.1344 26.06 10.9219 26.3659V26.0438H10.3555V28.6561H10.9269V27.2079C10.9269 26.7544 11.1774 26.5136 11.5644 26.5136C11.9401 26.5136 12.1302 26.7594 12.1302 27.2023V28.6561H12.7022V27.2079C12.7022 26.7544 12.9633 26.5136 13.339 26.5136C13.7254 26.5136 13.9105 26.7594 13.9105 27.2023V28.6561H14.4825Z" fill="#7C8AA4"/>
<path d="M40.1479 19.9688V19.5872H40.0488L39.9342 19.8493L39.8202 19.5872H39.7204V19.9688H39.7909V19.681L39.898 19.9293H39.9709L40.0781 19.6804V19.9688H40.1479ZM39.5192 19.9688V19.6522H39.6463V19.5878H39.3223V19.6522H39.4494V19.9688H39.5192Z" fill="white" fill-opacity="0.44"/>
<path d="M28.882 21.6082H20.3066V6.13672H28.882V21.6082Z" fill="#7C8AA4"/>
<path d="M20.856 13.8753C20.856 10.7369 22.3197 7.9412 24.5991 6.13957C22.9322 4.82213 20.8285 4.0358 18.5422 4.0358C13.1297 4.0358 8.74219 8.44103 8.74219 13.8753C8.74219 19.3096 13.1297 23.7148 18.5422 23.7148C20.8285 23.7148 22.9322 22.9285 24.5991 21.6111C22.3197 19.8094 20.856 17.0138 20.856 13.8753Z" fill="#5D6E8E"/>
<path d="M40.4474 13.8753C40.4474 19.3096 36.0599 23.7148 30.6473 23.7148C28.3611 23.7148 26.2574 22.9285 24.5898 21.6111C26.8699 19.8094 28.3336 17.0138 28.3336 13.8753C28.3336 10.7369 26.8699 7.9412 24.5898 6.13957C26.2574 4.82213 28.3611 4.0358 30.6473 4.0358C36.0599 4.0358 40.4474 8.44103 40.4474 13.8753Z" fill="#98A3B7"/>
<rect x="1" y="1" width="47.1913" height="30.8335" rx="1" stroke="#D9D9D9" stroke-opacity="0.18" stroke-width="2"/>
</svg>
