<svg width="30" height="30" viewBox="0 0 30 30" fill="none" xmlns="http://www.w3.org/2000/svg">
<rect width="30" height="30" rx="15" fill="#102A59"/>
<path fill-rule="evenodd" clip-rule="evenodd" d="M10.8156 14.0589C11.9356 16.26 13.74 18.0567 15.9411 19.1844L17.6522 17.4733C17.8622 17.2633 18.1733 17.1933 18.4456 17.2867C19.3167 17.5744 20.2578 17.73 21.2222 17.73C21.65 17.73 22 18.08 22 18.5078V21.2222C22 21.65 21.65 22 21.2222 22C13.9189 22 8 16.0811 8 8.77778C8 8.35 8.35 8 8.77778 8H11.5C11.9278 8 12.2778 8.35 12.2778 8.77778C12.2778 9.75 12.4333 10.6833 12.7211 11.5544C12.8067 11.8267 12.7444 12.13 12.5267 12.3478L10.8156 14.0589Z" fill="white"/>
</svg>
