<svg width="40" height="40" viewBox="0 0 40 40" fill="none" xmlns="http://www.w3.org/2000/svg">
<path d="M17.9004 1.0571C19.0669 -0.0857359 20.9331 -0.0857372 22.0995 1.0571L23.2487 2.183C23.9986 2.9178 25.0782 3.20706 26.0951 2.94569L27.6532 2.5452C29.2348 2.13868 30.851 3.07181 31.2897 4.64474L31.7219 6.19437C32.004 7.2057 32.7943 7.99597 33.8056 8.27806L35.3553 8.71029C36.9282 9.14902 37.8613 10.7652 37.4548 12.3468L37.0543 13.9049C36.7929 14.9218 37.0822 16.0014 37.817 16.7513L38.9429 17.9004C40.0857 19.0669 40.0857 20.9331 38.9429 22.0995L37.817 23.2487C37.0822 23.9986 36.7929 25.0782 37.0543 26.0951L37.4548 27.6532C37.8613 29.2348 36.9282 30.851 35.3553 31.2897L33.8056 31.7219C32.7943 32.004 32.004 32.7943 31.7219 33.8056L31.2897 35.3553C30.851 36.9282 29.2348 37.8613 27.6532 37.4548L26.0951 37.0543C25.0782 36.7929 23.9986 37.0822 23.2487 37.817L22.0996 38.9429C20.9331 40.0857 19.0669 40.0857 17.9005 38.9429L16.7513 37.817C16.0014 37.0822 14.9218 36.7929 13.9049 37.0543L12.3468 37.4548C10.7652 37.8613 9.14902 36.9282 8.71029 35.3553L8.27806 33.8056C7.99597 32.7943 7.2057 32.004 6.19437 31.7219L4.64474 31.2897C3.07181 30.851 2.13868 29.2348 2.54519 27.6532L2.94569 26.0951C3.20706 25.0782 2.9178 23.9986 2.183 23.2487L1.0571 22.0996C-0.0857359 20.9331 -0.0857372 19.0669 1.0571 17.9005L2.183 16.7513C2.9178 16.0014 3.20706 14.9218 2.94569 13.9049L2.54519 12.3468C2.13868 10.7652 3.07181 9.14902 4.64474 8.71029L6.19437 8.27806C7.2057 7.99597 7.99597 7.2057 8.27806 6.19437L8.71029 4.64474C9.14902 3.07181 10.7652 2.13868 12.3468 2.54519L13.9049 2.94569C14.9218 3.20706 16.0014 2.9178 16.7513 2.183L17.9004 1.0571Z" fill="#DFE8FA"/>
</svg>
