<svg width="132" height="120" viewBox="0 0 132 120" fill="none" xmlns="http://www.w3.org/2000/svg">
<path d="M67.5999 119.014L63.3047 117.907L10.3878 104.26L6.0927 103.153C4.00789 102.613 2.22247 101.268 1.12814 99.4126C0.0338035 97.5577 -0.280071 95.3445 0.255373 93.2585L18.88 21.0363C19.4202 18.9515 20.7652 17.1661 22.6201 16.0717C24.475 14.9774 26.6882 14.6635 28.7742 15.199L28.7853 15.2018L90.2703 31.0576L90.2814 31.0604C92.3662 31.6006 94.1516 32.9456 95.246 34.8005C96.3403 36.6554 96.6542 38.8686 96.1187 40.9546L77.4941 113.177C76.9539 115.262 75.6089 117.047 73.754 118.141C71.8991 119.236 69.6859 119.55 67.5999 119.014Z" fill="#D4DEF0"/>
<path d="M68.1839 116.752L63.0966 115.44L11.7639 102.202L6.67667 100.89C5.19202 100.506 3.92058 99.5478 3.14127 98.2269C2.36196 96.906 2.13844 95.3299 2.51975 93.8444L21.1444 21.6222C21.529 20.1376 22.4869 18.8661 23.8078 18.0868C25.1287 17.3075 26.7048 17.084 28.1903 17.4653L28.2014 17.4682L89.6864 33.3239L89.6975 33.3268C91.1822 33.7114 92.4536 34.6693 93.2329 35.9902C94.0122 37.3111 94.2357 38.8872 93.8544 40.3727L75.2297 112.595C74.8451 114.079 73.8873 115.351 72.5664 116.13C71.2455 116.91 69.6694 117.133 68.1839 116.752Z" fill="white"/>
<path d="M64.3431 93.3651L33.2393 85.344C32.8919 85.2544 32.5232 85.3065 32.2142 85.4888C31.9052 85.6711 31.6813 85.9687 31.5917 86.3161C31.5021 86.6635 31.5542 87.0322 31.7365 87.3412C31.9188 87.6502 32.2164 87.8742 32.5638 87.9637L63.6675 95.9848C64.0148 96.074 64.3833 96.0217 64.692 95.8394C65.0008 95.6571 65.2245 95.3596 65.314 95.0124C65.4035 94.6652 65.3516 94.2967 65.1695 93.9878C64.9875 93.6789 64.6902 93.4549 64.3431 93.3651Z" fill="#D4DEF0"/>
<path d="M70.885 90.3335L34.378 80.9191C34.0306 80.8295 33.6618 80.8816 33.3529 81.0639C33.0439 81.2462 32.8199 81.5438 32.7304 81.8912C32.6408 82.2386 32.6929 82.6073 32.8752 82.9163C33.0575 83.2253 33.355 83.4492 33.7024 83.5388L70.2094 92.9532C70.5568 93.0428 70.9255 92.9907 71.2345 92.8084C71.5435 92.6261 71.7675 92.3286 71.857 91.9812C71.9466 91.6338 71.8945 91.265 71.7122 90.956C71.5299 90.647 71.2324 90.4231 70.885 90.3335Z" fill="#D4DEF0"/>
<path d="M69.4525 73.5523L38.3487 65.5312C38.1767 65.4869 37.9976 65.4768 37.8217 65.5017C37.6458 65.5265 37.4766 65.5858 37.3236 65.676C37.1706 65.7663 37.0368 65.8858 36.93 66.0278C36.8232 66.1697 36.7454 66.3313 36.7011 66.5033C36.6567 66.6753 36.6467 66.8544 36.6715 67.0303C36.6963 67.2062 36.7556 67.3755 36.8459 67.5285C36.9361 67.6814 37.0556 67.8152 37.1976 67.922C37.3395 68.0288 37.5011 68.1066 37.6731 68.151L68.7769 76.172C68.9489 76.2164 69.128 76.2264 69.3039 76.2015C69.4798 76.1767 69.649 76.1175 69.802 76.0272C69.955 75.9369 70.0888 75.8174 70.1956 75.6755C70.3024 75.5335 70.3802 75.3719 70.4245 75.1999C70.4689 75.0279 70.479 74.8488 70.4541 74.6729C70.4293 74.497 70.37 74.3278 70.2798 74.1748C70.1895 74.0218 70.07 73.888 69.928 73.7812C69.7861 73.6744 69.6245 73.5966 69.4525 73.5523Z" fill="#D4DEF0"/>
<path d="M75.9943 70.521L39.4874 61.1066C39.3154 61.0622 39.1363 61.0522 38.9604 61.077C38.7845 61.1019 38.6152 61.1611 38.4622 61.2514C38.3092 61.3417 38.1755 61.4612 38.0687 61.6031C37.9619 61.7451 37.8841 61.9067 37.8397 62.0787C37.7954 62.2507 37.7853 62.4298 37.8102 62.6056C37.835 62.7815 37.8943 62.9508 37.9845 63.1038C38.0748 63.2568 38.1943 63.3905 38.3362 63.4973C38.4782 63.6042 38.6398 63.682 38.8118 63.7263L75.3188 73.1407C75.6662 73.2303 76.0349 73.1782 76.3439 72.9959C76.6529 72.8136 76.8768 72.5161 76.9664 72.1687C77.056 71.8213 77.0039 71.4525 76.8216 71.1435C76.6393 70.8345 76.3417 70.6106 75.9943 70.521Z" fill="#D4DEF0"/>
<path d="M74.5609 53.7398L43.4572 45.7187C43.1099 45.6294 42.7413 45.6817 42.4325 45.864C42.1237 46.0463 41.9 46.3438 41.8104 46.691C41.7209 47.0383 41.7729 47.4069 41.955 47.7158C42.1371 48.0247 42.4344 48.2487 42.7816 48.3384L73.8854 56.3595C74.2328 56.4491 74.6015 56.397 74.9105 56.2147C75.2195 56.0324 75.4434 55.7348 75.533 55.3874C75.6226 55.04 75.5705 54.6713 75.3882 54.3623C75.2059 54.0533 74.9083 53.8294 74.5609 53.7398Z" fill="#F2F2F2"/>
<path d="M81.1029 50.7085L44.596 41.2941C44.4239 41.2496 44.2447 41.2394 44.0687 41.2641C43.8927 41.2889 43.7233 41.348 43.5702 41.4383C43.417 41.5285 43.2832 41.6481 43.1763 41.7901C43.0694 41.9321 42.9915 42.0938 42.9472 42.2659C42.9028 42.438 42.8927 42.6172 42.9176 42.7931C42.9425 42.9691 43.0019 43.1385 43.0923 43.2915C43.1826 43.4446 43.3023 43.5783 43.4444 43.6851C43.5865 43.7919 43.7482 43.8696 43.9204 43.9138L80.4273 53.3282C80.7747 53.4178 81.1435 53.3657 81.4525 53.1834C81.7615 53.0011 81.9854 52.7036 82.075 52.3562C82.1646 52.0088 82.1125 51.64 81.9302 51.331C81.7479 51.022 81.4503 50.7981 81.1029 50.7085Z" fill="#F2F2F2"/>
<path d="M27.9285 77.1168L16.9211 74.2782C16.7546 74.2355 16.5779 74.2605 16.4297 74.3479C16.2816 74.4353 16.1742 74.5779 16.1311 74.7443L13.6044 84.5424C13.5616 84.709 13.5867 84.8857 13.6741 85.0338C13.7614 85.1819 13.904 85.2893 14.0705 85.3324L25.0778 88.171C25.2444 88.2138 25.4211 88.1887 25.5692 88.1013C25.7173 88.0139 25.8247 87.8714 25.8679 87.7049L28.3946 77.9068C28.4373 77.7403 28.4123 77.5635 28.3249 77.4154C28.2375 77.2673 28.0949 77.1599 27.9285 77.1168Z" fill="#D4DEF0"/>
<path d="M33.0379 57.3043L22.0305 54.4657C21.864 54.423 21.6872 54.448 21.5391 54.5354C21.391 54.6228 21.2836 54.7654 21.2405 54.9318L18.7138 64.7299C18.671 64.8965 18.6961 65.0732 18.7834 65.2213C18.8708 65.3694 19.0134 65.4768 19.1799 65.5199L30.1872 68.3585C30.3538 68.4013 30.5305 68.3762 30.6786 68.2888C30.8267 68.2014 30.9341 68.0589 30.9772 67.8924L33.504 58.0943C33.5467 57.9278 33.5217 57.7511 33.4343 57.6029C33.3469 57.4548 33.2043 57.3474 33.0379 57.3043Z" fill="#D4DEF0"/>
<path d="M38.1472 37.4918L27.1399 34.6532C26.9733 34.6105 26.7966 34.6355 26.6485 34.7229C26.5004 34.8103 26.393 34.9529 26.3498 35.1193L23.8231 44.9174C23.7804 45.084 23.8054 45.2607 23.8928 45.4088C23.9802 45.5569 24.1228 45.6643 24.2892 45.7074L35.2966 48.546C35.4631 48.5888 35.6399 48.5637 35.788 48.4763C35.9361 48.3889 36.0435 48.2464 36.0866 48.0799L38.6133 38.2818C38.6561 38.1153 38.631 37.9385 38.5437 37.7904C38.4563 37.6423 38.3137 37.5349 38.1472 37.4918Z" fill="#D4DEF0"/>
<path d="M110.498 100.707H46.9786C44.8249 100.705 42.7602 99.848 41.2373 98.3251C39.7145 96.8023 38.8579 94.7375 38.8555 92.5839V17.9989C38.8579 15.8453 39.7145 13.7806 41.2373 12.2577C42.7602 10.7348 44.8249 9.87824 46.9786 9.87582H110.498C112.652 9.87824 114.716 10.7348 116.239 12.2577C117.762 13.7806 118.619 15.8453 118.621 17.9989V92.5839C118.619 94.7375 117.762 96.8023 116.239 98.3251C114.716 99.848 112.652 100.705 110.498 100.707Z" fill="#D4DEF0"/>
<path d="M110.498 98.3711H46.978C45.4444 98.3694 43.974 97.7594 42.8895 96.6749C41.8051 95.5904 41.1951 94.1201 41.1934 92.5864V18.0015C41.1951 16.4678 41.8051 14.9975 42.8895 13.913C43.974 12.8285 45.4444 12.2185 46.978 12.2168H110.498C112.031 12.2186 113.502 12.8286 114.586 13.913C115.67 14.9975 116.28 16.4678 116.282 18.0015V92.5864C116.28 94.1201 115.67 95.5904 114.586 96.6749C113.502 97.7593 112.031 98.3694 110.498 98.3711Z" fill="white"/>
<path d="M117.172 0.800196C125.362 0.800196 132.001 7.43911 132.001 15.6286C132.001 23.8181 125.362 30.457 117.172 30.457C108.983 30.457 102.344 23.8181 102.344 15.6286C102.344 7.43911 108.983 0.800196 117.172 0.800196Z" fill="#D4DEF0"/>
<path d="M124.262 17.5605H119.105V22.7182C119.105 23.2312 118.901 23.7231 118.538 24.0858C118.175 24.4486 117.683 24.6523 117.171 24.6523C116.658 24.6523 116.166 24.4486 115.803 24.0858C115.44 23.7231 115.236 23.2312 115.236 22.7182V17.5605H110.079C109.566 17.5605 109.074 17.3567 108.711 16.994C108.348 16.6313 108.145 16.1393 108.145 15.6264C108.145 15.1134 108.348 14.6214 108.711 14.2587C109.074 13.896 109.566 13.6922 110.079 13.6922H115.236V8.53451C115.236 8.02154 115.44 7.52958 115.803 7.16685C116.166 6.80413 116.658 6.60036 117.171 6.60036C117.683 6.60036 118.175 6.80413 118.538 7.16685C118.901 7.52958 119.105 8.02154 119.105 8.53451V13.6922H124.262C124.775 13.6922 125.267 13.896 125.63 14.2587C125.993 14.6214 126.197 15.1134 126.197 15.6264C126.197 16.1393 125.993 16.6313 125.63 16.994C125.267 17.3567 124.775 17.5605 124.262 17.5605Z" fill="white"/>
<path d="M100.937 57.3844H68.8152C68.6374 57.3842 68.4613 57.4191 68.297 57.4869C68.1328 57.5548 67.9834 57.6544 67.8577 57.7801C67.7319 57.9057 67.6321 58.0549 67.5641 58.2191C67.496 58.3833 67.4609 58.5594 67.4609 58.7371C67.4609 58.9149 67.496 59.0909 67.5641 59.2551C67.6321 59.4194 67.7319 59.5685 67.8577 59.6942C67.9834 59.8198 68.1328 59.9194 68.297 59.9873C68.4613 60.0552 68.6374 60.09 68.8152 60.0898H100.937C101.295 60.0894 101.639 59.9467 101.892 59.6931C102.145 59.4395 102.288 59.0956 102.288 58.7371C102.288 58.3786 102.145 58.0348 101.892 57.7811C101.639 57.5275 101.295 57.3848 100.937 57.3844Z" fill="#D4DEF0"/>
<path d="M106.516 52.8219H68.8152C68.6374 52.8217 68.4613 52.8566 68.297 52.9244C68.1328 52.9923 67.9834 53.0919 67.8577 53.2176C67.7319 53.3432 67.6321 53.4924 67.5641 53.6566C67.496 53.8208 67.4609 53.9969 67.4609 54.1746C67.4609 54.3524 67.496 54.5284 67.5641 54.6926C67.6321 54.8569 67.7319 55.006 67.8577 55.1317C67.9834 55.2573 68.1328 55.3569 68.297 55.4248C68.4613 55.4927 68.6374 55.5275 68.8152 55.5273H106.516C106.875 55.5273 107.219 55.3848 107.473 55.1311C107.727 54.8775 107.869 54.5334 107.869 54.1746C107.869 53.8159 107.727 53.4718 107.473 53.2181C107.219 52.9644 106.875 52.8219 106.516 52.8219Z" fill="#D4DEF0"/>
<path d="M100.937 36.9235H68.8152C68.6374 36.9233 68.4613 36.9581 68.297 37.026C68.1328 37.0939 67.9834 37.1935 67.8577 37.3191C67.7319 37.4448 67.6321 37.594 67.5641 37.7582C67.496 37.9224 67.4609 38.0984 67.4609 38.2762C67.4609 38.454 67.496 38.63 67.5641 38.7942C67.6321 38.9584 67.7319 39.1076 67.8577 39.2332C67.9834 39.3589 68.1328 39.4585 68.297 39.5264C68.4613 39.5943 68.6374 39.6291 68.8152 39.6289H100.937C101.295 39.6289 101.639 39.4864 101.893 39.2327C102.147 38.979 102.289 38.635 102.289 38.2762C102.289 37.9174 102.147 37.5734 101.893 37.3197C101.639 37.066 101.295 36.9235 100.937 36.9235Z" fill="#D4DEF0"/>
<path d="M106.516 32.361H68.8152C68.6374 32.3608 68.4613 32.3956 68.297 32.4635C68.1328 32.5314 67.9834 32.631 67.8577 32.7566C67.7319 32.8823 67.6321 33.0315 67.5641 33.1957C67.496 33.3599 67.4609 33.5359 67.4609 33.7137C67.4609 33.8914 67.496 34.0675 67.5641 34.2317C67.6321 34.3959 67.7319 34.5451 67.8577 34.6707C67.9834 34.7964 68.1328 34.896 68.297 34.9639C68.4613 35.0318 68.6374 35.0666 68.8152 35.0664H106.516C106.694 35.0666 106.87 35.0318 107.035 34.9639C107.199 34.896 107.348 34.7964 107.474 34.6707C107.6 34.5451 107.7 34.3959 107.768 34.2317C107.836 34.0675 107.871 33.8914 107.871 33.7137C107.871 33.5359 107.836 33.3599 107.768 33.1957C107.7 33.0315 107.6 32.8823 107.474 32.7566C107.348 32.631 107.199 32.5314 107.035 32.4635C106.87 32.3956 106.694 32.3608 106.516 32.361Z" fill="#D4DEF0"/>
<path d="M61.6215 50.7443H50.2541C50.0821 50.7445 49.9173 50.8129 49.7957 50.9345C49.6741 51.0561 49.6057 51.221 49.6055 51.3929V61.5115C49.6057 61.6835 49.6741 61.8484 49.7957 61.97C49.9173 62.0916 50.0821 62.16 50.2541 62.1602H61.6215C61.7935 62.16 61.9584 62.0916 62.08 61.97C62.2016 61.8484 62.27 61.6835 62.2702 61.5115V51.3929C62.27 51.221 62.2016 51.0561 62.08 50.9345C61.9584 50.8129 61.7935 50.7445 61.6215 50.7443Z" fill="#D4DEF0"/>
<path d="M61.6215 30.2834H50.2541C50.0821 30.2835 49.9173 30.3519 49.7957 30.4735C49.6741 30.5951 49.6057 30.76 49.6055 30.932V41.0506C49.6057 41.2226 49.6741 41.3874 49.7957 41.509C49.9173 41.6306 50.0821 41.699 50.2541 41.6992H61.6215C61.7935 41.699 61.9584 41.6306 62.08 41.509C62.2016 41.3874 62.27 41.2226 62.2702 41.0506V30.932C62.27 30.76 62.2016 30.5951 62.08 30.4735C61.9584 30.3519 61.7935 30.2835 61.6215 30.2834Z" fill="#D4DEF0"/>
<path d="M100.972 80.1578H77.2902C76.9315 80.1578 76.5874 80.3004 76.3337 80.5541C76.08 80.8077 75.9375 81.1518 75.9375 81.5106C75.9375 81.8693 76.08 82.2134 76.3337 82.4671C76.5874 82.7208 76.9315 82.8633 77.2902 82.8633H100.972C101.331 82.8633 101.675 82.7208 101.928 82.4671C102.182 82.2134 102.325 81.8693 102.325 81.5106C102.325 81.1518 102.182 80.8077 101.928 80.5541C101.675 80.3004 101.331 80.1578 100.972 80.1578Z" fill="#D4DEF0"/>
<path d="M106.552 75.5954H77.2902C77.1126 75.5954 76.9367 75.6303 76.7726 75.6983C76.6084 75.7663 76.4593 75.8659 76.3337 75.9916C76.2081 76.1172 76.1085 76.2663 76.0405 76.4304C75.9725 76.5945 75.9375 76.7704 75.9375 76.9481C75.9375 77.1257 75.9725 77.3016 76.0405 77.4657C76.1085 77.6298 76.2081 77.779 76.3337 77.9046C76.4593 78.0302 76.6084 78.1298 76.7726 78.1978C76.9367 78.2658 77.1126 78.3008 77.2902 78.3008H106.552C106.911 78.3008 107.255 78.1583 107.508 77.9046C107.762 77.6509 107.905 77.3068 107.905 76.9481C107.905 76.5893 107.762 76.2452 107.508 75.9916C107.255 75.7379 106.911 75.5954 106.552 75.5954Z" fill="#D4DEF0"/>
<path d="M72.0515 70.0582H50.2189C50.047 70.0584 49.8821 70.1268 49.7605 70.2484C49.6389 70.37 49.5705 70.5349 49.5703 70.7068V87.7459C49.5705 87.9179 49.6389 88.0827 49.7605 88.2043C49.8821 88.3259 50.047 88.3943 50.2189 88.3945H72.0515C72.2234 88.3943 72.3883 88.3259 72.5099 88.2043C72.6315 88.0827 72.6999 87.9179 72.7001 87.7459V70.7068C72.6999 70.5349 72.6315 70.37 72.5099 70.2484C72.3883 70.1268 72.2234 70.0584 72.0515 70.0582Z" fill="#D4DEF0"/>
</svg>
