<svg width="302" height="279" viewBox="0 0 302 279" fill="none" xmlns="http://www.w3.org/2000/svg">
<path d="M138.669 153.852C138.616 153.852 138.582 153.851 138.57 153.85L132.112 153.851V152.898H138.593C138.743 152.904 141.804 152.99 144.625 149.568C148.828 144.467 152.28 131.84 144.854 100.651C134.869 58.7129 143.197 21.6631 147.241 7.68049C147.44 6.98872 147.476 6.26009 147.345 5.55217C147.214 4.84425 146.921 4.17644 146.488 3.60151C146.054 3.02657 145.493 2.56026 144.849 2.23943C144.204 1.9186 143.494 1.75203 142.774 1.75288H46.3383C45.6052 1.75387 44.8825 1.92771 44.2291 2.2603C43.5757 2.59289 43.0099 3.07486 42.5777 3.66709C40.8646 6.02363 38.5136 10.5508 37.0425 18.7366L36.1055 18.5683C37.6085 10.2046 40.0359 5.54432 41.8076 3.10735C42.3283 2.39375 43.0099 1.81299 43.7971 1.41222C44.5843 1.01145 45.455 0.801967 46.3383 0.800784H142.774C143.642 0.799949 144.498 1.00086 145.274 1.38765C146.051 1.77443 146.727 2.33649 147.249 3.02942C147.771 3.72235 148.124 4.52717 148.282 5.38028C148.439 6.23339 148.396 7.11143 148.156 7.94502C144.133 21.8551 135.848 58.7127 145.781 100.43C153.311 132.058 149.691 144.959 145.328 150.212C142.45 153.676 139.28 153.852 138.669 153.852Z" fill="#C5D1E8"/>
<path d="M121.295 171.227C121.241 171.227 121.207 171.226 121.195 171.225L114.737 171.226V170.273H121.218C121.369 170.278 124.429 170.365 127.25 166.943C131.453 161.842 134.905 149.215 127.479 118.026C117.494 76.0879 125.822 39.0381 129.866 25.0555C130.065 24.3637 130.101 23.6351 129.97 22.9272C129.84 22.2192 129.546 21.5514 129.113 20.9765C128.679 20.4016 128.118 19.9353 127.474 19.6144C126.83 19.2936 126.119 19.127 125.399 19.1279H28.9634C28.2302 19.1289 27.5076 19.3027 26.8542 19.6353C26.2008 19.9679 25.635 20.4499 25.2028 21.0421C23.4896 23.3986 21.1387 27.9258 19.6676 36.1116L18.7305 35.9433C20.2335 27.5796 22.661 22.9193 24.4327 20.4824C24.9533 19.7688 25.635 19.188 26.4222 18.7872C27.2094 18.3865 28.08 18.177 28.9634 18.1758H125.399C126.267 18.1749 127.123 18.3759 127.899 18.7626C128.676 19.1494 129.352 19.7115 129.874 20.4044C130.396 21.0973 130.749 21.9022 130.907 22.7553C131.064 23.6084 131.021 24.4864 130.781 25.32C126.758 39.2301 118.473 76.0877 128.406 117.805C135.936 149.433 132.316 162.334 127.953 167.587C125.075 171.051 121.905 171.227 121.295 171.227Z" fill="#C5D1E8"/>
<path d="M103.919 188.602C103.865 188.602 103.831 188.601 103.819 188.6L8.86954 188.601C7.95539 188.602 7.05491 188.379 6.2469 187.951C5.43888 187.524 4.74796 186.905 4.2346 186.148C3.72124 185.392 3.40108 184.521 3.30215 183.612C3.20322 182.704 3.32853 181.784 3.66711 180.935C7.11219 172.328 11.7508 151.678 4.11056 110.08C-4.91126 60.9613 3.16566 43.2097 7.05699 37.8574C7.57768 37.1437 8.25931 36.563 9.04655 36.1622C9.83379 35.7614 10.7044 35.552 11.5878 35.5508H108.024C108.891 35.5499 109.747 35.7509 110.524 36.1376C111.3 36.5244 111.976 37.0865 112.498 37.7794C113.02 38.4723 113.374 39.2772 113.531 40.1303C113.689 40.9834 113.646 41.8614 113.405 42.695C109.382 56.6051 101.097 93.4627 111.03 135.18C118.56 166.808 114.94 179.709 110.577 184.962C107.7 188.426 104.529 188.602 103.919 188.602ZM11.5878 36.5029C10.8546 36.5039 10.132 36.6777 9.47857 37.0103C8.82514 37.3429 8.25933 37.8249 7.82708 38.4171C4.00793 43.6701 -3.90825 61.1519 5.04695 109.908C12.3457 149.646 8.80584 170.659 4.55097 181.289C4.26421 181.99 4.15658 182.752 4.23778 183.505C4.31898 184.259 4.58646 184.98 5.01609 185.604C5.4421 186.234 6.01621 186.75 6.68807 187.106C7.35992 187.463 8.10898 187.649 8.86953 187.648H103.843C103.992 187.656 107.054 187.741 109.874 184.318C114.078 179.217 117.53 166.59 110.104 135.401C100.118 93.4629 108.447 56.4131 112.491 42.4305C112.69 41.7387 112.725 41.0101 112.595 40.3022C112.464 39.5942 112.17 38.9264 111.737 38.3515C111.304 37.7766 110.743 37.3103 110.098 36.9894C109.454 36.6686 108.744 36.502 108.024 36.5029H11.5878Z" fill="#C5D1E8"/>
<path d="M91.6214 78.3941H15.9295C14.9194 78.3941 13.9508 77.9929 13.2365 77.2787C12.5223 76.5645 12.1211 75.5958 12.1211 74.5857C12.1211 73.5757 12.5223 72.607 13.2365 71.8928C13.9508 71.1786 14.9194 70.7773 15.9295 70.7773H91.6214C92.6315 70.7773 93.6001 71.1786 94.3144 71.8928C95.0286 72.607 95.4298 73.5757 95.4298 74.5857C95.4298 75.5958 95.0286 76.5645 94.3144 77.2787C93.6001 77.9929 92.6315 78.3941 91.6214 78.3941Z" fill="#C5D1E8"/>
<path d="M91.6214 94.5816H15.9295C14.9194 94.5816 13.9508 94.1804 13.2365 93.4662C12.5223 92.752 12.1211 91.7833 12.1211 90.7732C12.1211 89.7632 12.5223 88.7945 13.2365 88.0803C13.9508 87.3661 14.9194 86.9648 15.9295 86.9648H91.6214C92.6315 86.9648 93.6001 87.3661 94.3144 88.0803C95.0286 88.7945 95.4298 89.7632 95.4298 90.7732C95.4298 91.7833 95.0286 92.752 94.3144 93.4662C93.6001 94.1804 92.6315 94.5816 91.6214 94.5816Z" fill="#C5D1E8"/>
<path d="M91.6214 110.769H15.9295C14.9194 110.769 13.9508 110.368 13.2365 109.654C12.5223 108.939 12.1211 107.971 12.1211 106.961C12.1211 105.951 12.5223 104.982 13.2365 104.268C13.9508 103.554 14.9194 103.152 15.9295 103.152H91.6214C92.6315 103.152 93.6001 103.554 94.3144 104.268C95.0286 104.982 95.4298 105.951 95.4298 106.961C95.4298 107.971 95.0286 108.939 94.3144 109.654C93.6001 110.368 92.6315 110.769 91.6214 110.769Z" fill="#C5D1E8"/>
<path d="M97.3324 126.957H21.6404C20.6304 126.957 19.6617 126.555 18.9475 125.841C18.2333 125.127 17.832 124.158 17.832 123.148C17.832 122.138 18.2333 121.17 18.9475 120.455C19.6617 119.741 20.6304 119.34 21.6404 119.34H97.3324C98.3424 119.34 99.3111 119.741 100.025 120.455C100.74 121.17 101.141 122.138 101.141 123.148C101.141 124.158 100.74 125.127 100.025 125.841C99.3111 126.555 98.3424 126.957 97.3324 126.957Z" fill="#C5D1E8"/>
<path d="M97.3324 143.136H21.6404C20.6304 143.136 19.6617 142.735 18.9475 142.021C18.2333 141.307 17.832 140.338 17.832 139.328C17.832 138.318 18.2333 137.349 18.9475 136.635C19.6617 135.921 20.6304 135.52 21.6404 135.52H97.3324C98.3424 135.52 99.3111 135.921 100.025 136.635C100.74 137.349 101.141 138.318 101.141 139.328C101.141 140.338 100.74 141.307 100.025 142.021C99.3111 142.735 98.3424 143.136 97.3324 143.136Z" fill="#C5D1E8"/>
<path d="M51.6332 62.2145H15.9295C14.9194 62.2145 13.9508 61.8132 13.2365 61.099C12.5223 60.3848 12.1211 59.4161 12.1211 58.4061C12.1211 57.396 12.5223 56.4273 13.2365 55.7131C13.9508 54.9989 14.9194 54.5977 15.9295 54.5977H51.6332C52.6433 54.5977 53.612 54.9989 54.3262 55.7131C55.0404 56.4273 55.4416 57.396 55.4416 58.4061C55.4416 59.4161 55.0404 60.3848 54.3262 61.099C53.612 61.8132 52.6433 62.2145 51.6332 62.2145Z" fill="#C5D1E8"/>
<path d="M47.024 169.237C47.7924 165.983 51.4027 164.916 54.3544 165.036C56.2193 165.161 58.0691 165.454 59.8818 165.91C61.7784 166.335 63.6566 166.837 65.5253 167.37C68.9521 168.347 72.3436 169.529 75.8269 170.293C78.7268 170.929 81.8781 171.302 84.7699 170.424C87.5498 169.58 89.9081 167.508 90.6645 164.643C91.3772 161.943 90.3987 158.991 87.7824 157.757C85.3965 156.632 82.3828 157.204 81.2003 159.748C79.867 162.617 81.1992 165.746 83.3103 167.822C84.5103 168.949 85.8246 169.947 87.2319 170.801C88.6604 171.774 90.2502 172.487 91.9276 172.904C94.6815 173.492 97.9621 172.626 99.3823 169.995C99.698 169.399 99.8879 168.745 99.9402 168.073C100.024 167.158 98.5956 167.164 98.512 168.073C98.2712 170.693 95.2031 171.92 92.9087 171.632C91.36 171.376 89.881 170.802 88.5646 169.946C87.2942 169.205 86.0903 168.356 84.9665 167.407C83.0205 165.723 81.1963 162.952 82.5033 160.324C83.5676 158.184 86.3418 158.206 88.0292 159.586C90.0726 161.257 89.7083 164.29 88.3605 166.275C86.8682 168.473 84.1633 169.394 81.613 169.493C78.8419 169.601 76.0939 168.965 73.4455 168.213C70.1548 167.279 66.8969 166.233 63.5903 165.353C61.7131 164.854 59.8215 164.403 57.9104 164.052C56.1034 163.654 54.2474 163.525 52.4027 163.671C49.4227 164.015 46.3807 165.75 45.6469 168.857C45.4359 169.751 46.8126 170.132 47.0241 169.237L47.024 169.237Z" fill="#C5D1E8"/>
<path d="M192.932 249.984C193.014 259.358 193.701 268.716 194.987 278.002C195.032 278.328 195.082 278.654 195.127 278.98L282.911 278.49C283.169 278.166 283.423 277.838 283.669 277.506C284.488 276.409 285.256 275.28 285.962 274.112C289.351 268.487 290.902 261.9 289.348 257.356L289.32 257.285C288.984 256.29 288.455 255.371 287.763 254.581C284.218 250.591 277.05 251.256 270.546 254.477C276.38 248.091 281.026 240.032 281.379 232.839C281.725 225.823 278.056 220.811 274.077 216.551C273.946 216.41 273.816 216.274 273.685 216.137C273.622 216.066 273.555 216 273.492 215.929C270.387 212.683 266.768 209.484 261.529 209.871C255.783 210.296 249.413 215.109 244.946 220.717C240.48 226.321 237.512 232.687 234.503 238.9C231.491 245.109 228.231 251.477 223.398 256.785C229.945 248.503 235.224 239.081 237.174 229.917C239.124 220.753 237.407 211.952 231.572 207.636C229.801 206.366 227.751 205.539 225.594 205.224C225.342 205.182 225.087 205.148 224.827 205.118C219.425 204.503 212.976 206.371 207.489 210.837C201.445 215.754 197.256 223.043 195.171 229.963C193.087 236.883 192.865 243.544 192.932 249.984Z" fill="#C5D1E8"/>
<path d="M250.367 278.671L252.046 278.662C252.579 278.329 253.114 277.999 253.652 277.674C253.985 277.464 254.322 277.261 254.659 277.055C260.227 273.654 265.83 270.392 271.468 267.269C277.1 264.144 282.761 261.162 288.45 258.324C288.601 258.258 288.724 258.142 288.798 257.995C288.872 257.848 288.892 257.68 288.855 257.52C288.849 257.499 288.839 257.479 288.827 257.461C288.747 257.312 288.57 257.25 288.311 257.377C287.613 257.727 286.911 258.077 286.214 258.435C280.509 261.321 274.829 264.352 269.173 267.526C263.521 270.699 257.902 274.012 252.314 277.465C252.197 277.537 252.079 277.612 251.962 277.683C251.429 278.013 250.9 278.342 250.367 278.671Z" fill="#F2F5FA"/>
<path d="M228.723 278.796L229.761 278.79C229.995 278.462 230.225 278.135 230.459 277.807C235.959 270.094 241.459 262.38 246.957 254.667C255.961 242.039 264.962 229.411 273.961 216.783C274.014 216.715 274.054 216.638 274.077 216.555C274.154 216.275 273.949 216.111 273.686 216.14C273.575 216.156 273.468 216.195 273.374 216.255C273.279 216.316 273.199 216.395 273.137 216.489C268.089 223.571 263.042 230.65 257.997 237.726C249.04 250.291 240.084 262.854 231.13 275.417C230.56 276.214 229.991 277.015 229.421 277.813C229.187 278.14 228.953 278.468 228.723 278.796Z" fill="#F2F5FA"/>
<path d="M205.596 272.761C205.649 274.51 205.764 276.232 205.916 277.937C205.945 278.263 205.974 278.59 206.004 278.916L207.093 278.91C207.059 278.583 207.026 278.257 206.997 277.931C206.767 275.467 206.603 272.975 206.581 270.416C206.552 263.32 207.244 256.239 208.645 249.283C210.135 241.793 212.274 234.447 215.038 227.328C217.938 219.82 221.436 212.556 225.496 205.606C225.573 205.493 225.607 205.356 225.592 205.22C225.548 204.91 225.134 204.818 224.825 205.114C224.764 205.172 224.712 205.239 224.669 205.312C224.167 206.176 223.674 207.042 223.19 207.911C219.279 214.9 215.931 222.189 213.179 229.709C210.558 236.852 208.564 244.209 207.22 251.697C205.961 258.645 205.417 265.703 205.596 272.761Z" fill="#F2F5FA"/>
<path d="M99.495 169.577C99.3144 169.427 99.1824 169.226 99.1156 169.001C99.0487 168.776 99.0501 168.536 99.1194 168.311C99.1888 168.087 99.323 167.888 99.5052 167.739C99.6875 167.591 99.9095 167.5 100.143 167.478C102.74 167.227 105.36 167.496 107.852 168.268L133.233 176.106C133.561 176.208 133.867 176.373 134.131 176.592C134.396 176.812 134.615 177.081 134.775 177.385C134.936 177.689 135.035 178.022 135.067 178.364C135.099 178.707 135.063 179.052 134.962 179.381C134.86 179.709 134.695 180.014 134.476 180.279C134.256 180.544 133.987 180.763 133.683 180.923C133.379 181.084 133.046 181.183 132.704 181.215C132.361 181.247 132.016 181.211 131.687 181.11L106.307 173.271C103.813 172.504 101.498 171.248 99.495 169.577Z" fill="#C5D1E8"/>
<path d="M203.535 202.135C202.846 201.845 202.228 201.409 201.725 200.855C201.223 200.301 200.848 199.644 200.627 198.93C200.406 198.216 200.345 197.462 200.447 196.721C200.549 195.98 200.812 195.271 201.218 194.643L196.867 171.892L207.955 171.027L208.624 193.281C209.634 194.033 210.333 195.129 210.589 196.361C210.845 197.594 210.639 198.877 210.012 199.968C209.385 201.06 208.379 201.883 207.185 202.282C205.991 202.681 204.693 202.629 203.535 202.135Z" fill="#C5D1E8"/>
<path d="M196.182 190.397L184.889 137.802C184.425 135.642 184.838 133.386 186.038 131.53C187.237 129.675 189.125 128.372 191.285 127.908C193.445 127.445 195.701 127.858 197.557 129.057C199.412 130.257 200.715 132.145 201.179 134.305L212.472 186.899C212.591 187.455 212.484 188.035 212.176 188.512C211.868 188.989 211.383 189.324 210.828 189.444L198.726 192.042C198.451 192.101 198.167 192.106 197.89 192.055C197.614 192.004 197.35 191.9 197.113 191.747C196.877 191.594 196.673 191.396 196.513 191.165C196.354 190.933 196.241 190.672 196.182 190.397Z" fill="#C5D1E8"/>
<path d="M177.648 273.133H171.812L169.035 250.621L177.649 250.622L177.648 273.133Z" fill="#C5D1E8"/>
<path d="M167.642 271.465H178.897V278.552H160.555C160.555 277.621 160.738 276.7 161.094 275.84C161.45 274.98 161.972 274.199 162.63 273.541C163.288 272.882 164.07 272.36 164.93 272.004C165.789 271.648 166.711 271.465 167.642 271.465Z" fill="#C5D1E8"/>
<path d="M197.167 272.656H191.331L188.555 250.145L197.169 250.145L197.167 272.656Z" fill="#C5D1E8"/>
<path d="M187.161 270.988H198.417V278.075H180.074C180.074 277.145 180.258 276.223 180.614 275.363C180.97 274.503 181.492 273.722 182.15 273.064C182.808 272.406 183.589 271.884 184.449 271.528C185.309 271.172 186.23 270.988 187.161 270.988Z" fill="#C5D1E8"/>
<path d="M170.657 268.935C170.438 268.756 170.257 268.534 170.125 268.284C169.993 268.034 169.912 267.759 169.887 267.478L163.103 192.843C163.076 192.553 163.109 192.261 163.199 191.984C163.29 191.708 163.435 191.453 163.627 191.234C163.82 191.016 164.054 190.839 164.317 190.714C164.58 190.589 164.865 190.519 165.156 190.508L199.184 189.232C199.478 189.221 199.772 189.271 200.046 189.379C200.32 189.486 200.569 189.649 200.778 189.858C200.986 190.066 201.15 190.315 201.257 190.589C201.365 190.863 201.415 191.157 201.405 191.451L198.685 265.799C198.665 266.32 198.456 266.815 198.098 267.193C197.74 267.571 197.256 267.806 196.738 267.854L189.877 268.478C189.592 268.504 189.305 268.473 189.033 268.386C188.761 268.299 188.509 268.159 188.291 267.974C188.074 267.788 187.896 267.561 187.768 267.306C187.64 267.05 187.564 266.772 187.545 266.487L184.396 219.255C184.394 219.164 184.374 219.075 184.337 218.992C184.3 218.909 184.246 218.834 184.18 218.772C184.114 218.71 184.036 218.662 183.951 218.631C183.866 218.599 183.775 218.585 183.684 218.589H183.681C183.59 218.585 183.5 218.6 183.414 218.632C183.329 218.664 183.251 218.712 183.185 218.775C183.119 218.838 183.066 218.913 183.029 218.996C182.992 219.079 182.973 219.169 182.971 219.26L180.153 266.811C180.125 267.32 179.915 267.802 179.562 268.17C179.209 268.538 178.735 268.767 178.228 268.815L172.234 269.415C171.952 269.444 171.668 269.417 171.397 269.334C171.126 269.252 170.875 269.116 170.657 268.935H170.657Z" fill="#C5D1E8"/>
<path d="M183.743 116.732C190.201 116.732 195.435 111.497 195.435 105.04C195.435 98.5825 190.201 93.3477 183.743 93.3477C177.286 93.3477 172.051 98.5825 172.051 105.04C172.051 111.497 177.286 116.732 183.743 116.732Z" fill="#C5D1E8"/>
<path d="M161.227 193.348C161.019 193.112 160.866 192.832 160.779 192.529C160.693 192.226 160.674 191.908 160.726 191.597C162.885 178.477 161.668 159.19 160.267 145.322C159.902 141.643 160.512 137.933 162.036 134.564C163.561 131.196 165.946 128.289 168.951 126.136L175.057 120.902C175.463 120.558 175.981 120.375 176.513 120.387L191.682 120.821C192.229 120.836 192.75 121.06 193.136 121.448L195.48 126.639L195.504 126.656C198.298 128.71 200.539 131.423 202.027 134.554C203.515 137.685 204.204 141.136 204.033 144.599L201.8 190.745C201.771 191.282 201.543 191.789 201.16 192.166C200.777 192.543 200.267 192.763 199.731 192.783L162.909 194.077C162.886 194.077 162.862 194.078 162.838 194.078C162.533 194.078 162.232 194.013 161.954 193.888C161.676 193.762 161.428 193.578 161.227 193.348Z" fill="#C5D1E8"/>
<path d="M117.06 174.091C117.042 173.343 117.188 172.601 117.487 171.916C117.787 171.231 118.233 170.62 118.794 170.126C119.355 169.632 120.018 169.267 120.736 169.057C121.453 168.847 122.208 168.797 122.947 168.91L141.925 155.629L147.252 165.392L127.221 175.111C126.948 176.339 126.235 177.426 125.215 178.164C124.195 178.901 122.94 179.239 121.687 179.114C120.435 178.988 119.272 178.407 118.419 177.481C117.566 176.556 117.083 175.349 117.06 174.091L117.06 174.091Z" fill="#C5D1E8"/>
<path d="M133.035 176.397C132.756 176.355 132.489 176.258 132.249 176.112C132.008 175.966 131.799 175.774 131.633 175.547L124.309 165.569C123.973 165.111 123.833 164.538 123.919 163.977C124.005 163.415 124.311 162.911 124.768 162.574L168.134 130.744C169.915 129.436 172.143 128.89 174.326 129.225C175.408 129.391 176.446 129.768 177.382 130.336C178.317 130.903 179.132 131.648 179.779 132.53C180.427 133.412 180.894 134.413 181.154 135.476C181.415 136.538 181.464 137.642 181.298 138.723C181.132 139.805 180.755 140.843 180.188 141.778C179.62 142.714 178.875 143.529 177.993 144.176L134.627 176.006C134.261 176.276 133.819 176.422 133.364 176.422C133.254 176.422 133.144 176.413 133.035 176.397Z" fill="#C5D1E8"/>
<path d="M184.342 115.447C185.893 113.546 185.723 110.65 184.479 108.536C183.234 106.421 181.122 104.965 178.948 103.828C176.774 102.691 174.465 101.796 172.419 100.442C170.373 99.0879 170.463 93.355 169.918 90.9629L171.217 91.3956C170.718 90.7568 170.558 88.8693 170.058 88.2306C171.526 88.3756 172.655 89.7694 174.123 89.9144L173.276 87.6406C178.31 87.3303 181.44 90.8283 186.474 90.5179C188.968 90.3642 191.676 90.2669 193.727 91.6953C195.508 92.9365 196.41 95.0849 197.002 97.1742C198.273 101.66 198.47 106.685 196.276 110.799C194.081 114.912 189.022 117.684 184.603 116.199L184.342 115.447Z" fill="#C5D1E8"/>
<path d="M120.148 278.815H301.523C301.649 278.815 301.77 278.765 301.86 278.676C301.949 278.587 301.999 278.466 301.999 278.339C301.999 278.213 301.949 278.092 301.86 278.003C301.77 277.913 301.649 277.863 301.523 277.863H120.148C120.022 277.863 119.901 277.913 119.811 278.003C119.722 278.092 119.672 278.213 119.672 278.339C119.672 278.466 119.722 278.587 119.811 278.676C119.901 278.765 120.022 278.815 120.148 278.815Z" fill="#C5D1E8"/>
</svg>
