<svg width="24" height="25" viewBox="0 0 24 25" fill="none" xmlns="http://www.w3.org/2000/svg">
<path d="M12 0.800781C5.383 0.800781 0 6.18378 0 12.8008C0 19.4178 5.383 24.8008 12 24.8008C18.617 24.8008 24 19.4178 24 12.8008C24 6.18378 18.617 0.800781 12 0.800781ZM12 2.80078C17.535 2.80078 22 7.26578 22 12.8008C22 18.3358 17.535 22.8008 12 22.8008C6.465 22.8008 2 18.3358 2 12.8008C2 7.26578 6.465 2.80078 12 2.80078ZM12 6.80078C9.8 6.80078 8 8.60078 8 10.8008H10C10 9.68378 10.883 8.80078 12 8.80078C13.117 8.80078 14 9.68378 14 10.8008C13.9997 11.1745 13.8818 11.5386 13.6631 11.8416C13.4443 12.1446 13.1357 12.371 12.781 12.4888L12.375 12.6128C11.9753 12.7475 11.6278 13.0039 11.3812 13.346C11.1346 13.6882 11.0013 14.099 11 14.5208V15.8008H13V14.5198L13.406 14.3948C14.1595 14.1415 14.8148 13.6588 15.28 13.0142C15.7452 12.3697 15.997 11.5957 16 10.8008C16 8.60078 14.2 6.80078 12 6.80078ZM11 16.8008V18.8008H13V16.8008H11Z" fill="#93A2BF"/>
</svg>
