<svg width="17" height="19" viewBox="0 0 17 19" fill="none" xmlns="http://www.w3.org/2000/svg">
<path d="M6.45417 16.4542C2.75667 15.6017 0 12.2892 0 8.33333C0 3.73083 3.73083 0 8.33333 0C12.9358 0 16.6667 3.73083 16.6667 8.33333C16.6667 12.2892 13.91 15.6017 10.2125 16.4542L8.33333 18.3333L6.45417 16.4542ZM4.17667 13.5475C4.95316 14.1685 5.85943 14.6068 6.82833 14.83L7.295 14.9375L8.33333 15.9767L9.3725 14.9375L9.83917 14.8292C10.8713 14.5912 11.8315 14.1094 12.6392 13.4242C12.0965 12.8671 11.4476 12.4246 10.731 12.1227C10.0143 11.8208 9.24433 11.6658 8.46667 11.6667C6.77 11.6667 5.24167 12.3917 4.17667 13.5475ZM3.01333 12.35C3.71371 11.6067 4.55889 11.0148 5.49678 10.6106C6.43467 10.2064 7.4454 9.99863 8.46667 10C9.45138 9.99872 10.4266 10.192 11.3365 10.5687C12.2463 10.9453 13.0727 11.498 13.7683 12.195C14.4817 11.1909 14.903 10.0089 14.9855 8.77993C15.0679 7.55099 14.8083 6.32324 14.2354 5.23288C13.6625 4.14252 12.7988 3.23219 11.74 2.60287C10.6812 1.97356 9.46874 1.64987 8.23717 1.66771C7.0056 1.68555 5.80305 2.04424 4.76293 2.70396C3.72282 3.36369 2.8858 4.29867 2.34474 5.40517C1.80369 6.51167 1.57975 7.74643 1.69776 8.97246C1.81578 10.1985 2.27114 11.3679 3.01333 12.3508V12.35ZM8.33333 9.16667C7.44928 9.16667 6.60143 8.81548 5.97631 8.19036C5.35119 7.56524 5 6.71739 5 5.83333C5 4.94928 5.35119 4.10143 5.97631 3.47631C6.60143 2.85119 7.44928 2.5 8.33333 2.5C9.21739 2.5 10.0652 2.85119 10.6904 3.47631C11.3155 4.10143 11.6667 4.94928 11.6667 5.83333C11.6667 6.71739 11.3155 7.56524 10.6904 8.19036C10.0652 8.81548 9.21739 9.16667 8.33333 9.16667ZM8.33333 7.5C8.77536 7.5 9.19928 7.32441 9.51184 7.01184C9.82441 6.69928 10 6.27536 10 5.83333C10 5.39131 9.82441 4.96738 9.51184 4.65482C9.19928 4.34226 8.77536 4.16667 8.33333 4.16667C7.89131 4.16667 7.46738 4.34226 7.15482 4.65482C6.84226 4.96738 6.66667 5.39131 6.66667 5.83333C6.66667 6.27536 6.84226 6.69928 7.15482 7.01184C7.46738 7.32441 7.89131 7.5 8.33333 7.5Z" fill="black"/>
</svg>
