<svg width="17" height="19" viewBox="0 0 17 19" fill="none" xmlns="http://www.w3.org/2000/svg">
<path d="M10.2133 16.4533L8.33333 18.3333L6.45333 16.4533C2.75833 15.6 0 12.2867 0 8.33333C0 3.73333 3.73333 0 8.33333 0C12.9333 0 16.6667 3.73333 16.6667 8.33333C16.6667 12.2867 13.9083 15.6 10.2133 16.4533ZM3.3525 11.18C4.57583 13.005 6.4125 14.1667 8.46667 14.1667C10.52 14.1667 12.3575 13.0058 13.58 11.18C12.1931 9.88383 10.365 9.16401 8.46667 9.16667C6.56809 9.1638 4.73959 9.88363 3.3525 11.18ZM8.33333 7.5C8.99638 7.5 9.63226 7.23661 10.1011 6.76777C10.5699 6.29893 10.8333 5.66304 10.8333 5C10.8333 4.33696 10.5699 3.70107 10.1011 3.23223C9.63226 2.76339 8.99638 2.5 8.33333 2.5C7.67029 2.5 7.03441 2.76339 6.56557 3.23223C6.09673 3.70107 5.83333 4.33696 5.83333 5C5.83333 5.66304 6.09673 6.29893 6.56557 6.76777C7.03441 7.23661 7.67029 7.5 8.33333 7.5Z" fill="black"/>
</svg>
