<svg width="17" height="17" viewBox="0 0 17 17" fill="none" xmlns="http://www.w3.org/2000/svg">
<path d="M8.33333 16.6667C3.73083 16.6667 0 12.9358 0 8.33333C0 3.73083 3.73083 0 8.33333 0C12.9358 0 16.6667 3.73083 16.6667 8.33333C16.6667 12.9358 12.9358 16.6667 8.33333 16.6667ZM8.33333 15C10.1014 15 11.7971 14.2976 13.0474 13.0474C14.2976 11.7971 15 10.1014 15 8.33333C15 6.56522 14.2976 4.86953 13.0474 3.61929C11.7971 2.36905 10.1014 1.66667 8.33333 1.66667C6.56522 1.66667 4.86953 2.36905 3.61929 3.61929C2.36905 4.86953 1.66667 6.56522 1.66667 8.33333C1.66667 10.1014 2.36905 11.7971 3.61929 13.0474C4.86953 14.2976 6.56522 15 8.33333 15ZM4.16667 9.16667H5.83333C5.83333 9.82971 6.09673 10.4656 6.56557 10.9344C7.03441 11.4033 7.67029 11.6667 8.33333 11.6667C8.99638 11.6667 9.63226 11.4033 10.1011 10.9344C10.5699 10.4656 10.8333 9.82971 10.8333 9.16667H12.5C12.5 10.2717 12.061 11.3315 11.2796 12.1129C10.4982 12.8943 9.4384 13.3333 8.33333 13.3333C7.22826 13.3333 6.16846 12.8943 5.38706 12.1129C4.60565 11.3315 4.16667 10.2717 4.16667 9.16667ZM5 7.5C4.66848 7.5 4.35054 7.3683 4.11612 7.13388C3.8817 6.89946 3.75 6.58152 3.75 6.25C3.75 5.91848 3.8817 5.60054 4.11612 5.36612C4.35054 5.1317 4.66848 5 5 5C5.33152 5 5.64946 5.1317 5.88388 5.36612C6.1183 5.60054 6.25 5.91848 6.25 6.25C6.25 6.58152 6.1183 6.89946 5.88388 7.13388C5.64946 7.3683 5.33152 7.5 5 7.5ZM11.6667 7.5C11.3351 7.5 11.0172 7.3683 10.7828 7.13388C10.5484 6.89946 10.4167 6.58152 10.4167 6.25C10.4167 5.91848 10.5484 5.60054 10.7828 5.36612C11.0172 5.1317 11.3351 5 11.6667 5C11.9982 5 12.3161 5.1317 12.5506 5.36612C12.785 5.60054 12.9167 5.91848 12.9167 6.25C12.9167 6.58152 12.785 6.89946 12.5506 7.13388C12.3161 7.3683 11.9982 7.5 11.6667 7.5Z" fill="black"/>
</svg>
