<svg width="15" height="24" viewBox="0 0 15 24" fill="none" xmlns="http://www.w3.org/2000/svg">
<path d="M9.05191 23.9531H5.36146C4.74504 23.9531 4.2436 23.4309 4.2436 22.7889V14.12H2.09052C1.47409 14.12 0.972656 13.5976 0.972656 12.9558V9.24115C0.972656 8.59918 1.47409 8.07697 2.09052 8.07697H4.2436V6.2168C4.2436 4.37238 4.79972 2.80316 5.85165 1.67908C6.90832 0.549866 8.38503 -0.046875 10.1221 -0.046875L12.9366 -0.0421143C13.552 -0.0410156 14.0526 0.481201 14.0526 1.12207V4.57105C14.0526 5.21301 13.5513 5.73523 12.9351 5.73523L11.0401 5.73596C10.4622 5.73596 10.315 5.85663 10.2835 5.89362C10.2317 5.95496 10.1699 6.12836 10.1699 6.60718V8.07678H12.7926C12.9901 8.07678 13.1814 8.1275 13.3458 8.22308C13.7004 8.42944 13.9209 8.81964 13.9209 9.24133L13.9195 12.956C13.9195 13.5976 13.418 14.1198 12.8016 14.1198H10.1699V22.7889C10.1699 23.4309 9.66834 23.9531 9.05191 23.9531ZM5.5946 22.5461H8.81878V13.4901C8.81878 13.0615 9.15371 12.7128 9.56513 12.7128H12.5685L12.5697 9.48395H9.56495C9.15354 9.48395 8.81878 9.13532 8.81878 8.70667V6.60718C8.81878 6.0575 8.8724 5.43237 9.27081 4.96253C9.7522 4.39453 10.5109 4.32898 11.0397 4.32898L12.7016 4.32825V1.3645L10.1211 1.36011C7.32941 1.36011 5.5946 3.22119 5.5946 6.2168V8.70667C5.5946 9.13513 5.25984 9.48395 4.84842 9.48395H2.32365V12.7128H4.84842C5.25984 12.7128 5.5946 13.0615 5.5946 13.4901V22.5461ZM12.934 1.36487H12.9342H12.934Z" fill="#102A59"/>
</svg>
