<svg width="13" height="18" viewBox="0 0 13 18" fill="none" xmlns="http://www.w3.org/2000/svg">
<path d="M6.24947 17.9167C7.90707 17.9167 9.49678 17.2582 10.6689 16.0861C11.841 14.914 12.4995 13.3243 12.4995 11.6667C12.4995 10.945 12.3078 10.2525 12.0828 9.60833C10.6936 10.9808 9.63863 11.6667 8.91613 11.6667C12.2453 5.83333 10.4161 3.33333 5.41613 0C5.8328 4.16667 3.08613 6.06167 1.9678 7.11417C1.05557 7.97223 0.422165 9.08456 0.149704 10.3069C-0.122758 11.5293 -0.0217064 12.8054 0.439756 13.9696C0.901219 15.1339 1.70181 16.1326 2.73772 16.8364C3.77364 17.5402 4.99709 17.9166 6.24947 17.9167ZM6.84113 3.1125C9.54197 5.40417 9.5553 7.185 7.46863 10.8408C6.83447 11.9517 7.63697 13.3333 8.91613 13.3333C9.48947 13.3333 10.0695 13.1667 10.682 12.8375C10.5004 13.5233 10.1621 14.1576 9.69376 14.6905C9.22539 15.2233 8.63972 15.6402 7.98286 15.9082C7.326 16.1763 6.61588 16.2881 5.90843 16.2351C5.20098 16.182 4.5155 15.9654 3.90597 15.6024C3.29644 15.2394 2.77951 14.7398 2.39587 14.1431C2.01223 13.5463 1.77236 12.8686 1.69515 12.1634C1.61794 11.4582 1.70549 10.7447 1.95091 10.079C2.19634 9.41339 2.59293 8.81381 3.10947 8.3275C3.21447 8.22917 3.74697 7.75667 3.7703 7.73583C4.12363 7.41917 4.41447 7.13833 4.70197 6.83083C5.72697 5.7325 6.46363 4.51417 6.8403 3.1125H6.84113Z" fill="black"/>
</svg>
