<svg width="15" height="16" viewBox="0 0 15 16" fill="none" xmlns="http://www.w3.org/2000/svg">
<path d="M15 14.9978C15 15.2188 14.9122 15.4308 14.7559 15.5871C14.5996 15.7434 14.3877 15.8312 14.1667 15.8312H0.833333C0.61232 15.8312 0.400358 15.7434 0.244078 15.5871C0.0877974 15.4308 6.60547e-08 15.2188 6.60547e-08 14.9978V6.09283C-5.00482e-05 5.96696 0.0284159 5.84271 0.083261 5.72941C0.138106 5.61611 0.217905 5.51671 0.316667 5.43867L6.98333 0.179498C7.13046 0.0632408 7.31249 0 7.5 0C7.68751 0 7.86954 0.0632408 8.01667 0.179498L14.6833 5.43783C14.7822 5.51596 14.8621 5.6155 14.9169 5.72895C14.9718 5.8424 15.0002 5.96682 15 6.09283V14.9978ZM3.33333 8.33117C3.33333 9.43623 3.77232 10.496 4.55372 11.2774C5.33512 12.0588 6.39493 12.4978 7.5 12.4978C8.60507 12.4978 9.66488 12.0588 10.4463 11.2774C11.2277 10.496 11.6667 9.43623 11.6667 8.33117H10C10 8.99421 9.73661 9.63009 9.26777 10.0989C8.79893 10.5678 8.16304 10.8312 7.5 10.8312C6.83696 10.8312 6.20107 10.5678 5.73223 10.0989C5.26339 9.63009 5 8.99421 5 8.33117H3.33333Z" fill="black"/>
</svg>
