<svg width="12" height="6" viewBox="0 0 12 6" fill="none" xmlns="http://www.w3.org/2000/svg">
<path d="M3.63198 5.2631C3.85798 5.14975 4.00064 4.9191 4.00064 4.66644L4.00064 3.3331L10.6673 3.3331C11.0353 3.3331 11.334 3.0351 11.334 2.66644C11.334 2.29779 11.0353 1.99979 10.6673 1.99979L4.00067 1.99979L4.00067 0.666448C4.00067 0.413792 3.85802 0.183105 3.63202 0.0697924C3.40602 -0.0422074 3.13601 -0.0182072 2.93402 0.133136L0.26736 2.13313C0.256016 2.14179 0.252016 2.15513 0.24136 2.16448C0.18936 2.20848 0.14936 2.26048 0.112703 2.31848C0.0980472 2.34248 0.0787028 2.36113 0.0667027 2.38713C0.0267028 2.47248 0.000702746 2.56579 0.000702741 2.66648C0.000702737 2.76716 0.0267028 2.86047 0.0667027 2.94647C0.0787028 2.97182 0.0980471 2.99113 0.112703 3.01447C0.14936 3.07247 0.18936 3.12447 0.24136 3.16847C0.252016 3.17713 0.256016 3.19113 0.26736 3.19982L2.93402 5.19981C3.13598 5.35178 3.40598 5.37578 3.63198 5.2631Z" fill="#707F9B"/>
</svg>
