<svg width="14" height="18" viewBox="0 0 14 18" fill="none" xmlns="http://www.w3.org/2000/svg">
<path d="M4.97767 13.3325H5.8335V9.16583H7.50017V13.3325H8.356C8.466 12.3308 8.97684 11.5042 9.806 10.6017C9.90017 10.5 10.4993 9.87917 10.5702 9.79083C11.1587 9.05552 11.5277 8.16893 11.6344 7.23314C11.7412 6.29736 11.5815 5.35044 11.1737 4.50145C10.7659 3.65245 10.1266 2.9359 9.32943 2.43431C8.53224 1.93273 7.60959 1.6665 6.66774 1.6663C5.72588 1.6661 4.80312 1.93193 4.00572 2.43318C3.20832 2.93442 2.56871 3.6507 2.16055 4.49952C1.7524 5.34835 1.59229 6.29519 1.69866 7.23102C1.80504 8.16685 2.17358 9.05361 2.76184 9.78917C2.8335 9.87833 3.43434 10.5 3.52684 10.6008C4.35684 11.5042 4.86767 12.3308 4.97767 13.3325ZM5.00017 14.9992V15.8325H8.3335V14.9992H5.00017ZM1.46184 10.8325C0.676996 9.85191 0.185127 8.66956 0.0428903 7.42164C-0.099346 6.17372 0.113837 4.91101 0.657881 3.77895C1.20193 2.6469 2.0547 1.69156 3.11797 1.02298C4.18123 0.35441 5.41174 -0.000201035 6.66774 8.55028e-08C7.92374 0.000201206 9.15413 0.355206 10.2172 1.02412C11.2802 1.69304 12.1327 2.64865 12.6764 3.78088C13.2201 4.9131 13.4328 6.17589 13.2902 7.42376C13.1476 8.67163 12.6553 9.85383 11.8702 10.8342C11.3535 11.4775 10.0002 12.4992 10.0002 13.7492V15.8325C10.0002 16.2745 9.82458 16.6984 9.51201 17.011C9.19945 17.3236 8.77553 17.4992 8.3335 17.4992H5.00017C4.55814 17.4992 4.13422 17.3236 3.82166 17.011C3.5091 16.6984 3.3335 16.2745 3.3335 15.8325V13.7492C3.3335 12.4992 1.97934 11.4775 1.46184 10.8325Z" fill="black"/>
</svg>
