<svg width="14" height="18" viewBox="0 0 14 18" fill="none" xmlns="http://www.w3.org/2000/svg">
<path d="M5.8335 13.3325H3.28434C3.03684 12.2717 1.92017 11.4042 1.46184 10.8325C0.676996 9.85191 0.185127 8.66956 0.0428903 7.42164C-0.099346 6.17372 0.113837 4.91101 0.657881 3.77895C1.20193 2.6469 2.0547 1.69156 3.11797 1.02298C4.18123 0.35441 5.41174 -0.000201035 6.66774 8.55028e-08C7.92374 0.000201206 9.15413 0.355206 10.2172 1.02412C11.2802 1.69304 12.1327 2.64865 12.6764 3.78088C13.2201 4.9131 13.4328 6.17589 13.2902 7.42376C13.1476 8.67163 12.6553 9.85383 11.8702 10.8342C11.4118 11.405 10.2968 12.2725 10.0493 13.3325H7.50017V9.16583H5.8335V13.3325ZM10.0002 14.9992V15.8325C10.0002 16.2745 9.82458 16.6984 9.51201 17.011C9.19945 17.3236 8.77553 17.4992 8.3335 17.4992H5.00017C4.55814 17.4992 4.13422 17.3236 3.82166 17.011C3.5091 16.6984 3.3335 16.2745 3.3335 15.8325V14.9992H10.0002Z" fill="black"/>
</svg>
