<svg width="16" height="17" viewBox="0 0 16 17" fill="none" xmlns="http://www.w3.org/2000/svg">
<path d="M0.833333 16.6667C0.61232 16.6667 0.400358 16.5789 0.244078 16.4226C0.0877975 16.2663 0 16.0543 0 15.8333V0.833333C0 0.61232 0.0877975 0.400358 0.244078 0.244078C0.400358 0.0877973 0.61232 0 0.833333 0H12.5C12.721 0 12.933 0.0877973 13.0893 0.244078C13.2455 0.400358 13.3333 0.61232 13.3333 0.833333V3.33333H11.6667V1.66667H1.66667V15H11.6667V13.3333H13.3333V15.8333C13.3333 16.0543 13.2455 16.2663 13.0893 16.4226C12.933 16.5789 12.721 16.6667 12.5 16.6667H0.833333ZM11.6667 11.6667V9.16667H5.83333V7.5H11.6667V5L15.8333 8.33333L11.6667 11.6667Z" fill="black"/>
</svg>
