<svg width="17" height="17" viewBox="0 0 17 17" fill="none" xmlns="http://www.w3.org/2000/svg">
<path d="M8.33333 16.6667C3.73083 16.6667 0 12.9358 0 8.33333C0 3.73083 3.73083 0 8.33333 0C12.9358 0 16.6667 3.73083 16.6667 8.33333C16.6667 12.9358 12.9358 16.6667 8.33333 16.6667ZM5.41667 10V11.6667H7.5V13.3333H9.16667V11.6667H10C10.5525 11.6667 11.0824 11.4472 11.4731 11.0565C11.8638 10.6658 12.0833 10.1359 12.0833 9.58333C12.0833 9.0308 11.8638 8.5009 11.4731 8.11019C11.0824 7.71949 10.5525 7.5 10 7.5H6.66667C6.55616 7.5 6.45018 7.4561 6.37204 7.37796C6.2939 7.29982 6.25 7.19384 6.25 7.08333C6.25 6.97283 6.2939 6.86685 6.37204 6.78871C6.45018 6.71057 6.55616 6.66667 6.66667 6.66667H11.25V5H9.16667V3.33333H7.5V5H6.66667C6.11413 5 5.58423 5.21949 5.19353 5.61019C4.80283 6.0009 4.58333 6.5308 4.58333 7.08333C4.58333 7.63587 4.80283 8.16577 5.19353 8.55647C5.58423 8.94717 6.11413 9.16667 6.66667 9.16667H10C10.1105 9.16667 10.2165 9.21057 10.2946 9.28871C10.3728 9.36685 10.4167 9.47283 10.4167 9.58333C10.4167 9.69384 10.3728 9.79982 10.2946 9.87796C10.2165 9.9561 10.1105 10 10 10H5.41667Z" fill="black"/>
</svg>
