<svg width="17" height="17" viewBox="0 0 17 17" fill="none" xmlns="http://www.w3.org/2000/svg">
<path d="M8.33333 16.6667C3.73083 16.6667 0 12.9358 0 8.33333C0 3.73083 3.73083 0 8.33333 0C12.9358 0 16.6667 3.73083 16.6667 8.33333C16.6667 12.9358 12.9358 16.6667 8.33333 16.6667ZM8.33333 15C10.1014 15 11.7971 14.2976 13.0474 13.0474C14.2976 11.7971 15 10.1014 15 8.33333C15 6.56522 14.2976 4.86953 13.0474 3.61929C11.7971 2.36905 10.1014 1.66667 8.33333 1.66667C6.56522 1.66667 4.86953 2.36905 3.61929 3.61929C2.36905 4.86953 1.66667 6.56522 1.66667 8.33333C1.66667 10.1014 2.36905 11.7971 3.61929 13.0474C4.86953 14.2976 6.56522 15 8.33333 15ZM5.41667 10H10C10.1105 10 10.2165 9.9561 10.2946 9.87796C10.3728 9.79982 10.4167 9.69384 10.4167 9.58333C10.4167 9.47283 10.3728 9.36685 10.2946 9.28871C10.2165 9.21057 10.1105 9.16667 10 9.16667H6.66667C6.11413 9.16667 5.58423 8.94717 5.19353 8.55647C4.80283 8.16577 4.58333 7.63587 4.58333 7.08333C4.58333 6.5308 4.80283 6.0009 5.19353 5.61019C5.58423 5.21949 6.11413 5 6.66667 5H7.5V3.33333H9.16667V5H11.25V6.66667H6.66667C6.55616 6.66667 6.45018 6.71057 6.37204 6.78871C6.2939 6.86685 6.25 6.97283 6.25 7.08333C6.25 7.19384 6.2939 7.29982 6.37204 7.37796C6.45018 7.4561 6.55616 7.5 6.66667 7.5H10C10.5525 7.5 11.0824 7.71949 11.4731 8.11019C11.8638 8.5009 12.0833 9.0308 12.0833 9.58333C12.0833 10.1359 11.8638 10.6658 11.4731 11.0565C11.0824 11.4472 10.5525 11.6667 10 11.6667H9.16667V13.3333H7.5V11.6667H5.41667V10Z" fill="black"/>
</svg>
