<svg width="26" height="26" viewBox="0 0 26 26" fill="none" xmlns="http://www.w3.org/2000/svg">
<path d="M13.7432 11.2707C13.4577 11.5561 13.4577 12.0139 13.7432 12.2993C14.9225 13.4787 14.9225 15.3958 13.7432 16.5752L7.55012 22.7682C6.37075 23.9476 4.4536 23.9476 3.27423 22.7682L2.34258 21.8366C1.16321 20.6572 1.16321 18.7401 2.34258 17.5607L8.53563 11.3676C8.82104 11.0822 8.82104 10.6245 8.53563 10.3391C8.25021 10.0536 7.79246 10.0536 7.50704 10.3391L1.314 16.5321C0.468517 17.3776 0 18.5031 0 19.6986C0 20.8942 0.463132 22.0197 1.314 22.8652L2.24565 23.7968C3.11806 24.6692 4.26512 25.1054 5.41218 25.1054C6.55924 25.1054 7.7063 24.6692 8.57871 23.7968L14.7717 17.6038C16.5166 15.8589 16.5166 13.0155 14.7717 11.2707C14.4917 10.9853 14.0286 10.9853 13.7432 11.2707Z" fill="#102A59"/>
<path d="M24.6921 3.1348L23.7605 2.20315C22.0157 0.458326 19.1723 0.458326 17.4274 2.20315L11.2344 8.39619C9.48958 10.141 9.48958 12.9844 11.2344 14.7292C11.5198 15.0147 11.9776 15.0147 12.263 14.7292C12.5484 14.4438 12.5484 13.9861 12.263 13.7007C11.0836 12.5213 11.0836 10.6041 12.263 9.42477L18.456 3.23173C19.6354 2.05236 21.5525 2.05236 22.7319 3.23173L23.6636 4.16338C24.8429 5.34275 24.8429 7.2599 23.6636 8.43927L17.4705 14.6323C17.1851 14.9177 17.1851 15.3755 17.4705 15.6609C17.6105 15.8009 17.799 15.8763 17.9821 15.8763C18.1652 15.8763 18.3537 15.8063 18.4937 15.6609L24.6868 9.46786C25.5322 8.62237 26.0008 7.49685 26.0008 6.30133C26.0008 5.1058 25.5376 3.98028 24.6921 3.1348Z" fill="#102A59"/>
</svg>
