<svg width="12" height="6" viewBox="0 0 12 6" fill="none" xmlns="http://www.w3.org/2000/svg">
<path d="M7.702 0.0689355C7.476 0.182279 7.33334 0.412934 7.33334 0.66559L7.33334 1.99893L0.666656 1.99893C0.298656 1.99893 -1.32668e-07 2.29693 -1.16554e-07 2.66559C-1.0044e-07 3.03424 0.298656 3.33224 0.666656 3.33224L7.33331 3.33224L7.33331 4.66558C7.33331 4.91824 7.47597 5.14893 7.70197 5.26224C7.92797 5.37424 8.19797 5.35024 8.39997 5.19889L11.0666 3.1989C11.078 3.19024 11.082 3.1769 11.0926 3.16755C11.1446 3.12355 11.1846 3.07155 11.2213 3.01355C11.2359 2.98955 11.2553 2.9709 11.2673 2.9449C11.3073 2.85955 11.3333 2.76624 11.3333 2.66555C11.3333 2.56487 11.3073 2.47156 11.2673 2.38556C11.2553 2.36021 11.2359 2.3409 11.2213 2.31756C11.1846 2.25956 11.1446 2.20756 11.0926 2.16356C11.082 2.1549 11.078 2.1409 11.0666 2.13221L8.39997 0.132216C8.198 -0.0197519 7.928 -0.0437521 7.702 0.0689355Z" fill="#707F9B"/>
</svg>
