<svg width="26" height="22" viewBox="0 0 26 22" fill="none" xmlns="http://www.w3.org/2000/svg">
<path d="M0.514372 19.2262C2.92154 20.7537 5.72304 21.5608 8.61554 21.5608C12.8514 21.5608 16.733 19.9336 19.5464 16.9794C22.2385 14.1519 23.7194 10.3526 23.6457 6.49705C24.6662 5.62388 25.8665 3.95663 25.8665 2.33163C25.8665 1.70871 25.1905 1.3133 24.6424 1.63071C23.6836 2.19405 22.8094 2.34138 21.9102 2.08896C20.074 0.299296 17.3407 -0.0777043 15.0375 1.1638C13.0247 2.24713 11.9056 4.22963 12.0064 6.3963C8.60579 5.98138 5.46412 4.27621 3.27362 1.62638C2.91396 1.19413 2.23146 1.24505 1.94546 1.73471C0.890289 3.54171 0.901122 5.6358 1.81871 7.32688C1.38212 7.4038 1.11237 7.77105 1.11237 8.16863C1.11237 9.86838 1.87721 11.4305 3.10896 12.4965C2.87929 12.7175 2.80346 13.0458 2.90096 13.3383C3.44262 14.9655 4.66896 16.2373 6.20187 16.8743C4.53462 17.6705 2.69079 17.936 1.04954 17.7345C0.200205 17.6196 -0.219045 18.7615 0.514372 19.2262ZM8.83762 17.1527C9.44537 16.6858 9.12254 15.713 8.35987 15.6967C7.01654 15.6685 5.79346 15.0066 5.03187 13.9655C5.39912 13.9417 5.77937 13.8854 6.14121 13.7879C6.96562 13.5647 6.92662 12.3752 6.08921 12.2073C4.56929 11.9018 3.37654 10.7946 2.92912 9.36896C3.33754 9.46971 3.75354 9.52605 4.16846 9.53363C4.99071 9.53796 5.30162 8.48388 4.63104 8.04296C3.11979 7.04738 2.47521 5.28913 2.90204 3.63596C5.54104 6.30963 9.12146 7.92055 12.9088 8.10255C13.4515 8.13613 13.8589 7.62588 13.7397 7.10913C13.2251 4.87855 14.471 3.3153 15.8089 2.59488C17.1327 1.87988 19.2582 1.65671 20.8875 3.36621C21.3718 3.87646 23.0055 3.89596 23.8364 3.70205C23.4637 4.40405 22.8906 5.0703 22.3544 5.44513C22.1258 5.60546 21.9947 5.87196 22.0088 6.15038C22.1832 9.70913 20.8572 13.2473 18.371 15.857C15.8663 18.4863 12.4029 19.9347 8.61662 19.9347C7.11079 19.9347 5.63421 19.6899 4.23887 19.2175C5.90721 18.8947 7.49212 18.1884 8.83762 17.1527Z" fill="#102A59"/>
</svg>
