<svg width="56" height="56" viewBox="0 0 56 56" fill="none" xmlns="http://www.w3.org/2000/svg">
<path d="M28.7517 39.8163C28.3872 39.6874 27.8165 39.6198 27.7052 39.3471C27.5914 39.0682 28.0002 38.9133 28.3638 39.1793C28.3638 39.1793 29.0348 39.6677 29.5531 39.1114C30.0689 38.5579 29.4761 37.9733 29.4761 37.9733C29.4297 37.9304 29.1852 37.7167 28.7879 37.5747C28.674 36.5499 27.2019 36.5928 27.1504 37.6256C25.9962 38.1031 25.6562 39.8343 26.6612 40.6145C27.0753 40.9392 27.6479 41.1662 28.205 41.363C28.3346 41.4088 28.462 41.485 28.4255 41.7025C28.3269 42.2889 27.5076 42.1012 27.1972 41.8981C26.2674 41.335 25.4113 42.6458 26.2991 43.2712C26.6197 43.4809 26.8817 43.5989 27.1535 43.6632C27.2757 44.6936 28.7598 44.6313 28.7908 43.5894V43.5656C29.4361 43.291 29.9208 42.7034 30.0433 41.9746C30.2048 41.0137 29.6858 40.1463 28.7517 39.8163Z" fill="#707F9B"/>
<path d="M55.1797 3.39062H48.4533C47.4269 3.39062 47.38 5.03125 48.4533 5.03125H54.3594V9.64327H1.64062V5.03125H44.0798C45.1063 5.03125 45.1531 3.39062 44.0798 3.39062H0.820312C0.367281 3.39062 0 3.75791 0 4.21094V51.7891C0 52.2421 0.367281 52.6094 0.820312 52.6094H55.1797C55.6327 52.6094 56 52.2421 56 51.7891V4.21094C56 3.75791 55.6327 3.39062 55.1797 3.39062ZM1.64062 50.9688V11.2839H54.3594V50.9688H1.64062Z" fill="#707F9B"/>
<path d="M4.58594 8.15723C5.67881 8.15723 5.68056 6.5166 4.58594 6.5166C3.49306 6.5166 3.49131 8.15723 4.58594 8.15723Z" fill="#707F9B"/>
<path d="M7.51953 8.15723C8.61241 8.15723 8.61416 6.5166 7.51953 6.5166C6.42666 6.5166 6.42491 8.15723 7.51953 8.15723Z" fill="#707F9B"/>
<path d="M10.4551 8.15723C11.548 8.15723 11.5497 6.5166 10.4551 6.5166C9.36224 6.5166 9.36039 8.15723 10.4551 8.15723Z" fill="#707F9B"/>
<path d="M41.7302 36.7596C41.3657 36.6308 40.795 36.5632 40.6837 36.2905C40.5699 36.0116 40.9787 35.8566 41.3423 36.1226C42.2009 36.7378 43.2554 35.7787 42.4546 34.9166C42.4082 34.8738 42.1637 34.66 41.7664 34.5181C41.6525 33.4932 40.1804 33.5361 40.1289 34.5689C38.9747 35.0464 38.6347 36.7777 39.6397 37.5578C40.0538 37.8826 40.6264 38.1095 41.1835 38.3064C41.3131 38.3521 41.4405 38.4283 41.404 38.6459C41.3054 39.2322 40.4861 39.0446 40.1757 38.8414C39.2459 38.2784 38.3898 39.5891 39.2776 40.2145C39.5982 40.4242 39.8602 40.5422 40.132 40.6065C40.2542 41.637 41.7383 41.5746 41.7693 40.5327V40.509C42.4146 40.2343 42.8993 39.6468 43.0218 38.9179C43.1834 37.9572 42.6643 37.0897 41.7302 36.7596Z" fill="#707F9B"/>
<path d="M47.4688 18.7945H35.3099V15.1572C35.3099 14.7042 34.9426 14.3369 34.4895 14.3369H21.5105C21.0574 14.3369 20.6901 14.7042 20.6901 15.1572V18.7945H8.53125C8.07822 18.7945 7.71094 19.1618 7.71094 19.6148V44.0419C7.71094 44.4949 8.07822 44.8622 8.53125 44.8622H20.6901V47.0587C20.6901 47.5118 21.0574 47.8791 21.5105 47.8791H34.4897C34.9427 47.8791 35.31 47.5118 35.31 47.0587V44.8622H47.4688C47.9218 44.8622 48.2891 44.4949 48.2891 44.0419V19.6148C48.2891 19.1618 47.9218 18.7945 47.4688 18.7945ZM46.6484 23.2521H35.3099V20.4351H46.6484V23.2521ZM33.6692 15.9775V18.7945H22.3308V15.9775H33.6692ZM9.35156 20.4351H20.6901V23.2521H9.35156V20.4351ZM33.6692 46.2385H22.3308V40.1399C22.2931 39.0537 20.7274 39.0546 20.6901 40.1399V43.2217H9.35156V24.8927H20.6901V35.7677C20.7278 36.8539 22.2935 36.8531 22.3308 35.7677V20.4351H33.6693V46.2385H33.6692ZM35.3099 43.2217V24.8927H46.6484V43.2215H35.3099V43.2217Z" fill="#707F9B"/>
<path d="M15.9998 36.7596C15.6352 36.6308 15.0645 36.5632 14.9533 36.2905C14.8394 36.0116 15.2482 35.8566 15.6118 36.1226C16.4704 36.7378 17.5249 35.7787 16.7242 34.9166C16.6778 34.8738 16.4332 34.66 16.036 34.5181C15.922 33.4932 14.4499 33.5361 14.3984 34.5689C13.2443 35.0464 12.9042 36.7777 13.9093 37.5578C14.3234 37.8826 14.8959 38.1095 15.453 38.3064C15.5826 38.3521 15.71 38.4283 15.6735 38.6459C15.5749 39.2322 14.7556 39.0446 14.4452 38.8414C13.5154 38.2784 12.6593 39.5891 13.5471 40.2145C13.8677 40.4242 14.1298 40.5422 14.4016 40.6065C14.5237 41.637 16.0079 41.5746 16.0388 40.5327V40.509C16.6841 40.2343 17.1689 39.6468 17.2914 38.9179C17.4529 37.9572 16.9338 37.0897 15.9998 36.7596Z" fill="#707F9B"/>
<path d="M30.3588 22.8047H25.6405C24.5543 22.8423 24.5552 24.408 25.6405 24.4453H30.3588C31.445 24.4077 31.4443 22.842 30.3588 22.8047Z" fill="#707F9B"/>
<path d="M30.3588 26.1221H25.6405C24.5543 26.1597 24.5552 27.7254 25.6405 27.7627H30.3588C31.445 27.7251 31.4443 26.1594 30.3588 26.1221Z" fill="#707F9B"/>
<path d="M30.3588 29.4404H25.6405C24.5543 29.4781 24.5552 31.0438 25.6405 31.0811H30.3588C31.445 31.0433 31.4443 29.4776 30.3588 29.4404Z" fill="#707F9B"/>
<path d="M30.3588 32.7578H25.6405C24.5543 32.7954 24.5552 34.3611 25.6405 34.3984H30.3588C31.445 34.3608 31.4443 32.7951 30.3588 32.7578Z" fill="#707F9B"/>
<path d="M17.3803 26.9062H12.662C11.5758 26.9439 11.5767 28.5096 12.662 28.5469H17.3803C18.4665 28.5093 18.4656 26.9435 17.3803 26.9062Z" fill="#707F9B"/>
<path d="M17.3803 30.2236H12.662C11.5758 30.2613 11.5767 31.827 12.662 31.8643H17.3803C18.4665 31.8266 18.4656 30.2609 17.3803 30.2236Z" fill="#707F9B"/>
<path d="M43.308 26.9062H38.5897C37.5035 26.9439 37.5044 28.5096 38.5897 28.5469H43.308C44.3942 28.5093 44.3935 26.9435 43.308 26.9062Z" fill="#707F9B"/>
<path d="M43.308 30.2236H38.5897C37.5035 30.2613 37.5044 31.827 38.5897 31.8643H43.308C44.3942 31.8266 44.3935 30.2609 43.308 30.2236Z" fill="#707F9B"/>
</svg>
