<svg width="52" height="52" viewBox="0 0 52 52" fill="none" xmlns="http://www.w3.org/2000/svg">
<path d="M19.8007 22.0081L18.391 21.6559L18.2069 20.9212C18.9926 20.4398 19.5903 19.6988 19.8939 18.8142L20.3665 18.364C21.1832 17.5854 21.8032 16.6093 22.1594 15.5399C22.3961 14.8306 22.5156 14.0951 22.5156 13.3493V12.75C22.5156 11.5499 22.1188 10.3618 21.4 9.40392C20.3529 8.0062 18.6842 7.17188 16.9375 7.17188H13.75C12.0033 7.17188 10.3346 8.0062 9.2875 9.40313C8.56872 10.3618 8.17188 11.5499 8.17188 12.75V13.3493C8.17188 14.0951 8.29141 14.8306 8.52728 15.5391C8.88348 16.6085 9.50425 17.5846 10.321 18.364L10.7928 18.8134C11.0964 19.6987 11.6941 20.4398 12.4798 20.9204L12.2957 21.6551L10.8868 22.0073C9.88755 22.2567 8.97353 22.7739 8.24439 23.503C7.1702 24.5788 6.57812 26.0068 6.57812 27.5265V32.6719H9.76562H11.3594H24.1094V27.5265C24.1094 26.0068 23.5173 24.5788 22.4431 23.5038C21.714 22.7747 20.8 22.2575 19.8007 22.0081ZM20.125 10.3602C20.639 11.0439 20.9219 11.8934 20.9219 12.75V13.3493C20.9219 13.923 20.8294 14.4904 20.6485 15.0346C20.5187 15.4243 20.3402 15.7957 20.125 16.1447V14.9183C20.125 14.2314 19.6867 13.6234 19.0357 13.4074C17.9511 13.0456 16.951 12.4281 16.1406 11.6224V8.76562H16.9375C18.1854 8.76562 19.3767 9.36169 20.125 10.3602ZM10.039 15.0346C9.85806 14.4904 9.76562 13.923 9.76562 13.3493V12.75C9.76562 11.8934 10.0485 11.0439 10.5625 10.3594C11.31 9.36169 12.5021 8.76562 13.75 8.76562H14.5469V11.6216C13.7365 12.4273 12.7372 13.0448 11.6526 13.4058C11.0008 13.6234 10.5625 14.2306 10.5625 14.9183V16.1447C10.3473 15.7957 10.1688 15.4243 10.039 15.0346ZM12.1562 14.9183C13.33 14.5278 14.4234 13.8895 15.3438 13.0624C16.2641 13.8895 17.3567 14.527 18.5312 14.9183V17.5312C18.5312 18.8493 17.4587 19.9219 16.1406 19.9219H14.5469C13.2288 19.9219 12.1562 18.8493 12.1562 17.5312V14.9183ZM14.5469 21.5156H16.1406C16.3319 21.5156 16.5152 21.4853 16.6992 21.459L16.8849 22.2009C16.5685 22.7595 15.9916 23.1094 15.3438 23.1094C14.6959 23.1094 14.119 22.7595 13.8026 22.2009L13.9883 21.459C14.1723 21.4853 14.3556 21.5156 14.5469 21.5156ZM22.5156 31.0781H20.9219V27.8906H19.3281V31.0781H11.3594V27.8906H9.76562V31.0781H8.17188V27.5265C8.17188 26.4323 8.5982 25.4044 9.37117 24.6306C9.89631 24.1063 10.5537 23.7333 11.2733 23.5532L12.5579 23.2321C13.181 24.1493 14.2122 24.7031 15.3438 24.7031C16.4753 24.7031 17.5065 24.1493 18.1296 23.2329L19.4142 23.554C20.133 23.7341 20.7912 24.1063 21.3163 24.6314C22.0893 25.4044 22.5156 26.4323 22.5156 27.5265V31.0781Z" fill="#707F9B"/>
<path d="M36.8594 40.6406H48.0156V35.8594H36.8594V40.6406ZM41.6406 39.0469V37.4531H43.2344V39.0469H41.6406ZM46.4219 39.0469H44.8281V37.4531H46.4219V39.0469ZM38.4531 37.4531H40.0469V39.0469H38.4531V37.4531Z" fill="#707F9B"/>
<path d="M48.8125 3.98438H28.8906V2.39062C28.8906 1.51167 28.1758 0.796875 27.2969 0.796875H3.39062C2.51167 0.796875 1.79688 1.51167 1.79688 2.39062V37.4531C1.79688 38.3321 2.51167 39.0469 3.39062 39.0469H4.98438V41.4375C4.98438 42.7555 6.05697 43.8281 7.375 43.8281H19.9011L18.7058 48.6094H16.1406V50.2031H40.0469V48.6094H37.4817L36.2864 43.8281H48.8125C50.1305 43.8281 51.2031 42.7555 51.2031 41.4375V6.375C51.2031 5.05697 50.1305 3.98438 48.8125 3.98438ZM48.8125 5.57812C49.2516 5.57812 49.6094 5.93512 49.6094 6.375V32.6719H28.8906V5.57812H48.8125ZM3.39062 2.39062H27.2969L27.2977 37.4531H3.39062V2.39062ZM35.8386 48.6094H20.3489L21.5442 43.8281H34.6433L35.8386 48.6094ZM48.8125 42.2344H7.375C6.93592 42.2344 6.57812 41.8774 6.57812 41.4375V39.0469H27.2969C28.1758 39.0469 28.8906 38.3321 28.8906 37.4531V34.2656H49.6094V41.4375C49.6094 41.8774 49.2516 42.2344 48.8125 42.2344Z" fill="#707F9B"/>
<path d="M44.8281 15.2211V13.5469H43.2344V15.1406H40.0469V19.125C40.0469 21.322 41.8343 23.1094 44.0312 23.1094C45.3493 23.1094 46.4219 24.182 46.4219 25.5V27.8906H44.0312C42.7132 27.8906 41.6406 26.818 41.6406 25.5V23.1094H40.0469V25.5C40.0469 27.4237 41.4183 29.0333 43.2344 29.4039V31.0781H44.8281V29.4844H48.0156V25.5C48.0156 23.303 46.2282 21.5156 44.0312 21.5156C42.7132 21.5156 41.6406 20.443 41.6406 19.125V16.7344H44.0312C45.3493 16.7344 46.4219 17.807 46.4219 19.125V21.5156H48.0156V19.125C48.0156 17.2013 46.6442 15.5917 44.8281 15.2211Z" fill="#707F9B"/>
<path d="M48.0156 7.17188H30.4844V11.9531H48.0156V7.17188ZM46.4219 10.3594H32.0781V8.76562H46.4219V10.3594Z" fill="#707F9B"/>
<path d="M30.4844 15.1406H33.6719V16.7344H30.4844V15.1406Z" fill="#707F9B"/>
<path d="M35.2656 15.1406H38.4531V16.7344H35.2656V15.1406Z" fill="#707F9B"/>
<path d="M30.4844 18.3281H38.4531V19.9219H30.4844V18.3281Z" fill="#707F9B"/>
<path d="M30.4844 21.5156H38.4531V23.1094H30.4844V21.5156Z" fill="#707F9B"/>
<path d="M30.4844 24.7031H38.4531V26.2969H30.4844V24.7031Z" fill="#707F9B"/>
<path d="M30.4844 27.8906H32.0781V29.4844H30.4844V27.8906Z" fill="#707F9B"/>
<path d="M33.6719 27.8906H35.2656V29.4844H33.6719V27.8906Z" fill="#707F9B"/>
<path d="M36.8594 27.8906H38.4531V29.4844H36.8594V27.8906Z" fill="#707F9B"/>
</svg>
