<svg width="64" height="64" viewBox="0 0 64 64" fill="none" xmlns="http://www.w3.org/2000/svg">
<g clip-path="url(#clip0)">
<path d="M52.5648 5.9248C47.8185 5.9248 44.0684 9.73356 44.0684 14.4799C44.0684 19.2262 47.8771 22.9763 52.5648 22.9763C57.2525 22.9763 61.1199 19.1676 61.1199 14.4213C61.1199 9.67497 57.3111 5.9248 52.5648 5.9248ZM52.5648 21.1012C48.8733 21.1012 45.8848 18.1128 45.8848 14.4213C45.8848 10.7297 48.9319 7.79989 52.5648 7.79989C56.2564 7.79989 59.2448 10.7883 59.2448 14.4799C59.2448 18.1714 56.2564 21.1012 52.5648 21.1012Z" fill="#707F9B"/>
<path d="M55.26 15.7689C55.2014 15.5931 55.2014 15.4759 55.0842 15.3001C55.0256 15.1829 54.967 15.0071 54.8498 14.8899C54.7326 14.7727 54.674 14.6555 54.5568 14.5383C54.4397 14.4211 54.3225 14.3039 54.1467 14.2453C54.0295 14.1282 53.8537 14.0696 53.7365 14.011C53.5607 13.9524 53.4435 13.8352 53.2677 13.7766C53.0919 13.718 52.9161 13.6594 52.799 13.6008C52.7404 13.6008 52.6232 13.5422 52.5646 13.4836C52.506 13.425 52.3888 13.425 52.3302 13.3664C52.2716 13.3078 52.1544 13.3078 52.0958 13.2492C52.0372 13.1906 51.9786 13.132 51.92 13.0734C51.8614 13.0148 51.8028 12.9562 51.8028 12.839C51.7442 12.7804 51.7442 12.6633 51.7442 12.6047C51.7442 12.4875 51.7442 12.4289 51.7442 12.3117C51.7442 12.2531 51.8028 12.1359 51.8028 12.0773C51.8614 12.0187 51.8614 11.9015 51.92 11.8429C51.9786 11.7843 52.0372 11.7257 52.0958 11.6671C52.1544 11.6085 52.2716 11.5499 52.3888 11.5499C52.506 11.4913 52.5646 11.4913 52.6818 11.4913C52.7404 11.4913 52.799 11.4913 52.8576 11.4913C52.9161 11.4913 52.9747 11.4913 53.0333 11.4913C53.1505 11.4913 53.2091 11.4913 53.3263 11.5499C53.4435 11.5499 53.5607 11.6085 53.6193 11.6085C53.6779 11.6085 53.7951 11.6671 53.8537 11.6671C53.9709 11.6671 54.0295 11.7257 54.0881 11.7257L54.3811 11.8429L54.4397 11.4913L54.5568 10.5538V10.3194L54.3225 10.2608C54.2639 10.2608 54.1467 10.2022 54.0881 10.2022C54.0295 10.2022 53.9709 10.1436 53.8537 10.1436C53.7951 10.1436 53.6779 10.085 53.5607 10.085C53.4435 10.085 53.3849 10.0264 53.2677 10.0264H53.2091V9.20607V8.91309H52.9161H52.0958H51.8028V9.20607V10.085H51.7442C51.5684 10.1436 51.3926 10.2022 51.2169 10.3194C51.0411 10.378 50.9239 10.4952 50.8067 10.6124C50.6895 10.7296 50.5723 10.8468 50.4551 11.0226C50.3379 11.1397 50.2793 11.3155 50.2207 11.4913C50.1621 11.6671 50.1035 11.8429 50.0449 12.0187C49.9863 12.1945 49.9863 12.4289 49.9863 12.6047C49.9863 12.7804 49.9863 12.8976 50.0449 13.0734C50.1035 13.2492 50.1035 13.3664 50.2207 13.5422C50.2793 13.6594 50.3965 13.8352 50.4551 13.9524C50.5723 14.0696 50.6309 14.1868 50.7481 14.3039C50.8653 14.4211 50.9825 14.5383 51.1583 14.5969C51.2755 14.7141 51.4512 14.7727 51.5684 14.8313C51.7442 14.8899 51.92 15.0071 52.0372 15.0657C52.213 15.1243 52.3888 15.1829 52.506 15.2415C52.5646 15.2415 52.6818 15.3001 52.7404 15.3587C52.799 15.4173 52.9162 15.4173 52.9747 15.4759C53.0333 15.5345 53.0919 15.5931 53.1505 15.5931C53.2091 15.6517 53.2677 15.7103 53.3263 15.7689C53.3849 15.8275 53.3849 15.886 53.4435 16.0032C53.4435 16.0618 53.5021 16.179 53.5021 16.2962C53.5021 16.4134 53.5021 16.472 53.5021 16.5892C53.5021 16.6478 53.4435 16.765 53.3849 16.8236C53.3263 16.8822 53.2677 16.9408 53.2091 16.9994C53.1505 17.058 53.0919 17.1166 52.9747 17.1752C52.9162 17.2338 52.799 17.2338 52.7404 17.2924C52.6818 17.2924 52.5646 17.351 52.4474 17.351C52.3888 17.351 52.3302 17.351 52.213 17.351C52.1544 17.351 52.0372 17.351 51.9786 17.351C51.8614 17.351 51.7442 17.351 51.6856 17.351C51.5684 17.351 51.4512 17.2924 51.3926 17.2924C51.2755 17.2924 51.1583 17.2338 51.0411 17.1752C50.9239 17.1166 50.8067 17.1166 50.6895 17.058C50.6309 17.058 50.5723 16.9994 50.5137 16.9994C50.4551 16.9994 50.3965 16.9408 50.3379 16.9408L49.9863 16.765L49.9277 17.1752L49.8105 18.2299V18.4057L49.9863 18.4643C50.2207 18.4057 50.3379 18.4643 50.5137 18.5229C50.6309 18.5815 50.8067 18.6401 50.9239 18.6401C51.0411 18.6987 51.2169 18.6987 51.3926 18.7573C51.5684 18.8159 51.6856 18.8159 51.8614 18.8159H51.9786V19.6948V19.9878H52.2716H53.0919H53.3849V19.6948V18.7573H53.4435C53.6193 18.6987 53.7951 18.6401 53.9709 18.5229C54.1467 18.4643 54.2639 18.3471 54.4397 18.2299C54.5568 18.1127 54.674 17.9955 54.7912 17.8197C54.9084 17.7025 54.967 17.5267 55.0842 17.351C55.1428 17.1752 55.2014 16.9994 55.26 16.8236C55.3186 16.6478 55.3186 16.472 55.3186 16.2376C55.3186 16.0618 55.3186 15.9446 55.26 15.7689Z" fill="#707F9B"/>
<path d="M48.4632 24.0894C48.1702 23.6792 47.5257 23.6206 47.1155 23.9136L37.6229 31.4725L25.3763 26.3746C25.0833 26.2574 24.7317 26.316 24.4973 26.4918L11.3717 35.8672C10.9616 36.1602 10.8444 36.7462 11.1374 37.1564C11.3131 37.4493 11.6061 37.5665 11.8991 37.5665C12.0749 37.5665 12.2507 37.5079 12.4265 37.3907L25.1419 28.3083L37.4471 33.4062C37.7401 33.5234 38.1502 33.4648 38.3846 33.289L48.2874 25.4371C48.6976 25.1441 48.7562 24.4995 48.4632 24.0894Z" fill="#707F9B"/>
<path d="M62.1745 56.2004H57.8384V29.0704C57.8384 28.543 57.4282 28.1328 56.9009 28.1328H48.2872C47.7598 28.1328 47.3497 28.543 47.3497 29.0704V56.2004H44.1855V38.4458C44.1855 37.9184 43.7753 37.5082 43.2479 37.5082H34.5757C34.0483 37.5082 33.6381 37.9184 33.6381 38.4458V56.2004H30.4739V37.0395C30.4739 36.5121 30.0638 36.1019 29.5364 36.1019H20.9227C20.3954 36.1019 19.9852 36.5121 19.9852 37.0395V56.2004H16.821V42.5475C16.821 42.0201 16.4108 41.61 15.8835 41.61H7.21121C6.68384 41.61 6.27367 42.0201 6.27367 42.5475V56.2004H1.87895C1.35158 56.2004 0.941406 56.6106 0.941406 57.138C0.941406 57.6654 1.35158 58.0755 1.87895 58.0755H7.15261H15.7663H20.9227H29.5364H34.5757H43.1893H48.2286H56.8423H62.1159C62.6433 58.0755 63.0535 57.6654 63.0535 57.138C63.1121 56.6106 62.7019 56.2004 62.1745 56.2004ZM14.8873 56.2004H8.14875V43.485H14.8873V56.2004ZM28.5989 56.2004H21.8603V37.977H28.5989V56.2004ZM42.2518 56.2004H35.5132V39.3833H42.2518V56.2004ZM55.9633 56.2004H49.2248V30.0079H55.9633V56.2004Z" fill="#707F9B"/>
</g>
<defs>
<clipPath id="clip0">
<rect x="0.941406" y="0.941406" width="62.1176" height="62.1176" fill="white"/>
</clipPath>
</defs>
</svg>
