<svg width="64" height="52" viewBox="0 0 64 52" fill="none" xmlns="http://www.w3.org/2000/svg">
<path d="M59.875 3.58301H4.875C3.94706 3.58403 3.05741 3.95253 2.40126 4.60765C1.7451 5.26277 1.37603 6.15102 1.375 7.0775V46.0161C1.37603 46.9426 1.7451 47.8308 2.40126 48.4859C3.05741 49.1411 3.94706 49.5096 4.875 49.5106H59.875C60.8029 49.5096 61.6926 49.1411 62.3487 48.4859C63.0049 47.8308 63.374 46.9426 63.375 46.0161V7.0775C63.374 6.15102 63.0049 5.26277 62.3487 4.60765C61.6926 3.95253 60.8029 3.58403 59.875 3.58301ZM61.375 46.0161C61.3747 46.4132 61.2165 46.7939 60.9353 47.0747C60.6541 47.3555 60.2727 47.5134 59.875 47.5137H4.875C4.47728 47.5134 4.09594 47.3555 3.81471 47.0747C3.53347 46.7939 3.37533 46.4132 3.375 46.0161V11.5704H61.375V46.0161ZM61.375 9.57356H3.375V7.0775C3.37533 6.6804 3.53347 6.29966 3.81471 6.01887C4.09594 5.73808 4.47728 5.58019 4.875 5.57986H59.875C60.2727 5.58019 60.6541 5.73808 60.9353 6.01887C61.2165 6.29966 61.3747 6.6804 61.375 7.0775V9.57356Z" fill="#707F9B"/>
<path d="M41.875 14.5654H22.875C21.9471 14.5665 21.0574 14.935 20.4013 15.5901C19.7451 16.2452 19.376 17.1334 19.375 18.0599V40.0253C19.376 40.9518 19.7451 41.84 20.4013 42.4951C21.0574 43.1502 21.9471 43.5187 22.875 43.5198H41.875C42.8029 43.5187 43.6926 43.1502 44.3487 42.4951C45.0049 41.84 45.374 40.9518 45.375 40.0253V18.0599C45.374 17.1334 45.0049 16.2452 44.3487 15.5901C43.6926 14.935 42.8029 14.5665 41.875 14.5654ZM40.375 41.5229H38.375V40.5245C38.375 40.2597 38.2696 40.0057 38.0821 39.8185C37.8946 39.6313 37.6402 39.5261 37.375 39.5261C37.1098 39.5261 36.8554 39.6313 36.6679 39.8185C36.4804 40.0057 36.375 40.2597 36.375 40.5245V41.5229H28.375V40.5245C28.375 40.2597 28.2696 40.0057 28.0821 39.8185C27.8946 39.6313 27.6402 39.5261 27.375 39.5261C27.1098 39.5261 26.8554 39.6313 26.6679 39.8185C26.4804 40.0057 26.375 40.2597 26.375 40.5245V41.5229H24.375V39.5261C24.3762 38.4672 24.798 37.4521 25.5479 36.7034C26.2978 35.9547 27.3145 35.5336 28.375 35.5324H29.5475C29.7541 36.1163 30.137 36.6219 30.6434 36.9795C31.1498 37.3371 31.7547 37.5291 32.375 37.5291C32.9953 37.5291 33.6002 37.3371 34.1066 36.9795C34.613 36.6219 34.9959 36.1163 35.2025 35.5324H36.375C37.4355 35.5336 38.4522 35.9547 39.2021 36.7034C39.952 37.4521 40.3738 38.4672 40.375 39.5261V41.5229ZM29.1688 25.5831C30.7863 25.5831 33.2863 25.291 36.375 23.9868V27.545C36.375 28.6042 35.9536 29.62 35.2034 30.3689C34.4533 31.1179 33.4359 31.5387 32.375 31.5387C31.3141 31.5387 30.2967 31.1179 29.5466 30.3689C28.7964 29.62 28.375 28.6042 28.375 27.545V25.5581C28.61 25.5731 28.8738 25.5831 29.1688 25.5831ZM28.375 23.555V23.5513C28.3762 22.4924 28.798 21.4773 29.5479 20.7286C30.2978 19.9799 31.3145 19.5587 32.375 19.5576C33.9563 19.5576 35.3575 20.561 36.0013 21.9713C33.5213 23.0745 31.4862 23.4402 30.1625 23.5463C29.5678 23.596 28.9701 23.599 28.375 23.555ZM33.375 33.5355V34.5339C33.375 34.7987 33.2696 35.0527 33.0821 35.2399C32.8946 35.4272 32.6402 35.5324 32.375 35.5324C32.1098 35.5324 31.8554 35.4272 31.6679 35.2399C31.4804 35.0527 31.375 34.7987 31.375 34.5339V33.5355H33.375ZM43.375 40.0253C43.3744 40.3346 43.278 40.6362 43.0989 40.8887C42.9199 41.1412 42.667 41.3322 42.375 41.4356V39.5261C42.3733 37.9378 41.7406 36.4151 40.6158 35.292C39.4909 34.1689 37.9658 33.5372 36.375 33.5355H35.375V32.7293C36.2865 32.2037 37.0435 31.448 37.57 30.5381C38.0966 29.6281 38.3742 28.5959 38.375 27.545V23.5513C38.375 23.5226 38.3738 23.4951 38.3713 23.4664C38.3194 21.9386 37.6985 20.4852 36.63 19.3903C36.0818 18.8136 35.4219 18.3541 34.6905 18.0396C33.9591 17.7251 33.1714 17.5622 32.375 17.5607C30.7842 17.5624 29.2591 18.1941 28.1342 19.3172C27.0094 20.4402 26.3767 21.963 26.375 23.5513V27.545C26.3758 28.5959 26.6534 29.6281 27.18 30.5381C27.7065 31.448 28.4635 32.2037 29.375 32.7293V33.5355H28.375C26.7842 33.5372 25.2591 34.1689 24.1342 35.292C23.0094 36.4151 22.3767 37.9378 22.375 39.5261V41.4356C22.083 41.3322 21.8301 41.1412 21.6511 40.8887C21.472 40.6362 21.3756 40.3346 21.375 40.0253V18.0599C21.3753 17.6628 21.5335 17.2821 21.8147 17.0013C22.0959 16.7205 22.4773 16.5626 22.875 16.5623H41.875C42.2727 16.5626 42.6541 16.7205 42.9353 17.0013C43.2165 17.2821 43.3747 17.6628 43.375 18.0599V40.0253Z" fill="#707F9B"/>
<path d="M5.375 8.57498H6.25C6.51522 8.57498 6.76957 8.46979 6.95711 8.28254C7.14464 8.0953 7.25 7.84135 7.25 7.57655C7.25 7.31175 7.14464 7.0578 6.95711 6.87056C6.76957 6.68332 6.51522 6.57812 6.25 6.57812H5.375C5.10978 6.57812 4.85543 6.68332 4.66789 6.87056C4.48036 7.0578 4.375 7.31175 4.375 7.57655C4.375 7.84135 4.48036 8.0953 4.66789 8.28254C4.85543 8.46979 5.10978 8.57498 5.375 8.57498Z" fill="#707F9B"/>
<path d="M9.375 8.57498H10.25C10.5152 8.57498 10.7696 8.46979 10.9571 8.28254C11.1446 8.0953 11.25 7.84135 11.25 7.57655C11.25 7.31175 11.1446 7.0578 10.9571 6.87056C10.7696 6.68332 10.5152 6.57812 10.25 6.57812H9.375C9.10978 6.57812 8.85543 6.68332 8.66789 6.87056C8.48036 7.0578 8.375 7.31175 8.375 7.57655C8.375 7.84135 8.48036 8.0953 8.66789 8.28254C8.85543 8.46979 9.10978 8.57498 9.375 8.57498Z" fill="#707F9B"/>
<path d="M13.375 8.57498H14.25C14.5152 8.57498 14.7696 8.46979 14.9571 8.28254C15.1446 8.0953 15.25 7.84135 15.25 7.57655C15.25 7.31175 15.1446 7.0578 14.9571 6.87056C14.7696 6.68332 14.5152 6.57812 14.25 6.57812H13.375C13.1098 6.57812 12.8554 6.68332 12.6679 6.87056C12.4804 7.0578 12.375 7.31175 12.375 7.57655C12.375 7.84135 12.4804 8.0953 12.6679 8.28254C12.8554 8.46979 13.1098 8.57498 13.375 8.57498Z" fill="#707F9B"/>
</svg>
