<svg width="52" height="52" viewBox="0 0 52 52" fill="none" xmlns="http://www.w3.org/2000/svg">
<g clip-path="url(#clip0)">
<path d="M27.0418 29.1162H13.7372C12.9812 29.1162 12.3661 29.7313 12.3661 30.4873V33.1279C12.3661 33.884 12.9812 34.499 13.7372 34.499H27.0418C27.7979 34.499 28.4129 33.884 28.4129 33.1279V30.4873C28.4129 29.7313 27.7979 29.1162 27.0418 29.1162ZM26.8895 32.9756H13.8896V30.6397H26.8895V32.9756ZM23.5262 15.6312L19.6119 19.5454L18.1151 18.0487C17.8177 17.7511 17.3354 17.7512 17.038 18.0487C16.7405 18.3462 16.7405 18.8285 17.038 19.1259L18.5706 20.6584C18.8487 20.9366 19.2185 21.0899 19.6119 21.0899C20.0052 21.0899 20.3751 20.9367 20.6532 20.6585L24.6033 16.7084C24.9008 16.4109 24.9008 15.9286 24.6033 15.6312C24.306 15.3337 23.8236 15.3337 23.5262 15.6312ZM21.0393 3.25374C20.6187 3.25374 20.2776 3.59479 20.2776 4.01546C20.2776 4.43613 20.6187 4.77718 21.0393 4.77718C21.46 4.77718 21.801 4.43613 21.801 4.01546C21.801 3.59479 21.46 3.25374 21.0393 3.25374ZM14.9456 3.25374C14.5249 3.25374 14.1839 3.59479 14.1839 4.01546C14.1839 4.43613 14.5249 4.77718 14.9456 4.77718C15.3663 4.77718 15.7073 4.43613 15.7073 4.01546C15.7073 3.59479 15.3663 3.25374 14.9456 3.25374ZM17.9925 3.25374C17.5718 3.25374 17.2307 3.59479 17.2307 4.01546C17.2307 4.43613 17.5718 4.77718 17.9925 4.77718C18.4131 4.77718 18.7542 4.43613 18.7542 4.01546C18.7542 3.59479 18.4131 3.25374 17.9925 3.25374ZM24.5964 40.5927H27.4074C27.828 40.5927 28.1691 40.2517 28.1691 39.831C28.1691 39.4104 27.828 39.0693 27.4074 39.0693H24.5964C24.1758 39.0693 23.8347 39.4104 23.8347 39.831C23.8347 40.2517 24.1758 40.5927 24.5964 40.5927ZM38.8759 12.689H31.9558C31.5352 12.689 31.1941 13.03 31.1941 13.4507C31.1941 13.8714 31.5352 14.2124 31.9558 14.2124H38.8759C39.2965 14.2124 39.6376 13.8714 39.6376 13.4507C39.6376 13.03 39.2965 12.689 38.8759 12.689ZM20.8207 9.31162C16.1589 9.31162 12.3661 13.1043 12.3661 17.7662C12.3661 22.4281 16.1588 26.2207 20.8207 26.2207C25.4826 26.2207 29.2752 22.428 29.2752 17.7662C29.2752 13.1044 25.4825 9.31162 20.8207 9.31162ZM20.8207 24.6972C16.9989 24.6972 13.8896 21.5878 13.8896 17.7661C13.8896 13.9443 16.9988 10.8349 20.8207 10.8349C24.6425 10.8349 27.7518 13.9442 27.7518 17.7661C27.7518 21.5879 24.6424 24.6972 20.8207 24.6972ZM48.1932 6.59524H42.6844V3.80858C42.6844 1.70848 40.976 0 38.8759 0H13.1278C11.0277 0 9.31926 1.70848 9.31926 3.80858V9.6421H4.62303C3.75498 9.6421 3.04882 10.3483 3.04882 11.2163V36.0224H1.52538V10.4038C1.52538 9.14374 2.55045 8.11867 3.81053 8.11867H7.13466C7.55533 8.11867 7.89638 7.77763 7.89638 7.35696C7.89638 6.93629 7.55533 6.59524 7.13466 6.59524H3.81053C1.71043 6.59524 0.00195312 8.30372 0.00195312 10.4038V39.8309C0.00195312 41.931 1.71043 43.6395 3.81053 43.6395H19.0396L16.5479 50.4764H15.5576C15.1369 50.4764 14.7959 50.8174 14.7959 51.2381C14.7959 51.6587 15.1369 51.9998 15.5576 51.9998H17.0764C17.0779 51.9998 17.0794 52 17.0809 52C17.0819 52 17.0827 51.9998 17.0835 51.9998H34.9201C34.921 51.9998 34.9218 52 34.9227 52C34.9242 52 34.9257 51.9998 34.9272 51.9998H36.446C36.8667 51.9998 37.2077 51.6587 37.2077 51.2381C37.2077 50.8174 36.8667 50.4764 36.446 50.4764H35.4557L32.964 43.6396H48.1931C50.2932 43.6396 52.0016 41.9311 52.0016 39.831V10.4038C52.0018 8.30382 50.2933 6.59524 48.1932 6.59524ZM10.8427 3.80858C10.8427 2.5485 11.8678 1.52343 13.1278 1.52343H38.8759C40.1359 1.52343 41.161 2.5485 41.161 3.80858V6.59524H10.8427V3.80858ZM10.8427 8.11867H41.161V33.7372C41.161 34.1579 41.5021 34.4989 41.9227 34.4989C42.3434 34.4989 42.6844 34.1579 42.6844 33.7372V11.1655H47.3807C47.4087 11.1655 47.4315 11.1883 47.4315 11.2163V36.0224H10.8427V8.11867ZM4.57225 11.2163C4.57225 11.1883 4.595 11.1655 4.62303 11.1655H9.31926V36.0224H4.57225V11.2163ZM33.8344 50.4764H18.1693L20.6609 43.6396H31.3427L33.8344 50.4764ZM50.4783 39.831C50.4783 41.0911 49.4533 42.1162 48.1932 42.1162H3.81053C2.55045 42.1162 1.52538 41.0911 1.52538 39.831V37.5459H50.4783V39.831ZM50.4783 36.0224H48.9549V11.2163C48.9549 10.3483 48.2487 9.6421 47.3807 9.6421H42.6844V8.11867H48.1932C49.4533 8.11867 50.4783 9.14374 50.4783 10.4038V36.0224ZM38.8759 9.6421H31.9558C31.5352 9.6421 31.1941 9.98315 31.1941 10.4038C31.1941 10.8245 31.5352 11.1655 31.9558 11.1655H38.8759C39.2965 11.1655 39.6376 10.8245 39.6376 10.4038C39.6376 9.98315 39.2965 9.6421 38.8759 9.6421ZM38.8759 32.9756H31.9558C31.5352 32.9756 31.1941 33.3166 31.1941 33.7373C31.1941 34.158 31.5352 34.499 31.9558 34.499H38.8759C39.2965 34.499 39.6376 34.158 39.6376 33.7373C39.6376 33.3166 39.2965 32.9756 38.8759 32.9756ZM38.8759 29.1162H31.9558C31.5352 29.1162 31.1941 29.4573 31.1941 29.8779C31.1941 30.2986 31.5352 30.6397 31.9558 30.6397H38.8759C39.2965 30.6397 39.6376 30.2986 39.6376 29.8779C39.6376 29.4573 39.2965 29.1162 38.8759 29.1162ZM31.9558 17.2593H35.829C36.2497 17.2593 36.5907 16.9182 36.5907 16.4975C36.5907 16.0769 36.2497 15.7358 35.829 15.7358H31.9558C31.5352 15.7358 31.1941 16.0769 31.1941 16.4975C31.1941 16.9182 31.5352 17.2593 31.9558 17.2593Z" fill="#707F9B"/>
</g>
<defs>
<clipPath id="clip0">
<rect width="52" height="52" fill="white"/>
</clipPath>
</defs>
</svg>
