<svg width="70" height="70" viewBox="0 0 70 70" fill="none" xmlns="http://www.w3.org/2000/svg">
<path d="M56.7775 49.5069H13.2219C12.1905 49.5049 11.2019 49.094 10.4729 48.3643C9.74396 47.6346 9.33404 46.6456 9.33301 45.6142V15.2754C9.33445 14.1388 9.78659 13.0492 10.5903 12.2455C11.3939 11.4419 12.4835 10.9897 13.6201 10.9883H56.3792C57.5158 10.9897 58.6054 11.4419 59.4091 12.2455C60.2128 13.0492 60.6649 14.1388 60.6663 15.2754V45.6142C60.6653 46.6456 60.2554 47.6346 59.5264 48.3643C58.7974 49.094 57.8089 49.5049 56.7775 49.5069ZM13.6201 12.5438C12.8959 12.5445 12.2014 12.8324 11.6893 13.3446C11.1772 13.8567 10.8892 14.5511 10.8886 15.2754V45.6142C10.8892 46.2332 11.1351 46.8267 11.5724 47.2648C12.0098 47.7028 12.6029 47.9497 13.2219 47.9514H56.7775C57.3965 47.9497 57.9896 47.7028 58.4269 47.2648C58.8643 46.8267 59.1102 46.2332 59.1108 45.6142V15.2754C59.1102 14.5511 58.8222 13.8567 58.31 13.3446C57.7979 12.8324 57.1035 12.5445 56.3792 12.5438H13.6201Z" fill="#707F9B"/>
<path d="M44.1782 59.0114H25.8227C25.6164 59.0114 25.4186 58.9294 25.2727 58.7836C25.1269 58.6377 25.0449 58.4399 25.0449 58.2336V57.0413C25.0464 55.8624 25.5153 54.7323 26.3489 53.8987C27.1825 53.0651 28.3126 52.5962 29.4915 52.5947H40.5095C41.6883 52.5962 42.8185 53.0651 43.6521 53.8987C44.4856 54.7323 44.9546 55.8624 44.956 57.0413V58.2336C44.956 58.4399 44.8741 58.6377 44.7282 58.7836C44.5823 58.9294 44.3845 59.0114 44.1782 59.0114ZM26.6005 57.4558H43.4005V57.0413C43.3998 56.2749 43.0952 55.54 42.5533 54.998C42.0114 54.456 41.2767 54.1511 40.5102 54.1503H29.4907C28.7243 54.1513 27.9897 54.4562 27.4479 54.9982C26.906 55.5402 26.6013 56.2749 26.6005 57.0413V57.4558Z" fill="#707F9B"/>
<path d="M40.2504 54.1501C40.0442 54.1501 39.8463 54.0681 39.7005 53.9223C39.5546 53.7764 39.4727 53.5786 39.4727 53.3723V48.7289C39.4727 48.5227 39.5546 48.3248 39.7005 48.179C39.8463 48.0331 40.0442 47.9512 40.2504 47.9512C40.4567 47.9512 40.6545 48.0331 40.8004 48.179C40.9463 48.3248 41.0282 48.5227 41.0282 48.7289V53.3723C41.0282 53.5786 40.9463 53.7764 40.8004 53.9223C40.6545 54.0681 40.4567 54.1501 40.2504 54.1501Z" fill="#707F9B"/>
<path d="M29.7504 54.1501C29.5442 54.1501 29.3463 54.0681 29.2005 53.9223C29.0546 53.7764 28.9727 53.5786 28.9727 53.3723V48.7289C28.9727 48.5227 29.0546 48.3248 29.2005 48.179C29.3463 48.0331 29.5442 47.9512 29.7504 47.9512C29.9567 47.9512 30.1545 48.0331 30.3004 48.179C30.4463 48.3248 30.5282 48.5227 30.5282 48.7289V53.3723C30.5282 53.5786 30.4463 53.7764 30.3004 53.9223C30.1545 54.0681 29.9567 54.1501 29.7504 54.1501Z" fill="#707F9B"/>
<path d="M55.8543 42.0639H14.1459C13.9397 42.0639 13.7418 41.982 13.596 41.8361C13.4501 41.6903 13.3682 41.4924 13.3682 41.2862V15.8217C13.3682 15.6154 13.4501 15.4176 13.596 15.2718C13.7418 15.1259 13.9397 15.0439 14.1459 15.0439H55.8543C56.0606 15.0439 56.2584 15.1259 56.4042 15.2718C56.5501 15.4176 56.632 15.6154 56.632 15.8217V41.2862C56.632 41.4924 56.5501 41.6903 56.4042 41.8361C56.2584 41.982 56.0606 42.0639 55.8543 42.0639ZM14.9237 40.5084H55.0765V16.5995H14.9237V40.5084Z" fill="#707F9B"/>
<path d="M29.1589 38.4218H19.1489C18.9426 38.4218 18.7448 38.3398 18.5989 38.194C18.453 38.0481 18.3711 37.8503 18.3711 37.644V34.8883C18.3723 33.9176 18.7585 32.9869 19.445 32.3004C20.1314 31.614 21.0621 31.2278 22.0329 31.2266H26.2741C27.245 31.2276 28.1759 31.6137 28.8625 32.3002C29.5491 32.9866 29.9354 33.9174 29.9367 34.8883V37.644C29.9367 37.8503 29.8547 38.0481 29.7089 38.194C29.563 38.3398 29.3652 38.4218 29.1589 38.4218ZM19.9267 36.8662H28.3811V34.8883C28.3803 34.3299 28.158 33.7945 27.763 33.3997C27.368 33.0048 26.8326 32.7827 26.2741 32.7821H22.0329C21.4745 32.7827 20.9391 33.0048 20.5442 33.3997C20.1494 33.7946 19.9273 34.3299 19.9267 34.8883V36.8662Z" fill="#707F9B"/>
<path d="M24.1544 30.3335C23.2282 30.2884 22.3575 29.8786 21.7324 29.1937C21.1072 28.5088 20.7784 27.6044 20.8178 26.678C20.7776 25.7505 21.1059 24.8448 21.731 24.1585C22.3561 23.4722 23.2273 23.061 24.1544 23.0146C25.0816 23.061 25.9528 23.4722 26.5779 24.1585C27.203 24.8448 27.5313 25.7505 27.4911 26.678C27.5304 27.6044 27.2016 28.5088 26.5765 29.1937C25.9513 29.8786 25.0806 30.2884 24.1544 30.3335ZM24.1544 24.5702C23.6404 24.6177 23.1656 24.8653 22.8325 25.2596C22.4993 25.6538 22.3344 26.1633 22.3733 26.678C22.3351 27.1917 22.5005 27.6999 22.8337 28.0928C23.1669 28.4857 23.6413 28.7318 24.1544 28.778C24.6675 28.7316 25.1417 28.4855 25.4749 28.0926C25.8081 27.6998 25.9735 27.1917 25.9355 26.678C25.9738 26.1636 25.8086 25.6548 25.4755 25.2611C25.1424 24.8673 24.668 24.62 24.1544 24.5725V24.5702Z" fill="#707F9B"/>
<path d="M50.8512 38.4218H40.8413C40.635 38.4218 40.4371 38.3398 40.2913 38.194C40.1454 38.0481 40.0635 37.8503 40.0635 37.644V34.8883C40.0647 33.9174 40.451 32.9866 41.1376 32.3002C41.8242 31.6137 42.7551 31.2276 43.726 31.2266H47.9673C48.938 31.2278 49.8687 31.614 50.5552 32.3004C51.2416 32.9869 51.6278 33.9176 51.629 34.8883V37.644C51.629 37.8503 51.5471 38.0481 51.4012 38.194C51.2554 38.3398 51.0575 38.4218 50.8512 38.4218ZM41.619 36.8662H50.0735V34.8883C50.0729 34.3299 49.8508 33.7946 49.4559 33.3997C49.061 33.0048 48.5257 32.7827 47.9673 32.7821H43.726C43.1675 32.7827 42.6321 33.0048 42.2371 33.3997C41.8421 33.7945 41.6199 34.3299 41.619 34.8883V36.8662Z" fill="#707F9B"/>
<path d="M45.8456 30.3331C44.9194 30.2879 44.0487 29.8782 43.4236 29.1933C42.7984 28.5084 42.4696 27.604 42.5089 26.6775C42.4651 26.213 42.5189 25.7444 42.6666 25.3018C42.8144 24.8592 43.053 24.4523 43.3671 24.1072C43.6812 23.7621 44.0639 23.4864 44.4907 23.2978C44.9175 23.1092 45.379 23.0117 45.8456 23.0117C46.3122 23.0117 46.7737 23.1092 47.2005 23.2978C47.6273 23.4864 48.01 23.7621 48.3241 24.1072C48.6382 24.4523 48.8767 24.8592 49.0245 25.3018C49.1723 25.7444 49.226 26.213 49.1823 26.6775C49.2216 27.604 48.8928 28.5084 48.2676 29.1933C47.6425 29.8782 46.7718 30.2879 45.8456 30.3331ZM45.8456 24.5698C45.3316 24.6173 44.8568 24.8648 44.5236 25.2591C44.1905 25.6534 44.0256 26.1628 44.0645 26.6775C44.0218 26.936 44.0359 27.2006 44.1058 27.4531C44.1756 27.7055 44.2996 27.9398 44.4691 28.1395C44.6385 28.3392 44.8494 28.4997 45.0871 28.6098C45.3248 28.7198 45.5836 28.7768 45.8456 28.7768C46.1075 28.7768 46.3663 28.7198 46.604 28.6098C46.8417 28.4997 47.0527 28.3392 47.2221 28.1395C47.3916 27.9398 47.5156 27.7055 47.5854 27.4531C47.6553 27.2006 47.6694 26.936 47.6267 26.6775C47.665 26.1632 47.4998 25.6544 47.1667 25.2606C46.8336 24.8668 46.3592 24.6196 45.8456 24.5721V24.5698Z" fill="#707F9B"/>
<path d="M32.5112 24.5191C32.409 24.5194 32.3078 24.4994 32.2134 24.4603C32.1191 24.4211 32.0334 24.3637 31.9613 24.2912L29.8224 22.1523C29.6766 22.0065 29.5947 21.8087 29.5947 21.6024C29.5947 21.3962 29.6766 21.1984 29.8224 21.0525L31.9613 18.9136C32.108 18.772 32.3045 18.6936 32.5084 18.6953C32.7124 18.6971 32.9074 18.7789 33.0516 18.9231C33.1958 19.0673 33.2776 19.2624 33.2794 19.4663C33.2812 19.6703 33.2028 19.8667 33.0611 20.0134L31.4721 21.6024L33.0611 23.1914C33.1698 23.3002 33.2439 23.4388 33.2739 23.5896C33.3039 23.7405 33.2885 23.8968 33.2296 24.0389C33.1708 24.181 33.0711 24.3025 32.9432 24.388C32.8154 24.4734 32.665 24.5191 32.5112 24.5191Z" fill="#707F9B"/>
<path d="M37.4892 22.3798H30.3725C30.1662 22.3798 29.9684 22.2978 29.8225 22.152C29.6767 22.0061 29.5947 21.8083 29.5947 21.602C29.5947 21.3957 29.6767 21.1979 29.8225 21.052C29.9684 20.9062 30.1662 20.8242 30.3725 20.8242H37.4892C37.6955 20.8242 37.8933 20.9062 38.0391 21.052C38.185 21.1979 38.267 21.3957 38.267 21.602C38.267 21.8083 38.185 22.0061 38.0391 22.152C37.8933 22.2978 37.6955 22.3798 37.4892 22.3798Z" fill="#707F9B"/>
<path d="M37.4895 30.8872C37.3357 30.8872 37.1854 30.8416 37.0575 30.7561C36.9296 30.6706 36.83 30.5492 36.7711 30.4071C36.7123 30.265 36.6969 30.1086 36.7269 29.9578C36.7568 29.8069 36.8309 29.6684 36.9396 29.5596L38.5286 27.9706L36.9396 26.3816C36.798 26.2349 36.7196 26.0384 36.7213 25.8345C36.7231 25.6306 36.8049 25.4355 36.9491 25.2913C37.0933 25.1471 37.2884 25.0653 37.4923 25.0635C37.6963 25.0617 37.8927 25.1401 38.0394 25.2818L40.1783 27.4207C40.3241 27.5665 40.406 27.7643 40.406 27.9706C40.406 28.1768 40.3241 28.3746 40.1783 28.5205L38.0394 30.6594C37.8936 30.8052 37.6958 30.8872 37.4895 30.8872Z" fill="#707F9B"/>
<path d="M39.6278 28.7479H32.5112C32.3049 28.7479 32.1071 28.666 31.9612 28.5201C31.8153 28.3743 31.7334 28.1764 31.7334 27.9702C31.7334 27.7639 31.8153 27.5661 31.9612 27.4202C32.1071 27.2743 32.3049 27.1924 32.5112 27.1924H39.6278C39.8341 27.1924 40.032 27.2743 40.1778 27.4202C40.3237 27.5661 40.4056 27.7639 40.4056 27.9702C40.4056 28.1764 40.3237 28.3743 40.1778 28.5201C40.032 28.666 39.8341 28.7479 39.6278 28.7479Z" fill="#707F9B"/>
<path d="M53.1294 45.7649C53.0278 45.7636 52.9273 45.7425 52.8338 45.7027C52.7396 45.6632 52.6528 45.608 52.5772 45.5393C52.4326 45.3919 52.3516 45.1936 52.3516 44.9871C52.3516 44.7806 52.4326 44.5823 52.5772 44.4349C52.6691 44.3449 52.7816 44.2786 52.905 44.2419C53.0283 44.2052 53.1587 44.1991 53.285 44.2241C53.3334 44.2332 53.3803 44.2492 53.4242 44.2715C53.4748 44.2864 53.5225 44.3101 53.565 44.3415C53.6057 44.3703 53.6447 44.4014 53.6816 44.4349C53.8252 44.583 53.906 44.7808 53.9072 44.9871C53.9082 45.0895 53.8888 45.1911 53.8501 45.286C53.8114 45.3808 53.7541 45.467 53.6817 45.5394C53.6093 45.6118 53.5231 45.6691 53.4283 45.7078C53.3334 45.7465 53.2318 45.7659 53.1294 45.7649Z" fill="#707F9B"/>
<path d="M47.1565 45.7647C47.0522 45.7645 46.9491 45.7433 46.8531 45.7024C46.7354 45.6531 46.6316 45.5755 46.5509 45.4765C46.4702 45.3775 46.4151 45.2602 46.3905 45.1349C46.3659 45.0096 46.3726 44.8802 46.4098 44.7581C46.4471 44.6359 46.5139 44.5249 46.6043 44.4347C46.7531 44.2959 46.9491 44.2188 47.1526 44.2188C47.3561 44.2188 47.5521 44.2959 47.7009 44.4347C47.773 44.5073 47.83 44.5935 47.8688 44.6883C47.9075 44.7831 47.9271 44.8845 47.9265 44.9869C47.9275 45.0887 47.9084 45.1896 47.8701 45.2839C47.8319 45.3783 47.7753 45.4641 47.7037 45.5364C47.6321 45.6087 47.5469 45.6661 47.453 45.7053C47.359 45.7445 47.2583 45.7647 47.1565 45.7647Z" fill="#707F9B"/>
<path d="M41.1753 45.7644C41.0729 45.7653 40.9713 45.7459 40.8765 45.7071C40.7817 45.6684 40.6956 45.6112 40.6231 45.5389C40.5526 45.4633 40.495 45.3766 40.4527 45.2822C40.415 45.1883 40.3963 45.0879 40.3975 44.9867C40.3971 44.7801 40.4781 44.5817 40.6231 44.4345C40.7722 44.2958 40.9682 44.2188 41.1718 44.2188C41.3754 44.2188 41.5714 44.2958 41.7205 44.4345C41.7942 44.5063 41.8527 44.5922 41.8927 44.6871C41.9326 44.7819 41.9532 44.8838 41.9532 44.9867C41.9532 45.0896 41.9326 45.1915 41.8927 45.2863C41.8527 45.3811 41.7942 45.467 41.7205 45.5389C41.65 45.6119 41.5652 45.6696 41.4714 45.7084C41.3776 45.7472 41.2768 45.7663 41.1753 45.7644Z" fill="#707F9B"/>
</svg>
