<svg width="50" height="50" viewBox="0 0 50 50" fill="none" xmlns="http://www.w3.org/2000/svg">
<path d="M48.9898 38.1195L39.9719 29.1016L40.625 28.4484L40.8539 28.6773C41.0062 28.8297 41.2062 28.9062 41.4062 28.9062C41.6062 28.9062 41.8062 28.8297 41.9586 28.6773L44.3023 26.3336C44.6078 26.0281 44.6078 25.5344 44.3023 25.2289L39.8437 20.7703V6.25C39.8437 3.23438 37.3898 0.78125 34.375 0.78125H4.6875C2.53359 0.78125 0.78125 2.53359 0.78125 4.6875V10.9375C0.78125 11.3687 1.13047 11.7188 1.5625 11.7188H7.03125V45.3125C7.03125 47.4664 8.78359 49.2188 10.9375 49.2188H39.0625C41.2164 49.2188 42.9687 47.4664 42.9687 45.3125V43.75C42.9687 43.3187 42.6195 42.9688 42.1875 42.9688H39.8437V35.0891L45.932 41.1773C46.0844 41.3297 46.2844 41.4062 46.4844 41.4062C46.6844 41.4062 46.8844 41.3297 47.0367 41.1773L48.9898 39.2242C49.2953 38.9188 49.2953 38.425 48.9898 38.1195ZM35.1562 31.7078L32.3547 28.9062L36.7187 24.5422L39.5203 27.3438L35.1562 31.7078ZM34.8328 33.5938L33.5937 34.8328L29.2297 30.4688L30.4687 29.2297L34.8328 33.5938ZM41.4062 27.0203L37.0422 22.6562L38.2812 21.4172L42.6453 25.7812L41.4062 27.0203ZM7.03125 10.1562H2.34375V4.6875C2.34375 3.39531 3.39531 2.34375 4.6875 2.34375C5.97969 2.34375 7.03125 3.39531 7.03125 4.6875V10.1562ZM41.4062 45.3125C41.4062 46.6047 40.3547 47.6562 39.0625 47.6562H14.0609C14.5523 47.0031 14.8437 46.1914 14.8437 45.3125V44.5312H41.4062V45.3125ZM38.2812 42.9688H14.0625C13.6305 42.9688 13.2812 43.3187 13.2812 43.75V45.3125C13.2812 46.6047 12.2297 47.6562 10.9375 47.6562C9.64531 47.6562 8.59375 46.6047 8.59375 45.3125V4.6875C8.59375 3.80469 8.28828 2.99844 7.79219 2.34375H34.375C36.5289 2.34375 38.2812 4.09609 38.2812 6.25V19.5312C38.0812 19.5312 37.8812 19.6078 37.7289 19.7602L35.3852 22.1039C35.0797 22.4094 35.0797 22.9031 35.3852 23.2086L35.6141 23.4375L31.25 27.8016L31.0211 27.5727C30.7156 27.2672 30.2219 27.2672 29.9164 27.5727L27.5727 29.9164C27.2672 30.2219 27.2672 30.7156 27.5727 31.0211L33.0414 36.4898C33.1937 36.6422 33.3937 36.7188 33.5937 36.7188C33.7937 36.7188 33.9937 36.6422 34.1461 36.4898L36.4898 34.1461C36.7953 33.8406 36.7953 33.3469 36.4898 33.0414L36.2609 32.8125L36.9141 32.1594L38.2812 33.5266V42.9688ZM46.4844 39.5203L38.0187 31.0547L38.8672 30.2063L47.3328 38.6719L46.4844 39.5203Z" fill="#707F9B"/>
<path d="M10.9375 14.8438H36.7188V16.4062H10.9375V14.8438Z" fill="#707F9B"/>
<path d="M10.9375 21.0938H33.5938V22.6562H10.9375V21.0938Z" fill="#707F9B"/>
<path d="M10.9375 17.9688H36.7188V19.5312H10.9375V17.9688Z" fill="#707F9B"/>
<path d="M10.9375 8.59375H36.7188V10.1562H10.9375V8.59375Z" fill="#707F9B"/>
<path d="M10.9375 5.46875H36.7188V7.03125H10.9375V5.46875Z" fill="#707F9B"/>
<path d="M10.9375 11.7188H36.7188V13.2812H10.9375V11.7188Z" fill="#707F9B"/>
<path d="M10.9375 24.2188H32.0312V25.7812H10.9375V24.2188Z" fill="#707F9B"/>
<path d="M17.1875 27.3438C13.3102 27.3438 10.1562 30.4984 10.1562 34.375C10.1562 38.2516 13.3102 41.4062 17.1875 41.4062C21.0648 41.4062 24.2188 38.2516 24.2188 34.375C24.2188 30.4984 21.0648 27.3438 17.1875 27.3438ZM17.1875 39.8438C14.1727 39.8438 11.7188 37.3906 11.7188 34.375C11.7188 31.3594 14.1727 28.9062 17.1875 28.9062C20.2023 28.9062 22.6562 31.3594 22.6562 34.375C22.6562 37.3906 20.2023 39.8438 17.1875 39.8438Z" fill="#707F9B"/>
<path d="M17.1875 30.4688C15.0336 30.4688 13.2812 32.2211 13.2812 34.375C13.2812 36.5289 15.0336 38.2812 17.1875 38.2812C19.3414 38.2812 21.0938 36.5289 21.0938 34.375C21.0938 32.2211 19.3414 30.4688 17.1875 30.4688ZM17.1875 36.7188C15.8953 36.7188 14.8438 35.6672 14.8438 34.375C14.8438 33.0828 15.8953 32.0312 17.1875 32.0312C18.4797 32.0312 19.5312 33.0828 19.5312 34.375C19.5312 35.6672 18.4797 36.7188 17.1875 36.7188Z" fill="#707F9B"/>
<path d="M30.4688 38.2814C30.4688 37.9377 30.2438 37.633 29.9141 37.5338C29.5859 37.4338 29.2281 37.5611 29.0375 37.8478L28.775 38.2416C28.1063 39.2447 26.9867 39.8439 25.7812 39.8439V41.4064C27.1445 41.4064 28.4312 40.872 29.3844 39.9416C29.9375 40.8205 30.9172 41.4064 32.0312 41.4064H35.1562V39.8439H32.0312C31.1695 39.8439 30.4688 39.1431 30.4688 38.2814Z" fill="#707F9B"/>
</svg>
