<svg width="48" height="48" viewBox="0 0 48 48" fill="none" xmlns="http://www.w3.org/2000/svg">
<path d="M44 0H4C1.79194 0.00260091 0.00260091 1.79194 0 4V44C0.00260091 46.2081 1.79194 47.9974 4 48H44C46.2081 47.9974 47.9974 46.2081 48 44V4C47.9974 1.79194 46.2081 0.00260091 44 0ZM4 1.6H44C45.3249 1.60145 46.3985 2.67512 46.4 4V9.6H1.6V4C1.60145 2.67512 2.67512 1.60145 4 1.6ZM44 46.4H4C2.67512 46.3985 1.60145 45.3249 1.6 44V11.2H46.4V44C46.3985 45.3249 45.3249 46.3985 44 46.4Z" fill="#707F9B"/>
<path d="M5.6002 8.0002C6.92568 8.0002 8.0002 6.92568 8.0002 5.6002C8.0002 4.27471 6.92568 3.2002 5.6002 3.2002C4.27471 3.2002 3.2002 4.27471 3.2002 5.6002C3.20165 6.92508 4.27532 7.99874 5.6002 8.0002ZM5.6002 4.8002C6.04202 4.8002 6.4002 5.15837 6.4002 5.6002C6.4002 6.04202 6.04202 6.4002 5.6002 6.4002C5.15837 6.4002 4.8002 6.04202 4.8002 5.6002C4.80059 5.15853 5.15853 4.80059 5.6002 4.8002Z" fill="#707F9B"/>
<path d="M11.9996 8.0002C13.3251 8.0002 14.3996 6.92568 14.3996 5.6002C14.3996 4.27471 13.3251 3.2002 11.9996 3.2002C10.6741 3.2002 9.59961 4.27471 9.59961 5.6002C9.60106 6.92508 10.6747 7.99874 11.9996 8.0002ZM11.9996 4.8002C12.4414 4.8002 12.7996 5.15837 12.7996 5.6002C12.7996 6.04202 12.4414 6.4002 11.9996 6.4002C11.5578 6.4002 11.1996 6.04202 11.1996 5.6002C11.2 5.15853 11.5579 4.80059 11.9996 4.8002Z" fill="#707F9B"/>
<path d="M18.4 8.0002C19.7255 8.0002 20.8 6.92568 20.8 5.6002C20.8 4.27471 19.7255 3.2002 18.4 3.2002C17.0745 3.2002 16 4.27471 16 5.6002C16.0015 6.92508 17.0751 7.99874 18.4 8.0002ZM18.4 4.8002C18.8418 4.8002 19.2 5.15837 19.2 5.6002C19.2 6.04202 18.8418 6.4002 18.4 6.4002C17.9582 6.4002 17.6 6.04202 17.6 5.6002C17.6004 5.15853 17.9583 4.80059 18.4 4.8002Z" fill="#707F9B"/>
<path d="M32.0004 26.3998H38.4004C39.2836 26.3988 39.9994 25.683 40.0004 24.7998V18.3998C39.9994 17.5166 39.2836 16.8008 38.4004 16.7998H32.0004C31.1172 16.8008 30.4014 17.5166 30.4004 18.3998V24.7998C30.4014 25.683 31.1172 26.3988 32.0004 26.3998ZM32.0004 18.3998H38.4004V24.7998H32.0004V18.3998Z" fill="#707F9B"/>
<path d="M39.2004 36.8002C38.7586 36.8002 38.4004 37.1584 38.4004 37.6002V39.2002H32.0004V32.8002H36.0004C36.4422 32.8002 36.8004 32.442 36.8004 32.0002C36.8004 31.5584 36.4422 31.2002 36.0004 31.2002H32.0004C31.1172 31.2012 30.4014 31.917 30.4004 32.8002V39.2002C30.4014 40.0834 31.1172 40.7992 32.0004 40.8002H38.4004C39.2836 40.7992 39.9994 40.0834 40.0004 39.2002V37.6002C40.0004 37.1584 39.6422 36.8002 39.2004 36.8002Z" fill="#707F9B"/>
<path d="M7.20039 19.1996H13.6004C14.0422 19.1996 14.4004 18.8414 14.4004 18.3996C14.4004 17.9578 14.0422 17.5996 13.6004 17.5996H7.20039C6.75856 17.5996 6.40039 17.9578 6.40039 18.3996C6.40039 18.8414 6.75856 19.1996 7.20039 19.1996Z" fill="#707F9B"/>
<path d="M26.4 17.5996H16.8C16.3582 17.5996 16 17.9578 16 18.3996C16 18.8414 16.3582 19.1996 16.8 19.1996H26.4C26.8418 19.1996 27.2 18.8414 27.2 18.3996C27.2 17.9578 26.8418 17.5996 26.4 17.5996Z" fill="#707F9B"/>
<path d="M26.4004 20.7998H7.20039C6.75856 20.7998 6.40039 21.158 6.40039 21.5998C6.40039 22.0416 6.75856 22.3998 7.20039 22.3998H26.4004C26.8422 22.3998 27.2004 22.0416 27.2004 21.5998C27.2004 21.158 26.8422 20.7998 26.4004 20.7998Z" fill="#707F9B"/>
<path d="M7.20039 25.6H16.8004C17.2422 25.6 17.6004 25.2418 17.6004 24.8C17.6004 24.3582 17.2422 24 16.8004 24H7.20039C6.75856 24 6.40039 24.3582 6.40039 24.8C6.40039 25.2418 6.75856 25.6 7.20039 25.6Z" fill="#707F9B"/>
<path d="M26.4002 24H20.0002C19.5584 24 19.2002 24.3582 19.2002 24.8C19.2002 25.2418 19.5584 25.6 20.0002 25.6H26.4002C26.842 25.6 27.2002 25.2418 27.2002 24.8C27.2002 24.3582 26.842 24 26.4002 24Z" fill="#707F9B"/>
<path d="M7.20039 33.6H13.6004C14.0422 33.6 14.4004 33.2418 14.4004 32.8C14.4004 32.3582 14.0422 32 13.6004 32H7.20039C6.75856 32 6.40039 32.3582 6.40039 32.8C6.40039 33.2418 6.75856 33.6 7.20039 33.6Z" fill="#707F9B"/>
<path d="M26.4 32H16.8C16.3582 32 16 32.3582 16 32.8C16 33.2418 16.3582 33.6 16.8 33.6H26.4C26.8418 33.6 27.2 33.2418 27.2 32.8C27.2 32.3582 26.8418 32 26.4 32Z" fill="#707F9B"/>
<path d="M26.4004 35.2002H7.20039C6.75856 35.2002 6.40039 35.5584 6.40039 36.0002C6.40039 36.442 6.75856 36.8002 7.20039 36.8002H26.4004C26.8422 36.8002 27.2004 36.442 27.2004 36.0002C27.2004 35.5584 26.8422 35.2002 26.4004 35.2002Z" fill="#707F9B"/>
<path d="M16.8004 38.4004H7.20039C6.75856 38.4004 6.40039 38.7586 6.40039 39.2004C6.40039 39.6422 6.75856 40.0004 7.20039 40.0004H16.8004C17.2422 40.0004 17.6004 39.6422 17.6004 39.2004C17.6004 38.7586 17.2422 38.4004 16.8004 38.4004Z" fill="#707F9B"/>
<path d="M26.4002 38.4004H20.0002C19.5584 38.4004 19.2002 38.7586 19.2002 39.2004C19.2002 39.6422 19.5584 40.0004 20.0002 40.0004H26.4002C26.842 40.0004 27.2002 39.6422 27.2002 39.2004C27.2002 38.7586 26.842 38.4004 26.4002 38.4004Z" fill="#707F9B"/>
<path d="M40.1595 29.9197L35.9127 35.5817L34.9651 34.6341C34.6512 34.3309 34.1523 34.3352 33.8437 34.6438C33.5351 34.9524 33.5308 35.4514 33.8339 35.7653L35.4339 37.3653C35.5839 37.5154 35.7874 37.5998 35.9995 37.5997C36.0183 37.5997 36.0371 37.5989 36.0566 37.5977C36.2879 37.5813 36.5006 37.4653 36.6395 37.2797L41.4395 30.8797C41.7046 30.5262 41.633 30.0248 41.2795 29.7597C40.9261 29.4946 40.4246 29.5662 40.1595 29.9197Z" fill="#707F9B"/>
</svg>
