<svg width="12" height="7" viewBox="0 0 12 7" fill="none" xmlns="http://www.w3.org/2000/svg">
<path d="M7.702 0.903408C7.476 1.01675 7.33334 1.24741 7.33334 1.50006L7.33334 2.8334L0.666656 2.8334C0.298656 2.8334 -1.32668e-07 3.1314 -1.16554e-07 3.50006C-1.0044e-07 3.86872 0.298656 4.16671 0.666656 4.16671L7.33331 4.16671L7.33331 5.50006C7.33331 5.75271 7.47597 5.9834 7.70197 6.09671C7.92797 6.20871 8.19797 6.18471 8.39997 6.03337L11.0666 4.03337C11.078 4.02471 11.082 4.01137 11.0926 4.00203C11.1446 3.95803 11.1846 3.90603 11.2213 3.84803C11.2359 3.82403 11.2553 3.80537 11.2673 3.77937C11.3073 3.69403 11.3333 3.60071 11.3333 3.50003C11.3333 3.39934 11.3073 3.30603 11.2673 3.22003C11.2553 3.19468 11.2359 3.17537 11.2213 3.15203C11.1846 3.09403 11.1446 3.04203 11.0926 2.99803C11.082 2.98937 11.078 2.97537 11.0666 2.96669L8.39997 0.966689C8.198 0.814721 7.928 0.790721 7.702 0.903408Z" fill="#FFCF1C"/>
</svg>
