<svg width="25" height="25" viewBox="0 0 25 25" fill="none" xmlns="http://www.w3.org/2000/svg">
<path d="M2.42757 19.0809C6.12073 24.5839 13.5757 26.0511 19.0788 22.3579C24.5818 18.6647 26.049 11.2098 22.3558 5.70676C18.6626 0.20374 11.2076 -1.26345 5.70458 2.42975C3.06172 4.20344 1.23176 6.95439 0.61737 10.0774C0.0030307 13.1999 0.654179 16.4385 2.42757 19.0809ZM7.24579 6.57384L7.24766 6.57259L7.24689 6.5765L7.96017 6.10139C8.88555 5.4721 10.0725 5.37197 11.0902 5.83729C12.1095 6.33722 13.042 6.99712 13.8525 7.79194C14.6086 8.51506 15.2829 9.31911 15.8631 10.1897C16.3987 10.9818 16.8539 11.8253 17.2221 12.7078C17.6275 13.6592 17.8992 14.6621 18.0294 15.688C18.1733 16.8914 17.6249 18.0728 16.6129 18.7398L15.7768 19.3007C15.5441 19.4576 15.2284 19.3961 15.0716 19.1635L13.2992 16.5216C13.1423 16.2889 13.2038 15.9732 13.4364 15.8164L14.9885 14.7751C15.4325 14.4807 15.5943 13.9059 15.3689 13.4231C15.0271 12.688 14.6279 11.981 14.175 11.3085C13.6711 10.5539 13.1012 9.84546 12.4721 9.19152C12.1084 8.81441 11.527 8.75141 11.091 9.0418L9.5886 10.0668C9.35596 10.2236 9.04023 10.1622 8.88343 9.92952L7.10858 7.27898C6.95168 7.04637 7.01314 6.73068 7.24579 6.57384Z" fill="#102A59"/>
</svg>
