<svg width="190" height="56" viewBox="0 0 190 56" fill="none" xmlns="http://www.w3.org/2000/svg">
<g clip-path="url(#clip0)">
<path d="M81.1406 47.2427V46.7361H81.5966V43.2384H81.1543V42.7305H84.6206V43.9112H84.0845V43.2384H82.3316V44.655L83.9579 44.6228V45.1441L82.3316 45.1159V46.7375H84.1729V46.0393H84.72V47.2427H81.1406Z" fill="black"/>
<path d="M88.6529 46.1304V43.2384H88.1902V42.7305H89.7825V43.2384H89.3416V47.2427H88.6325L87.5614 45.6157C87.428 45.4148 87.2933 45.211 87.1572 45.0074C87.0197 44.8036 86.8863 44.5946 86.7516 44.3843C86.685 44.2796 86.6183 44.1725 86.5516 44.0653C86.4849 43.958 86.4155 43.8509 86.3448 43.7464C86.3406 43.7464 86.3379 43.7464 86.3379 43.749C86.3379 43.7517 86.3352 43.7517 86.3311 43.7517V46.7375H86.7856C86.7856 46.8219 86.7871 46.9063 86.7898 46.9894C86.7925 47.0752 86.7925 47.1596 86.7925 47.2427H85.1865C85.1865 47.1583 85.1851 47.0752 85.1838 46.9894C85.1811 46.905 85.1797 46.8219 85.1797 46.7375H85.6424C85.6424 46.1505 85.6424 45.5662 85.6451 44.9873C85.648 44.4083 85.6493 43.8267 85.6493 43.2384H85.1865V42.7305H86.4317C86.6455 43.0601 86.8319 43.3496 86.9899 43.5962C87.1477 43.8455 87.2919 44.0653 87.4213 44.2583L88.1629 45.4107C88.2392 45.53 88.314 45.6479 88.3903 45.7672C88.4678 45.8865 88.5427 46.0071 88.6188 46.1304H88.6529Z" fill="black"/>
<path d="M90.3535 47.2427V46.7361H90.8094V43.2384H90.3671V42.7305H93.8335V43.9112H93.2972V43.2384H91.5443V44.655L93.1707 44.6228V45.1441L91.5443 45.1159V46.7375H93.3858V46.0393H93.9329V47.2427H90.3535Z" fill="black"/>
<path d="M95.5855 45.3067V46.7366H96.1014V47.2433H94.4219V46.7366H94.8506V43.2323H94.4219V42.7256H96.5164C96.9847 42.7256 97.3453 42.8355 97.6011 43.0553C97.857 43.2751 97.9808 43.5914 97.9808 44.0054C97.9808 44.1101 97.9672 44.2226 97.9414 44.3405C97.9141 44.4611 97.8693 44.5764 97.8053 44.6889C97.7386 44.8001 97.6542 44.9007 97.5481 44.9931C97.442 45.0815 97.3086 45.1513 97.152 45.1995L97.8747 46.7567L98.3687 46.8224V47.2123C98.2816 47.2459 98.1767 47.2727 98.0571 47.2915C97.94 47.3089 97.842 47.3182 97.7672 47.3182C97.6052 47.3182 97.4882 47.2834 97.4133 47.2137C97.3357 47.1427 97.2677 47.0409 97.2037 46.9096L96.4892 45.3081H95.5855V45.3067ZM97.2119 44.0054C97.2119 43.8648 97.1902 43.7454 97.1452 43.645C97.1003 43.5445 97.0418 43.4654 96.967 43.4024C96.8921 43.3408 96.8077 43.2979 96.707 43.2711C96.6062 43.243 96.5028 43.2309 96.3953 43.2309H95.5855V44.8122H96.3953C96.4824 44.8122 96.5764 44.8001 96.6716 44.78C96.7669 44.7572 96.858 44.717 96.937 44.6568C97.0172 44.5978 97.0826 44.5161 97.1343 44.4128C97.1846 44.3084 97.2119 44.1729 97.2119 44.0054Z" fill="black"/>
<path d="M100.99 42.6455C101.241 42.6455 101.469 42.6628 101.679 42.6991C101.889 42.7326 102.07 42.7781 102.221 42.8304V43.956H101.683V43.2994C101.596 43.2753 101.488 43.2579 101.37 43.2418C101.25 43.227 101.131 43.219 101.016 43.219C100.76 43.219 100.543 43.2619 100.363 43.3477C100.183 43.4335 100.034 43.5527 99.9165 43.7082C99.7968 43.861 99.7097 44.0486 99.6539 44.2684C99.598 44.4868 99.5709 44.732 99.5709 44.9987C99.5709 45.2507 99.5926 45.4799 99.6349 45.6903C99.677 45.9019 99.7491 46.0829 99.8471 46.2343C99.9478 46.3858 100.084 46.5037 100.254 46.5908C100.422 46.6752 100.636 46.7194 100.895 46.7194C101.004 46.7194 101.129 46.7114 101.269 46.6953C101.412 46.6793 101.532 46.6578 101.631 46.627V45.3619H100.97V44.8687H102.643V45.3619H102.308V47.0799C102.068 47.1563 101.825 47.2113 101.574 47.2488C101.324 47.2863 101.083 47.3051 100.852 47.3051C100.466 47.3051 100.144 47.2474 99.8839 47.1295C99.6239 47.0143 99.4129 46.8534 99.251 46.6498C99.0918 46.446 98.9775 46.2035 98.9081 45.9207C98.8387 45.6406 98.8047 45.3338 98.8047 45.0054C98.8047 44.7548 98.8333 44.4908 98.8945 44.2148C98.9529 43.9387 99.0646 43.6841 99.2266 43.4509C99.3912 43.219 99.6145 43.0261 99.8961 42.8733C100.179 42.7219 100.544 42.6455 100.99 42.6455Z" fill="black"/>
<path d="M105.843 43.2437H105.447V42.7236H106.947V43.2437H106.572L105.307 45.3517V46.7346H105.844V47.2413H104.016V46.7346H104.551V45.3718L103.313 43.2437H102.945V42.7236H104.463V43.2437H104.075L104.931 44.8316H104.96L105.843 43.2437Z" fill="black"/>
<path d="M110.363 45.3067V46.7366H110.879V47.2433H109.199V46.7366H109.627V43.2323H109.199V42.7256H111.294C111.762 42.7256 112.123 42.8355 112.376 43.0553C112.632 43.2751 112.758 43.5914 112.758 44.0054C112.758 44.1101 112.745 44.2226 112.719 44.3405C112.691 44.4611 112.647 44.5764 112.58 44.6889C112.516 44.8001 112.432 44.9007 112.323 44.9931C112.216 45.0815 112.086 45.1513 111.929 45.1995L112.652 46.7567L113.146 46.8224V47.2123C113.056 47.2459 112.951 47.2727 112.834 47.2915C112.715 47.3089 112.619 47.3182 112.542 47.3182C112.383 47.3182 112.265 47.2834 112.188 47.2137C112.11 47.1427 112.042 47.0409 111.981 46.9096L111.267 45.3081H110.363V45.3067ZM111.987 44.0054C111.987 43.8648 111.965 43.7454 111.92 43.645C111.878 43.5459 111.816 43.4654 111.744 43.4024C111.669 43.3408 111.582 43.2979 111.482 43.2711C111.384 43.243 111.28 43.2309 111.17 43.2309H110.361V44.8122H111.17C111.26 44.8122 111.354 44.8001 111.449 44.78C111.544 44.7572 111.633 44.717 111.712 44.6568C111.795 44.5978 111.857 44.5161 111.91 44.4128C111.963 44.3084 111.987 44.1729 111.987 44.0054Z" fill="black"/>
<path d="M113.525 47.2427V46.7361H113.983V43.2384H113.539V42.7305H117.005V43.9112H116.47V43.2384H114.716V44.655L116.343 44.6228V45.1441L114.716 45.1159V46.7375H116.559V46.0393H117.106V47.2427H113.525Z" fill="black"/>
<path d="M118.09 46.012L118.096 46.552C118.261 46.6271 118.428 46.678 118.598 46.7062C118.768 46.7343 118.925 46.749 119.074 46.749C119.247 46.749 119.398 46.7263 119.529 46.6821C119.657 46.6392 119.766 46.5829 119.85 46.5146C119.934 46.4463 119.996 46.3685 120.039 46.2774C120.083 46.1862 120.103 46.0951 120.103 46.004C120.103 45.8673 120.079 45.7573 120.026 45.6744C119.975 45.5912 119.903 45.5229 119.813 45.4706C119.721 45.4183 119.615 45.3741 119.492 45.3366C119.37 45.299 119.235 45.2602 119.088 45.22C118.884 45.1771 118.689 45.1221 118.511 45.0564C118.333 44.9895 118.176 44.9105 118.043 44.8153C117.909 44.7202 117.803 44.6063 117.727 44.4696C117.647 44.3329 117.61 44.1694 117.61 43.9818C117.613 43.766 117.658 43.577 117.743 43.4122C117.829 43.2474 117.942 43.108 118.086 42.9995C118.232 42.8895 118.402 42.8051 118.597 42.7489C118.791 42.6912 119.001 42.6631 119.23 42.6631C119.325 42.6631 119.434 42.6684 119.548 42.6764C119.665 42.6859 119.782 42.7006 119.902 42.7193C120.019 42.7395 120.136 42.7676 120.253 42.8037C120.367 42.8413 120.476 42.8868 120.571 42.9404L120.58 43.8826H120.038L120.032 43.3358C119.929 43.2916 119.801 43.2594 119.647 43.2433C119.494 43.2273 119.355 43.2165 119.235 43.2165C119.118 43.2165 119.009 43.2312 118.906 43.2594C118.799 43.2876 118.708 43.3304 118.629 43.388C118.552 43.4457 118.488 43.5167 118.443 43.6025C118.395 43.6869 118.371 43.786 118.371 43.896C118.371 44.0005 118.399 44.0916 118.456 44.168C118.512 44.2457 118.587 44.3114 118.68 44.369C118.772 44.4267 118.881 44.4749 119.004 44.5164C119.126 44.558 119.257 44.5942 119.389 44.625C119.575 44.6692 119.76 44.7202 119.941 44.7791C120.122 44.8394 120.281 44.9185 120.424 45.0176C120.567 45.1155 120.682 45.2415 120.77 45.3916C120.856 45.543 120.901 45.736 120.901 45.9691C120.901 46.2023 120.856 46.402 120.77 46.5682C120.683 46.7343 120.561 46.8738 120.405 46.9836C120.249 47.0934 120.06 47.1753 119.842 47.2248C119.624 47.2744 119.382 47.3011 119.119 47.3011C118.862 47.3011 118.595 47.2771 118.325 47.2275C118.051 47.1806 117.798 47.0934 117.561 46.9715C117.561 46.8147 117.558 46.6552 117.558 46.4945C117.555 46.3336 117.553 46.1741 117.553 46.0107H118.09V46.012Z" fill="black"/>
<path d="M125.535 44.9903C125.535 45.3187 125.492 45.6255 125.407 45.9056C125.321 46.1883 125.197 46.4323 125.03 46.6413C124.862 46.8504 124.653 47.0125 124.402 47.1279C124.152 47.2457 123.863 47.3034 123.533 47.3034C123.171 47.3034 122.863 47.2484 122.602 47.1385C122.345 47.0286 122.131 46.8744 121.966 46.6735C121.802 46.4725 121.679 46.2326 121.601 45.9525C121.524 45.6711 121.484 45.3575 121.484 45.0104C121.484 44.6941 121.521 44.3926 121.596 44.1072C121.668 43.8217 121.788 43.5725 121.953 43.3554C122.117 43.1409 122.33 42.9707 122.588 42.8421C122.848 42.7134 123.162 42.6504 123.531 42.6504C123.906 42.6504 124.223 42.7134 124.477 42.8421C124.734 42.9707 124.94 43.1409 125.096 43.3527C125.253 43.5657 125.364 43.8137 125.431 44.0977C125.498 44.3818 125.535 44.6781 125.535 44.9903ZM124.759 45.0104C124.759 44.796 124.743 44.5788 124.711 44.3618C124.68 44.1447 124.621 43.9504 124.53 43.7788C124.443 43.6072 124.318 43.4693 124.156 43.3593C123.997 43.2521 123.789 43.1986 123.534 43.1986C123.281 43.1986 123.071 43.2482 122.907 43.35C122.742 43.4504 122.609 43.5858 122.513 43.7547C122.418 43.9235 122.351 44.1178 122.315 44.3376C122.278 44.5574 122.259 44.7853 122.259 45.0172C122.259 45.584 122.357 46.0155 122.557 46.3116C122.754 46.6092 123.081 46.7566 123.535 46.7566C123.75 46.7566 123.934 46.7123 124.088 46.6212C124.242 46.53 124.37 46.4081 124.468 46.2527C124.568 46.0972 124.643 45.9123 124.688 45.6992C124.734 45.4862 124.759 45.2557 124.759 45.0104Z" fill="black"/>
<path d="M130.109 45.6002C130.109 46.1202 129.964 46.5316 129.666 46.8371C129.371 47.144 128.913 47.2968 128.294 47.2968C127.973 47.2968 127.698 47.2593 127.471 47.1803C127.242 47.1039 127.053 46.9927 126.907 46.8478C126.759 46.7031 126.652 46.5249 126.583 46.3146C126.514 46.1028 126.48 45.8643 126.48 45.6016V43.2323H126.084V42.7256H127.657V43.2323H127.203V45.5948C127.203 45.9821 127.295 46.2703 127.487 46.4605C127.676 46.6509 127.95 46.7447 128.306 46.7447C128.655 46.7447 128.923 46.6536 129.115 46.4673C129.309 46.2824 129.405 45.9929 129.405 45.5962V43.2335H128.956V42.727H130.52V43.2335H130.11V45.6002H130.109Z" fill="black"/>
<path d="M132.193 45.3067V46.7366H132.708V47.2433H131.029V46.7366H131.46V43.2323H131.029V42.7256H133.123C133.592 42.7256 133.953 42.8355 134.209 43.0553C134.465 43.2751 134.588 43.5914 134.588 44.0054C134.588 44.1101 134.575 44.2226 134.549 44.3405C134.522 44.4611 134.476 44.5764 134.413 44.6889C134.346 44.8001 134.262 44.9007 134.156 44.9931C134.05 45.0815 133.915 45.1513 133.759 45.1995L134.482 46.7567L134.977 46.8224V47.2123C134.889 47.2459 134.784 47.2727 134.664 47.2915C134.548 47.3089 134.449 47.3182 134.374 47.3182C134.213 47.3182 134.095 47.2834 134.02 47.2137C133.943 47.1427 133.875 47.0409 133.811 46.9096L133.096 45.3081H132.193V45.3067ZM133.82 44.0054C133.82 43.8648 133.798 43.7454 133.753 43.645C133.707 43.5445 133.649 43.4654 133.574 43.4024C133.499 43.3408 133.415 43.2979 133.314 43.2711C133.214 43.243 133.11 43.2309 133.003 43.2309H132.191V44.8122H133.003C133.09 44.8122 133.184 44.8001 133.28 44.78C133.374 44.7572 133.466 44.717 133.545 44.6568C133.625 44.5978 133.691 44.5161 133.742 44.4128C133.794 44.3084 133.82 44.1729 133.82 44.0054Z" fill="black"/>
<path d="M136.179 44.9967C136.179 45.2608 136.201 45.4966 136.246 45.7084C136.29 45.9174 136.368 46.0984 136.478 46.2472C136.586 46.3958 136.734 46.5111 136.919 46.5902C137.103 46.6692 137.336 46.7094 137.618 46.7094C137.676 46.7094 137.748 46.7067 137.835 46.7028C137.923 46.6973 138.013 46.6893 138.112 46.6759C138.21 46.6626 138.311 46.6478 138.415 46.629C138.516 46.6117 138.613 46.5902 138.702 46.5634L138.822 47.0766C138.736 47.1129 138.634 47.1437 138.524 47.1691C138.415 47.1972 138.302 47.2186 138.181 47.2387C138.059 47.2589 137.94 47.2736 137.814 47.2843C137.691 47.2964 137.574 47.3017 137.463 47.3017C137.075 47.3017 136.751 47.2441 136.487 47.1262C136.224 47.0109 136.014 46.8502 135.853 46.6464C135.695 46.4428 135.583 46.2002 135.514 45.9174C135.444 45.6374 135.41 45.3304 135.41 45.0022C135.41 44.7516 135.439 44.4875 135.501 44.2075C135.559 43.93 135.667 43.6754 135.824 43.4436C135.978 43.2131 136.193 43.0227 136.465 42.87C136.739 42.7199 137.084 42.6436 137.511 42.6436C137.761 42.6436 137.984 42.6609 138.18 42.6971C138.374 42.7306 138.548 42.7762 138.701 42.8285V43.9742H138.166V43.2827C138.062 43.2546 137.956 43.2372 137.845 43.2251C137.734 43.2144 137.627 43.209 137.53 43.209C137.289 43.209 137.085 43.2505 136.916 43.3377C136.745 43.4248 136.607 43.544 136.497 43.7008C136.386 43.8563 136.306 44.0452 136.255 44.265C136.205 44.4848 136.179 44.7301 136.179 44.9967Z" fill="black"/>
<path d="M139.322 47.2427V46.7361H139.777V43.2384H139.336V42.7305H142.803V43.9112H142.265V43.2384H140.514V44.655L142.14 44.6228V45.1441L140.514 45.1159V46.7375H142.353V46.0393H142.901V47.2427H139.322Z" fill="black"/>
<path d="M143.887 46.012L143.892 46.552C144.057 46.6271 144.225 46.678 144.394 46.7062C144.565 46.7343 144.721 46.749 144.871 46.749C145.044 46.749 145.195 46.7263 145.326 46.6821C145.454 46.6392 145.562 46.5829 145.646 46.5146C145.73 46.4463 145.792 46.3685 145.835 46.2774C145.879 46.1862 145.9 46.0951 145.9 46.004C145.9 45.8673 145.875 45.7573 145.822 45.6744C145.772 45.5912 145.699 45.5229 145.61 45.4706C145.517 45.4183 145.411 45.3741 145.288 45.3366C145.166 45.299 145.031 45.2602 144.884 45.22C144.681 45.1771 144.486 45.1221 144.307 45.0564C144.129 44.9895 143.973 44.9105 143.839 44.8153C143.706 44.7202 143.599 44.6063 143.523 44.4696C143.443 44.3329 143.406 44.1694 143.406 43.9818C143.409 43.766 143.454 43.577 143.54 43.4122C143.625 43.2474 143.739 43.108 143.882 42.9995C144.028 42.8895 144.199 42.8051 144.393 42.7489C144.588 42.6912 144.797 42.6631 145.026 42.6631C145.122 42.6631 145.23 42.6684 145.344 42.6764C145.462 42.6859 145.578 42.7006 145.698 42.7193C145.816 42.7395 145.932 42.7676 146.05 42.8037C146.163 42.8413 146.272 42.8868 146.368 42.9404L146.375 43.8826H145.834L145.829 43.3358C145.725 43.2916 145.597 43.2594 145.444 43.2433C145.29 43.2273 145.151 43.2165 145.031 43.2165C144.915 43.2165 144.805 43.2312 144.702 43.2594C144.596 43.2876 144.505 43.3304 144.426 43.388C144.349 43.4457 144.284 43.5167 144.239 43.6025C144.191 43.6869 144.168 43.786 144.168 43.896C144.168 44.0005 144.196 44.0916 144.253 44.168C144.309 44.2457 144.384 44.3114 144.477 44.369C144.568 44.4267 144.677 44.4749 144.8 44.5164C144.923 44.558 145.053 44.5942 145.185 44.625C145.371 44.6692 145.557 44.7202 145.738 44.7791C145.919 44.8394 146.078 44.9185 146.22 45.0176C146.364 45.1155 146.478 45.2415 146.567 45.3916C146.652 45.543 146.697 45.736 146.697 45.9691C146.697 46.2023 146.652 46.402 146.567 46.5682C146.48 46.7343 146.357 46.8738 146.202 46.9836C146.046 47.0934 145.856 47.1753 145.639 47.2248C145.42 47.2744 145.179 47.3011 144.916 47.3011C144.659 47.3011 144.391 47.2771 144.121 47.2275C143.847 47.1806 143.594 47.0934 143.357 46.9715C143.357 46.8147 143.355 46.6552 143.355 46.4945C143.352 46.3336 143.35 46.1741 143.35 46.0107H143.887V46.012Z" fill="black"/>
<path d="M153.225 44.9903C153.225 45.3187 153.183 45.6255 153.097 45.9056C153.012 46.1883 152.888 46.4323 152.72 46.6413C152.553 46.8504 152.344 47.0125 152.093 47.1279C151.842 47.2457 151.554 47.3034 151.223 47.3034C150.861 47.3034 150.554 47.2484 150.293 47.1385C150.035 47.0286 149.822 46.8744 149.657 46.6735C149.492 46.4725 149.37 46.2326 149.292 45.9525C149.215 45.6711 149.176 45.3575 149.176 45.0104C149.176 44.6941 149.212 44.3926 149.287 44.1072C149.359 43.8217 149.478 43.5725 149.644 43.3554C149.808 43.1409 150.02 42.9707 150.278 42.8421C150.539 42.7134 150.853 42.6504 151.222 42.6504C151.597 42.6504 151.913 42.7134 152.168 42.8421C152.425 42.9707 152.631 43.1409 152.787 43.3527C152.943 43.5657 153.056 43.8137 153.122 44.0977C153.189 44.3818 153.225 44.6781 153.225 44.9903ZM152.45 45.0104C152.45 44.796 152.433 44.5788 152.402 44.3618C152.371 44.1447 152.313 43.9504 152.221 43.7788C152.134 43.6072 152.009 43.4693 151.846 43.3593C151.687 43.2521 151.479 43.1986 151.224 43.1986C150.971 43.1986 150.762 43.2482 150.598 43.35C150.432 43.4504 150.299 43.5858 150.205 43.7547C150.109 43.9235 150.042 44.1178 150.006 44.3376C149.968 44.5574 149.95 44.7853 149.95 45.0172C149.95 45.584 150.047 46.0155 150.247 46.3116C150.445 46.6092 150.772 46.7566 151.226 46.7566C151.442 46.7566 151.625 46.7123 151.779 46.6212C151.933 46.53 152.061 46.4081 152.159 46.2527C152.26 46.0972 152.333 45.9123 152.379 45.6992C152.425 45.4862 152.45 45.2557 152.45 45.0104Z" fill="black"/>
<path d="M153.84 47.2427V46.7361H154.297V43.2384H153.854V42.7305H157.334V43.9112H156.787V43.2384H155.033V44.655L156.659 44.6228V45.1441L155.033 45.1159V46.7375H155.671V47.2441H153.84V47.2427Z" fill="black"/>
<path d="M163.624 45.6002C163.624 46.1202 163.475 46.5316 163.179 46.8371C162.885 47.144 162.424 47.2968 161.808 47.2968C161.487 47.2968 161.212 47.2593 160.982 47.1803C160.753 47.1039 160.564 46.9927 160.418 46.8478C160.272 46.7031 160.162 46.5249 160.094 46.3146C160.025 46.1028 159.991 45.8643 159.991 45.6016V43.2323H159.598V42.7256H161.168V43.2323H160.713V45.5948C160.713 45.9821 160.809 46.2703 160.999 46.4605C161.187 46.6509 161.461 46.7447 161.817 46.7447C162.166 46.7447 162.436 46.6536 162.629 46.4673C162.82 46.2824 162.916 45.9929 162.916 45.5962V43.2335H162.47V42.727H164.032V43.2335H163.625V45.6002H163.624Z" fill="black"/>
<path d="M166.76 44.5021L168.283 46.7361H168.672V47.2427H167.034L167.026 46.7361H167.449L166.232 44.9444L165.694 45.4443V46.7429H166.117V47.2427H164.529V46.7429H164.974V43.2183H164.529V42.7305H166.122V43.2183H165.695V44.7929L167.369 43.2251H166.946V42.7305H168.534V43.2251H168.146L166.76 44.5021Z" fill="black"/>
<path d="M170.239 45.3067V46.7366H170.755V47.2433H169.076V46.7366H169.505V43.2323H169.076V42.7256H171.17C171.638 42.7256 171.999 42.8355 172.254 43.0553C172.51 43.2751 172.634 43.5914 172.634 44.0054C172.634 44.1101 172.62 44.2226 172.594 44.3405C172.567 44.4611 172.523 44.5764 172.459 44.6889C172.393 44.8001 172.307 44.9007 172.201 44.9931C172.096 45.0815 171.962 45.1513 171.806 45.1995L172.528 46.7567L173.022 46.8224V47.2123C172.936 47.2459 172.831 47.2727 172.711 47.2915C172.593 47.3089 172.496 47.3182 172.421 47.3182C172.258 47.3182 172.142 47.2834 172.067 47.2137C171.99 47.1427 171.921 47.0409 171.858 46.9096L171.143 45.3081H170.239V45.3067ZM171.865 44.0054C171.865 43.8648 171.843 43.7454 171.8 43.645C171.754 43.5445 171.695 43.4654 171.621 43.4024C171.546 43.3408 171.461 43.2979 171.36 43.2711C171.261 43.243 171.157 43.2309 171.049 43.2309H170.238V44.8122H171.049C171.136 44.8122 171.23 44.8001 171.325 44.78C171.421 44.7572 171.511 44.717 171.59 44.6568C171.672 44.5978 171.736 44.5161 171.788 44.4128C171.84 44.3084 171.865 44.1729 171.865 44.0054Z" fill="black"/>
<path d="M176.531 46.7366C176.497 46.6227 176.456 46.4981 176.411 46.3614C176.367 46.2247 176.326 46.104 176.292 45.9983H174.572C174.541 46.0894 174.502 46.2046 174.457 46.3453C174.413 46.4847 174.371 46.6147 174.338 46.7366H174.791V47.2433H173.252V46.7366H173.627L175.012 42.7256H175.93C176.147 43.377 176.373 44.0471 176.605 44.7305C176.836 45.4152 177.062 46.0841 177.279 46.7366H177.654V47.2433H176.089V46.7366H176.531ZM176.138 45.4916C176.048 45.1928 175.957 44.8993 175.864 44.6072C175.768 44.3164 175.673 44.0216 175.575 43.7254C175.558 43.6598 175.54 43.5927 175.519 43.5284C175.497 43.464 175.479 43.3957 175.454 43.3314H175.441L175.313 43.7321C175.273 43.8513 175.227 43.9853 175.179 44.1368C175.13 44.2868 175.08 44.4436 175.025 44.6045C174.972 44.7653 174.922 44.9208 174.871 45.0776C174.825 45.233 174.782 45.3723 174.745 45.4957H176.138V45.4916Z" fill="black"/>
<path d="M178.252 47.2433V46.7366H178.688V43.2323H178.252V42.7256H179.865V43.2323H179.424V46.7366H179.865V47.2433H178.252Z" fill="black"/>
<path d="M184.069 46.1304V43.2384H183.606V42.7305H185.198V43.2384H184.758V47.2427H184.048L182.976 45.6157C182.843 45.4148 182.709 45.211 182.573 45.0074C182.436 44.8036 182.302 44.5946 182.169 44.3843C182.101 44.2796 182.036 44.1725 181.967 44.0653C181.9 43.958 181.831 43.8509 181.76 43.7464C181.758 43.7464 181.755 43.7464 181.755 43.749C181.755 43.7517 181.752 43.7517 181.746 43.7517V46.7375H182.201C182.201 46.8219 182.204 46.9063 182.206 46.9894C182.209 47.0752 182.209 47.1596 182.209 47.2427H180.603C180.603 47.1583 180.601 47.0752 180.601 46.9894C180.598 46.905 180.596 46.8219 180.596 46.7375H181.058C181.058 46.1505 181.058 45.5662 181.061 44.9873C181.064 44.4083 181.066 43.8267 181.066 43.2384H180.603V42.7305H181.847C182.063 43.0601 182.249 43.3496 182.405 43.5962C182.564 43.8455 182.709 44.0653 182.838 44.2583L183.58 45.4107C183.655 45.53 183.731 45.6479 183.806 45.7672C183.884 45.8865 183.96 46.0071 184.034 46.1304H184.069Z" fill="black"/>
<path d="M185.764 47.2427V46.7361H186.221V43.2384H185.778V42.7305H189.244V43.9112H188.709V43.2384H186.955V44.655L188.581 44.6228V45.1441L186.955 45.1159V46.7375H188.797V46.0393H189.344V47.2427H185.764Z" fill="black"/>
<path fill-rule="evenodd" clip-rule="evenodd" d="M113.274 15.7972C113.274 18.4279 113.274 21.0546 113.274 23.6798C112.024 23.6798 109.528 23.6798 109.528 23.6798C109.528 23.6798 109.465 19.5026 109.528 19.4906C109.589 19.4798 91.4991 19.4906 91.4991 19.4906L91.4772 22.8422H100.826L100.842 20.8348H104.59C104.59 20.8348 104.59 25.9151 104.59 28.8769C103.342 28.8769 102.093 28.8769 100.842 28.8769C100.842 27.9843 100.842 27.0891 100.842 26.194C97.7785 26.194 91.4991 26.194 91.4991 26.194L91.4772 30.2169C91.4772 30.2169 103.51 30.2169 109.526 30.2169C109.526 28.5967 109.526 26.9766 109.526 25.3564C110.774 25.3564 112.022 25.3564 113.273 25.3564C113.273 28.2041 113.273 31.0572 113.273 33.9104C102.603 33.9104 81.2578 33.9104 81.2578 33.9104V30.2169H87.5591V19.4892H81.2578C81.2578 19.4892 81.2578 17.0261 81.2578 15.7959C91.9277 15.7972 102.605 15.7972 113.274 15.7972Z" fill="black"/>
<path fill-rule="evenodd" clip-rule="evenodd" d="M167.621 15.7979C167.621 17.0281 167.621 18.2597 167.621 19.4912C165.522 19.4912 163.074 19.4912 160.973 19.4912C160.964 20.9225 160.776 26.8244 161.489 28.3762C162.09 29.6881 163.862 30.2523 165.748 30.389C169.193 30.6357 175.83 31.0257 177.837 29.0463C178.991 27.9126 178.515 19.4912 178.515 19.4912C176.473 19.4912 174.431 19.4912 172.39 19.4912C172.39 18.2597 172.39 17.0281 172.39 15.7979C177.951 15.7979 183.515 15.7979 189.075 15.7979C189.075 17.0281 189.075 18.2597 189.075 19.4912C186.976 19.4912 184.875 19.4912 182.776 19.4912C182.776 19.4912 182.783 25.5231 182.526 28.0573C182.309 30.2296 181.553 32.0281 179.201 33.0721C175.223 34.8356 163.575 34.9361 159.788 32.737C155.838 30.4413 157.287 24.8718 156.934 19.4912C154.887 19.4912 153.092 19.4443 151.051 19.4443L151.101 15.7979C156.611 15.7979 162.116 15.7979 167.621 15.7979Z" fill="black"/>
<path fill-rule="evenodd" clip-rule="evenodd" d="M150.787 28.8788C149.976 30.507 148.638 31.0404 147.192 31.0404C144.031 31.0404 141.622 28.2691 140.57 26.3634C145.436 26.3634 148.193 24.1495 148.193 20.8796C148.193 15.7804 143.005 15.834 140.826 15.834C138.527 15.834 116.389 15.7979 116.389 15.7979V19.4912L122.18 19.5086C122.18 19.5086 122.18 26.7025 122.18 30.2203C120.248 30.2203 118.32 30.2203 116.389 30.2203C116.389 31.4532 116.389 32.6807 116.389 33.9136C121.838 33.9136 127.287 33.9136 132.737 33.9136C132.737 32.6807 132.737 31.4532 132.737 30.2203C130.636 30.2203 126.438 30.2203 126.438 30.2203L126.445 26.3647L135.29 26.4063C136.509 28.2543 137.246 29.4899 138.358 30.8957C142.1 35.6129 153.242 36.4625 154.191 29.2179L150.787 28.8788ZM135.971 23.1779C132.44 23.1779 126.437 23.1779 126.437 23.1779V19.4912C126.437 19.4912 132.714 19.4912 136.314 19.4912C138.957 19.4912 143.803 18.9752 143.803 21.4143C143.803 23.6148 138.766 23.1779 135.971 23.1779Z" fill="black"/>
<path d="M50.1816 0C50.1816 0 7.84481 7.34924 7.39569 7.42831C6.94657 7.50737 6.82137 7.73252 6.73427 7.85045C3.55915 11.9633 1.38432 16.8106 0.476562 22.0021C0.476562 22.0021 0.6984 21.9633 1.11077 21.8896C7.52362 20.7787 60.4215 11.5934 60.9223 11.5063C61.4557 11.4152 61.4557 10.9649 61.3292 10.7599C58.689 6.43528 55.0783 2.8156 50.8417 0.140713C50.7342 0.0737068 50.1816 0 50.1816 0Z" fill="url(#paint0_radial)"/>
<path d="M58.6564 47.3494C58.6564 47.3494 16.3211 54.6987 15.8719 54.775C15.4255 54.8541 15.2282 54.6866 15.103 54.6049C10.6935 51.8093 6.96578 47.9873 4.31055 43.4121C4.31055 43.4121 4.52967 43.3733 4.94203 43.3023C11.3549 42.1899 64.2541 33.0048 64.7536 32.9163C65.2885 32.8279 65.445 33.2486 65.3946 33.4818C64.4174 38.4336 62.2821 43.0544 59.2281 46.9956C59.1533 47.0935 58.6564 47.3494 58.6564 47.3494Z" fill="url(#paint1_radial)"/>
<path d="M0.476562 22.0019L14.8388 23.9826L45.1229 18.724L37.5872 15.5586L0.476562 22.0019Z" fill="url(#paint2_linear)"/>
<path d="M46.9543 25.0939C46.5541 22.8747 45.9363 20.7425 45.1224 18.7256L0.0133485 26.5586C-0.0492557 28.7257 0.107255 30.9355 0.506017 33.1574C0.805428 34.8379 1.23549 36.4688 1.78124 38.0368C1.89692 38.3771 2.02757 38.7096 2.15686 39.0446C2.2848 39.2389 2.43995 39.3742 2.64273 39.4707L3.9996 39.2375L47.4415 31.6912C47.5081 29.5243 47.3503 27.3159 46.9543 25.0939Z" fill="url(#paint3_radial)"/>
<path d="M47.4413 31.6914L3.99946 39.2376L2.64258 39.4708C2.77732 39.5365 2.92838 39.5941 3.11755 39.6384L3.99674 39.7616L15.6955 41.4368L64.8712 32.899L47.4413 31.6914Z" fill="url(#paint4_linear)"/>
</g>
<defs>
<radialGradient id="paint0_radial" cx="0" cy="0" r="1" gradientUnits="userSpaceOnUse" gradientTransform="translate(64.1084 23.4352) rotate(-9.84731) scale(63.7192 62.8011)">
<stop stop-color="#6DCFF6"/>
<stop offset="0.4356" stop-color="#4A8ECC"/>
<stop offset="0.8098" stop-color="#3069B3"/>
<stop offset="0.8118" stop-color="#306AB3"/>
<stop offset="0.8809" stop-color="#3F7DC0"/>
<stop offset="0.9379" stop-color="#4789C8"/>
<stop offset="0.9755" stop-color="#4A8ECC"/>
</radialGradient>
<radialGradient id="paint1_radial" cx="0" cy="0" r="1" gradientUnits="userSpaceOnUse" gradientTransform="translate(64.5588 20.4215) rotate(-9.84731) scale(64.32 63.3933)">
<stop offset="0.2147" stop-color="#6DCFF6"/>
<stop offset="0.3865" stop-color="#4A8ECC"/>
<stop offset="0.8466" stop-color="#3069B3"/>
<stop offset="0.8481" stop-color="#306AB3"/>
<stop offset="0.9019" stop-color="#3F7DC0"/>
<stop offset="0.9462" stop-color="#4789C8"/>
<stop offset="0.9755" stop-color="#4A8ECC"/>
</radialGradient>
<linearGradient id="paint2_linear" x1="4.99244" y1="20.8183" x2="43.3351" y2="18.8645" gradientUnits="userSpaceOnUse">
<stop stop-color="#FFE600"/>
<stop offset="1" stop-color="#FFCB05"/>
</linearGradient>
<radialGradient id="paint3_radial" cx="0" cy="0" r="1" gradientUnits="userSpaceOnUse" gradientTransform="translate(47.1836 24.8715) scale(47.5039 46.7765)">
<stop stop-color="#6DCFF6"/>
<stop offset="0.2454" stop-color="#4A8ECC"/>
<stop offset="0.7485" stop-color="#3069B3"/>
<stop offset="0.7511" stop-color="#306AB3"/>
<stop offset="0.8458" stop-color="#3F7DC0"/>
<stop offset="0.924" stop-color="#4789C8"/>
<stop offset="0.9755" stop-color="#4A8ECC"/>
</radialGradient>
<linearGradient id="paint4_linear" x1="10.6522" y1="40.5078" x2="52.0699" y2="32.5158" gradientUnits="userSpaceOnUse">
<stop stop-color="#FFCB05"/>
<stop offset="0.4847" stop-color="#FFE600"/>
<stop offset="0.9755" stop-color="#FFCB05"/>
</linearGradient>
<clipPath id="clip0">
<rect width="190" height="56" fill="white"/>
</clipPath>
</defs>
</svg>
