<svg width="72" height="72" viewBox="0 0 72 72" fill="none" xmlns="http://www.w3.org/2000/svg">
<path d="M40.5 60.75C40.7984 60.75 41.0845 60.6315 41.2955 60.4205C41.5065 60.2095 41.625 59.9234 41.625 59.625V57.375C41.625 57.0766 41.5065 56.7905 41.2955 56.5795C41.0845 56.3685 40.7984 56.25 40.5 56.25C40.2016 56.25 39.9155 56.3685 39.7045 56.5795C39.4935 56.7905 39.375 57.0766 39.375 57.375V59.625C39.375 59.9234 39.4935 60.2095 39.7045 60.4205C39.9155 60.6315 40.2016 60.75 40.5 60.75Z" fill="#707F9B"/>
<path d="M48.375 60.75H59.625C59.9234 60.75 60.2095 60.6315 60.4205 60.4205C60.6315 60.2095 60.75 59.9234 60.75 59.625V48.375C60.75 48.0766 60.6315 47.7905 60.4205 47.5795C60.2095 47.3685 59.9234 47.25 59.625 47.25H48.375C48.0766 47.25 47.7905 47.3685 47.5795 47.5795C47.3685 47.7905 47.25 48.0766 47.25 48.375V59.625C47.25 59.9234 47.3685 60.2095 47.5795 60.4205C47.7905 60.6315 48.0766 60.75 48.375 60.75ZM58.5 58.5H55.125V49.5H58.5V58.5ZM49.5 49.5H52.875V58.5H49.5V49.5Z" fill="#707F9B"/>
<path d="M51.75 20.25H40.5C40.2016 20.25 39.9155 20.3685 39.7045 20.5795C39.4935 20.7905 39.375 21.0766 39.375 21.375V32.625C39.375 32.9234 39.4935 33.2095 39.7045 33.4205C39.9155 33.6315 40.2016 33.75 40.5 33.75H51.75C52.0484 33.75 52.3345 33.6315 52.5455 33.4205C52.7565 33.2095 52.875 32.9234 52.875 32.625V21.375C52.875 21.0766 52.7565 20.7905 52.5455 20.5795C52.3345 20.3685 52.0484 20.25 51.75 20.25ZM41.625 22.5H45V31.5H41.625V22.5ZM50.625 31.5H47.25V22.5H50.625V31.5Z" fill="#707F9B"/>
<path d="M68.625 65.25H64.125V42.75H65.25C65.5484 42.75 65.8345 42.6315 66.0455 42.4205C66.2565 42.2095 66.375 41.9234 66.375 41.625V38.25C66.375 37.9516 66.2565 37.6655 66.0455 37.4545C65.8345 37.2435 65.5484 37.125 65.25 37.125H64.125V18H67.5C67.7001 17.9999 67.8965 17.9464 68.069 17.8451C68.2415 17.7438 68.3839 17.5983 68.4814 17.4237C68.579 17.249 68.6282 17.0515 68.6241 16.8515C68.6199 16.6515 68.5624 16.4562 68.4577 16.2858L59.4577 1.66078C59.3573 1.49694 59.2165 1.36163 59.0488 1.26782C58.8811 1.174 58.6921 1.12482 58.5 1.125H33.75C33.5579 1.12482 33.3689 1.174 33.2012 1.26782C33.0335 1.36163 32.8927 1.49694 32.7923 1.66078L26.5331 11.8322C25.5631 10.8353 24.259 10.2319 22.8713 10.1377C22.144 8.59709 20.9368 7.33389 19.4308 6.53758C17.9248 5.74128 16.2012 5.45482 14.5185 5.72118C12.8359 5.98754 11.285 6.79237 10.0986 8.01489C8.91213 9.23741 8.15413 10.8117 7.93828 12.5016C6.86802 12.7609 5.93 13.4037 5.30186 14.3082C4.67372 15.2127 4.39906 16.3162 4.52989 17.4096C4.66072 18.5031 5.18796 19.5106 6.01177 20.2414C6.83558 20.9721 7.89876 21.3755 9 21.375H22.5C23.5947 21.3753 24.6657 21.0561 25.5817 20.4566C26.4977 19.8571 27.2188 19.0033 27.6567 18H28.125V37.125H27C26.7016 37.125 26.4155 37.2435 26.2045 37.4545C25.9935 37.6655 25.875 37.9516 25.875 38.25V41.625C25.875 41.9234 25.9935 42.2095 26.2045 42.4205C26.4155 42.6315 26.7016 42.75 27 42.75H28.125V65.25H21.375V58.3116C22.5703 57.9066 23.6334 56.8533 24.4378 55.2417C25.3645 53.3897 25.875 50.9498 25.875 48.375C25.875 45.8002 25.3645 43.3603 24.4378 41.5083C23.3873 39.4073 21.9009 38.25 20.25 38.25C18.5991 38.25 17.1127 39.4073 16.0622 41.5083C15.1355 43.3603 14.625 45.8002 14.625 48.375C14.625 50.9498 15.1355 53.3897 16.0622 55.2417C16.8666 56.8533 17.9297 57.9066 19.125 58.3116V60.0553L16.2534 58.6181C15.9864 58.4846 15.6773 58.4626 15.394 58.557C15.1108 58.6515 14.8766 58.8545 14.7431 59.1216C14.6096 59.3886 14.5876 59.6977 14.682 59.981C14.7765 60.2642 14.9795 60.4984 15.2466 60.6319L19.125 62.5697V65.25H10.125V60.6361C11.4908 60.3573 12.7044 59.5813 13.5306 58.4586C14.3568 57.3358 14.7366 55.9463 14.5965 54.5594C14.4564 53.1725 13.8063 51.887 12.7723 50.9522C11.7383 50.0173 10.394 49.4997 9 49.4997C7.60604 49.4997 6.26173 50.0173 5.2277 50.9522C4.19367 51.887 3.54359 53.1725 3.40348 54.5594C3.26338 55.9463 3.64323 57.3358 4.4694 58.4586C5.29557 59.5813 6.5092 60.3573 7.875 60.6361V65.25H3.375C3.07663 65.25 2.79048 65.3685 2.5795 65.5795C2.36853 65.7905 2.25 66.0766 2.25 66.375V69.75C2.25 70.0484 2.36853 70.3345 2.5795 70.5455C2.79048 70.7565 3.07663 70.875 3.375 70.875H68.625C68.9234 70.875 69.2095 70.7565 69.4205 70.5455C69.6315 70.3345 69.75 70.0484 69.75 69.75V66.375C69.75 66.0766 69.6315 65.7905 69.4205 65.5795C69.2095 65.3685 68.9234 65.25 68.625 65.25ZM23.7684 17.4234C23.8659 17.5982 24.0082 17.7439 24.1808 17.8452C24.3534 17.9466 24.5499 18 24.75 18H25.0158C24.6991 18.3539 24.3114 18.637 23.8779 18.8308C23.4444 19.0247 22.9749 19.1249 22.5 19.125H9C8.40326 19.125 7.83097 18.8879 7.40901 18.466C6.98705 18.044 6.75 17.4717 6.75 16.875C6.75 16.2783 6.98705 15.706 7.40901 15.284C7.83097 14.8621 8.40326 14.625 9 14.625C9.29837 14.625 9.58452 14.5065 9.7955 14.2955C10.0065 14.0845 10.125 13.7984 10.125 13.5C10.1249 12.1717 10.5949 10.8862 11.4517 9.87113C12.3085 8.85609 13.4969 8.17703 14.8064 7.9542C16.1159 7.73138 17.462 7.97916 18.6063 8.65368C19.7507 9.3282 20.6194 10.3859 21.0586 11.6395C21.1409 11.8738 21.2983 12.0743 21.5063 12.2099C21.7144 12.3454 21.9614 12.4084 22.2089 12.3891C22.3242 12.3792 22.417 12.375 22.5 12.375C23.0499 12.3763 23.5912 12.5116 24.0771 12.7691C24.563 13.0266 24.9788 13.3986 25.2886 13.853L23.7923 16.2858C23.6872 16.456 23.6296 16.6513 23.6254 16.8514C23.6212 17.0514 23.6706 17.2489 23.7684 17.4234ZM26.7638 15.75L27.5484 14.4731C27.5516 14.4686 27.5544 14.4639 27.5569 14.4591L34.3786 3.375H57.8714L65.4862 15.75H26.7638ZM61.875 18V37.125H30.375V18H61.875ZM28.125 39.375H64.125V40.5H28.125V39.375ZM43.875 47.25H32.625C32.3266 47.25 32.0405 47.3685 31.8295 47.5795C31.6185 47.7905 31.5 48.0766 31.5 48.375V65.25H30.375V42.75H61.875V65.25H45V48.375C45 48.0766 44.8815 47.7905 44.6705 47.5795C44.4595 47.3685 44.1734 47.25 43.875 47.25ZM42.75 49.5V65.25H33.75V49.5H42.75ZM16.875 48.375C16.875 43.868 18.6567 40.5 20.25 40.5C21.8433 40.5 23.625 43.868 23.625 48.375C23.625 51.8259 22.5802 54.6075 21.375 55.7227V49.5C21.375 49.2016 21.2565 48.9155 21.0455 48.7045C20.8345 48.4935 20.5484 48.375 20.25 48.375C19.9516 48.375 19.6655 48.4935 19.4545 48.7045C19.2435 48.9155 19.125 49.2016 19.125 49.5V55.7227C17.9198 54.6075 16.875 51.8259 16.875 48.375ZM5.625 55.125C5.62481 54.5062 5.79474 53.8993 6.11622 53.3705C6.4377 52.8418 6.89835 52.4117 7.44781 52.1271C7.99728 51.8425 8.61441 51.7144 9.23174 51.7569C9.84907 51.7994 10.4428 52.0108 10.9481 52.368C11.4534 52.7252 11.8508 53.2144 12.0968 53.7822C12.3428 54.35 12.428 54.9744 12.343 55.5874C12.2581 56.2003 12.0062 56.7781 11.615 57.2575C11.2239 57.737 10.7084 58.0997 10.125 58.3059V56.25C10.125 55.9516 10.0065 55.6655 9.7955 55.4545C9.58452 55.2435 9.29837 55.125 9 55.125C8.70163 55.125 8.41548 55.2435 8.2045 55.4545C7.99353 55.6655 7.875 55.9516 7.875 56.25V58.3059C7.21751 58.0728 6.64827 57.6419 6.24542 57.0724C5.84257 56.5028 5.62585 55.8226 5.625 55.125ZM67.5 68.625H4.5V67.5H67.5V68.625Z" fill="#707F9B"/>
</svg>
