<svg width="68" height="68" viewBox="0 0 68 68" fill="none" xmlns="http://www.w3.org/2000/svg">
<path d="M52.0625 12.75H43.5625V19.125H52.0625V12.75ZM49.9375 17H45.6875V14.875H49.9375V17Z" fill="#707F9B"/>
<path d="M66.9376 44.6253L62.4963 22.3128H58.4376V15.7561L60.8314 17.4657C61.3754 17.8567 62.0172 18.0628 62.6865 18.0628C63.714 18.0628 64.684 17.5634 65.2812 16.7272C65.7763 16.0345 65.9718 15.1898 65.8315 14.3494C65.6902 13.5079 65.2312 12.7737 64.5395 12.2828L49.6635 1.65567C48.5755 0.880047 47.0455 0.880047 45.9607 1.6578L31.0878 12.2807C30.394 12.7737 29.935 13.5089 29.7937 14.3494C29.6534 15.1898 29.8478 16.0345 30.3451 16.7294C31.3311 18.1064 33.4125 18.4527 34.7906 17.4678L37.1876 15.755V22.3128H26.9759L25.4958 20.9974C24.326 19.954 22.4231 19.9562 21.2575 20.9953L2.1336 37.9932C1.4961 38.5584 1.11785 39.3383 1.06791 40.1883C1.01903 41.0394 1.30272 41.8575 1.86691 42.4918C2.47147 43.1739 3.3406 43.5649 4.2501 43.5649C5.03103 43.5649 5.78328 43.278 6.36872 42.7574L7.4376 41.8075V66.9378H64.8126V52.0628H66.9376V44.6253ZM60.7538 24.4378L64.8126 44.7305V45.6878H39.3126V41.8075L40.3815 42.7574C41.6458 43.8826 43.7592 43.7562 44.8822 42.4939C45.4475 41.8575 45.7312 41.0394 45.6812 40.1883C45.6313 39.3372 45.253 38.5584 44.6177 37.9953L40.1243 34.0003H58.4376V24.4378H60.7538ZM49.9376 31.8753H45.6876V23.3753H49.9376V31.8753ZM33.5549 15.7391C33.0938 16.0674 32.4 15.9495 32.0727 15.4937C31.907 15.262 31.8422 14.9805 31.8889 14.7C31.9367 14.4152 32.0855 14.1783 32.3203 14.0104L47.1953 3.38648C47.5587 3.12723 48.0676 3.12936 48.4288 3.38542L63.3049 14.0136C63.5344 14.1762 63.6874 14.4205 63.7342 14.7C63.7809 14.9805 63.7161 15.261 63.5514 15.4915C63.2231 15.9527 62.5325 16.0717 62.0671 15.738L47.8126 5.55611L33.5549 15.7391ZM47.8126 8.16667L56.3126 14.2389V31.8753H52.0626V21.2503H43.5626V31.8753H39.3126V14.2378L47.8126 8.16667ZM37.1876 24.4378V31.3897L29.3665 24.4378H37.1876ZM4.95666 41.17C4.53272 41.5472 3.83253 41.5037 3.45535 41.0808C3.26728 40.8704 3.17272 40.5974 3.18972 40.3126C3.20672 40.0289 3.3321 39.7697 3.5446 39.5816L22.6696 22.5816C22.8651 22.4084 23.1148 22.3128 23.3751 22.3128C23.6354 22.3128 23.8862 22.4084 24.0827 22.5837L43.2077 39.5837C43.4192 39.7718 43.5445 40.03 43.5605 40.3137C43.5775 40.6016 43.485 40.8672 43.2938 41.084C42.9198 41.5047 42.2164 41.5472 41.7935 41.1711L23.3751 24.798L4.95666 41.17ZM23.3751 27.6412L37.1876 39.9184V43.5628H28.6876V35.0628H18.0626V43.5628H9.5626V39.9184L23.3751 27.6412ZM26.5626 43.5628H20.1876V37.1878H26.5626V43.5628ZM9.5626 45.6878H37.1876V64.8128H24.4376V52.0628H11.6876V64.8128H9.5626V45.6878ZM22.3126 64.8128H13.8126V54.1878H22.3126V64.8128ZM62.6876 64.8128H39.3126V52.0628H62.6876V64.8128ZM39.3126 49.9378V47.8128H64.8126V49.9378H39.3126Z" fill="#707F9B"/>
<path d="M35.0625 47.8125H26.5625V56.3125H35.0625V47.8125ZM32.9375 54.1875H28.6875V49.9375H32.9375V54.1875Z" fill="#707F9B"/>
<path d="M49.9375 62.6875V54.1875H41.4375V62.6875H49.9375ZM43.5625 56.3125H47.8125V60.5625H43.5625V56.3125Z" fill="#707F9B"/>
<path d="M60.5625 54.1875H52.0625V62.6875H60.5625V54.1875ZM58.4375 60.5625H54.1875V56.3125H58.4375V60.5625Z" fill="#707F9B"/>
</svg>
