<svg width="62" height="62" viewBox="0 0 62 62" fill="none" xmlns="http://www.w3.org/2000/svg">
<path d="M60.0625 59.0938H56.1875V52.2168C58.9327 51.6768 61.0312 48.8855 61.0312 45.5312C61.0312 41.7919 58.4241 38.75 55.2188 38.75C52.0134 38.75 49.4062 41.7919 49.4062 45.5312C49.4062 48.8855 51.5048 51.6768 54.25 52.2168V55.3459L52.8502 54.4123C52.6363 54.2697 52.3745 54.2179 52.1224 54.2683C51.8703 54.3187 51.6486 54.4672 51.506 54.6811C51.3634 54.895 51.3116 55.1568 51.362 55.4088C51.4125 55.6609 51.561 55.8826 51.7748 56.0252L54.25 57.6745V59.0938H48.4375V5.8125C48.4375 5.55557 48.3354 5.30917 48.1538 5.12749C47.9721 4.94581 47.7257 4.84375 47.4688 4.84375H40.6875V1.9375C40.6875 1.68057 40.5854 1.43417 40.4038 1.25249C40.2221 1.07081 39.9757 0.96875 39.7188 0.96875H22.2812C22.0243 0.96875 21.7779 1.07081 21.5962 1.25249C21.4146 1.43417 21.3125 1.68057 21.3125 1.9375V4.84375H14.5312C14.2743 4.84375 14.0279 4.94581 13.8462 5.12749C13.6646 5.30917 13.5625 5.55557 13.5625 5.8125V59.0938H7.75V52.2168C10.4952 51.6768 12.5938 48.8855 12.5938 45.5312C12.5938 41.7919 9.9866 38.75 6.78125 38.75C3.5759 38.75 0.96875 41.7919 0.96875 45.5312C0.96875 48.8855 3.0673 51.6768 5.8125 52.2168V55.3459L4.41266 54.4123C4.30675 54.3417 4.18797 54.2926 4.0631 54.2679C3.93823 54.2432 3.80972 54.2433 3.68491 54.2683C3.56009 54.2933 3.44142 54.3426 3.33566 54.4134C3.2299 54.4842 3.13912 54.5752 3.06852 54.6811C2.99791 54.787 2.94886 54.9058 2.92415 55.0307C2.89945 55.1555 2.89959 55.284 2.92455 55.4088C2.94951 55.5337 2.99881 55.6523 3.06964 55.7581C3.14047 55.8639 3.23143 55.9546 3.33734 56.0252L5.8125 57.6745V59.0938H1.9375C1.68057 59.0938 1.43417 59.1958 1.25249 59.3775C1.07081 59.5592 0.96875 59.8056 0.96875 60.0625C0.96875 60.3194 1.07081 60.5658 1.25249 60.7475C1.43417 60.9292 1.68057 61.0312 1.9375 61.0312H60.0625C60.3194 61.0312 60.5658 60.9292 60.7475 60.7475C60.9292 60.5658 61.0312 60.3194 61.0312 60.0625C61.0312 59.8056 60.9292 59.5592 60.7475 59.3775C60.5658 59.1958 60.3194 59.0938 60.0625 59.0938ZM6.78125 44.5625C6.52432 44.5625 6.27792 44.6646 6.09624 44.8462C5.91456 45.0279 5.8125 45.2743 5.8125 45.5312V50.2212C4.14262 49.6823 2.90625 47.7836 2.90625 45.5312C2.90625 42.8599 4.64395 40.6875 6.78125 40.6875C8.91855 40.6875 10.6562 42.8599 10.6562 45.5312C10.6562 47.7836 9.41988 49.6823 7.75 50.2212V45.5312C7.75 45.2743 7.64794 45.0279 7.46626 44.8462C7.28458 44.6646 7.03818 44.5625 6.78125 44.5625ZM23.25 2.90625H38.75V4.84375H23.25V2.90625ZM30.0312 59.0938H29.0625V51.3438H30.0312V59.0938ZM32.9375 59.0938H31.9688V51.3438H32.9375V59.0938ZM46.5 59.0938H34.875V50.375C34.875 50.1181 34.7729 49.8717 34.5913 49.69C34.4096 49.5083 34.1632 49.4062 33.9062 49.4062H28.0938C27.8368 49.4062 27.5904 49.5083 27.4087 49.69C27.2271 49.8717 27.125 50.1181 27.125 50.375V59.0938H15.5V12.5938H46.5V59.0938ZM46.5 10.6562H15.5V6.78125H46.5V10.6562ZM55.2188 44.5625C54.9618 44.5625 54.7154 44.6646 54.5337 44.8462C54.3521 45.0279 54.25 45.2743 54.25 45.5312V50.2212C52.5801 49.6823 51.3438 47.7836 51.3438 45.5312C51.3438 42.8599 53.0814 40.6875 55.2188 40.6875C57.3561 40.6875 59.0938 42.8599 59.0938 45.5312C59.0938 47.7836 57.8574 49.6823 56.1875 50.2212V45.5312C56.1875 45.2743 56.0854 45.0279 55.9038 44.8462C55.7221 44.6646 55.4757 44.5625 55.2188 44.5625Z" fill="#707F9B"/>
<path d="M33.9062 39.7188H28.0938C27.8368 39.7188 27.5904 39.8208 27.4087 40.0025C27.2271 40.1842 27.125 40.4306 27.125 40.6875V46.5C27.125 46.7569 27.2271 47.0033 27.4087 47.185C27.5904 47.3667 27.8368 47.4688 28.0938 47.4688H33.9062C34.1632 47.4688 34.4096 47.3667 34.5913 47.185C34.7729 47.0033 34.875 46.7569 34.875 46.5V40.6875C34.875 40.4306 34.7729 40.1842 34.5913 40.0025C34.4096 39.8208 34.1632 39.7188 33.9062 39.7188ZM32.9375 45.5312H29.0625V41.6562H32.9375V45.5312Z" fill="#707F9B"/>
<path d="M24.2188 39.7188H18.4062C18.1493 39.7188 17.9029 39.8208 17.7212 40.0025C17.5396 40.1842 17.4375 40.4306 17.4375 40.6875V46.5C17.4375 46.7569 17.5396 47.0033 17.7212 47.185C17.9029 47.3667 18.1493 47.4688 18.4062 47.4688H24.2188C24.4757 47.4688 24.7221 47.3667 24.9038 47.185C25.0854 47.0033 25.1875 46.7569 25.1875 46.5V40.6875C25.1875 40.4306 25.0854 40.1842 24.9038 40.0025C24.7221 39.8208 24.4757 39.7188 24.2188 39.7188ZM23.25 45.5312H19.375V41.6562H23.25V45.5312Z" fill="#707F9B"/>
<path d="M43.5938 39.7188H37.7812C37.5243 39.7188 37.2779 39.8208 37.0962 40.0025C36.9146 40.1842 36.8125 40.4306 36.8125 40.6875V46.5C36.8125 46.7569 36.9146 47.0033 37.0962 47.185C37.2779 47.3667 37.5243 47.4688 37.7812 47.4688H43.5938C43.8507 47.4688 44.0971 47.3667 44.2788 47.185C44.4604 47.0033 44.5625 46.7569 44.5625 46.5V40.6875C44.5625 40.4306 44.4604 40.1842 44.2788 40.0025C44.0971 39.8208 43.8507 39.7188 43.5938 39.7188ZM42.625 45.5312H38.75V41.6562H42.625V45.5312Z" fill="#707F9B"/>
<path d="M24.2188 49.4062H18.4062C18.1493 49.4062 17.9029 49.5083 17.7212 49.69C17.5396 49.8717 17.4375 50.1181 17.4375 50.375V56.1875C17.4375 56.4444 17.5396 56.6908 17.7212 56.8725C17.9029 57.0542 18.1493 57.1562 18.4062 57.1562H24.2188C24.4757 57.1562 24.7221 57.0542 24.9038 56.8725C25.0854 56.6908 25.1875 56.4444 25.1875 56.1875V50.375C25.1875 50.1181 25.0854 49.8717 24.9038 49.69C24.7221 49.5083 24.4757 49.4062 24.2188 49.4062ZM23.25 55.2188H19.375V51.3438H23.25V55.2188Z" fill="#707F9B"/>
<path d="M43.5938 49.4062H37.7812C37.5243 49.4062 37.2779 49.5083 37.0962 49.69C36.9146 49.8717 36.8125 50.1181 36.8125 50.375V56.1875C36.8125 56.4444 36.9146 56.6908 37.0962 56.8725C37.2779 57.0542 37.5243 57.1562 37.7812 57.1562H43.5938C43.8507 57.1562 44.0971 57.0542 44.2788 56.8725C44.4604 56.6908 44.5625 56.4444 44.5625 56.1875V50.375C44.5625 50.1181 44.4604 49.8717 44.2788 49.69C44.0971 49.5083 43.8507 49.4062 43.5938 49.4062ZM42.625 55.2188H38.75V51.3438H42.625V55.2188Z" fill="#707F9B"/>
<path d="M33.9062 31H28.0938C27.8368 31 27.5904 31.1021 27.4087 31.2837C27.2271 31.4654 27.125 31.7118 27.125 31.9688V37.7812C27.125 38.0382 27.2271 38.2846 27.4087 38.4663C27.5904 38.6479 27.8368 38.75 28.0938 38.75H33.9062C34.1632 38.75 34.4096 38.6479 34.5913 38.4663C34.7729 38.2846 34.875 38.0382 34.875 37.7812V31.9688C34.875 31.7118 34.7729 31.4654 34.5913 31.2837C34.4096 31.1021 34.1632 31 33.9062 31ZM32.9375 36.8125H29.0625V32.9375H32.9375V36.8125Z" fill="#707F9B"/>
<path d="M24.2188 31H18.4062C18.1493 31 17.9029 31.1021 17.7212 31.2837C17.5396 31.4654 17.4375 31.7118 17.4375 31.9688V37.7812C17.4375 38.0382 17.5396 38.2846 17.7212 38.4663C17.9029 38.6479 18.1493 38.75 18.4062 38.75H24.2188C24.4757 38.75 24.7221 38.6479 24.9038 38.4663C25.0854 38.2846 25.1875 38.0382 25.1875 37.7812V31.9688C25.1875 31.7118 25.0854 31.4654 24.9038 31.2837C24.7221 31.1021 24.4757 31 24.2188 31ZM23.25 36.8125H19.375V32.9375H23.25V36.8125Z" fill="#707F9B"/>
<path d="M43.5938 31H37.7812C37.5243 31 37.2779 31.1021 37.0962 31.2837C36.9146 31.4654 36.8125 31.7118 36.8125 31.9688V37.7812C36.8125 38.0382 36.9146 38.2846 37.0962 38.4663C37.2779 38.6479 37.5243 38.75 37.7812 38.75H43.5938C43.8507 38.75 44.0971 38.6479 44.2788 38.4663C44.4604 38.2846 44.5625 38.0382 44.5625 37.7812V31.9688C44.5625 31.7118 44.4604 31.4654 44.2788 31.2837C44.0971 31.1021 43.8507 31 43.5938 31ZM42.625 36.8125H38.75V32.9375H42.625V36.8125Z" fill="#707F9B"/>
<path d="M33.9062 22.2812H28.0938C27.8368 22.2812 27.5904 22.3833 27.4087 22.565C27.2271 22.7467 27.125 22.9931 27.125 23.25V29.0625C27.125 29.3194 27.2271 29.5658 27.4087 29.7475C27.5904 29.9292 27.8368 30.0312 28.0938 30.0312H33.9062C34.1632 30.0312 34.4096 29.9292 34.5913 29.7475C34.7729 29.5658 34.875 29.3194 34.875 29.0625V23.25C34.875 22.9931 34.7729 22.7467 34.5913 22.565C34.4096 22.3833 34.1632 22.2812 33.9062 22.2812ZM32.9375 28.0938H29.0625V24.2188H32.9375V28.0938Z" fill="#707F9B"/>
<path d="M24.2188 22.2812H18.4062C18.1493 22.2812 17.9029 22.3833 17.7212 22.565C17.5396 22.7467 17.4375 22.9931 17.4375 23.25V29.0625C17.4375 29.3194 17.5396 29.5658 17.7212 29.7475C17.9029 29.9292 18.1493 30.0312 18.4062 30.0312H24.2188C24.4757 30.0312 24.7221 29.9292 24.9038 29.7475C25.0854 29.5658 25.1875 29.3194 25.1875 29.0625V23.25C25.1875 22.9931 25.0854 22.7467 24.9038 22.565C24.7221 22.3833 24.4757 22.2812 24.2188 22.2812ZM23.25 28.0938H19.375V24.2188H23.25V28.0938Z" fill="#707F9B"/>
<path d="M43.5938 22.2812H37.7812C37.5243 22.2812 37.2779 22.3833 37.0962 22.565C36.9146 22.7467 36.8125 22.9931 36.8125 23.25V29.0625C36.8125 29.3194 36.9146 29.5658 37.0962 29.7475C37.2779 29.9292 37.5243 30.0312 37.7812 30.0312H43.5938C43.8507 30.0312 44.0971 29.9292 44.2788 29.7475C44.4604 29.5658 44.5625 29.3194 44.5625 29.0625V23.25C44.5625 22.9931 44.4604 22.7467 44.2788 22.565C44.0971 22.3833 43.8507 22.2812 43.5938 22.2812ZM42.625 28.0938H38.75V24.2188H42.625V28.0938Z" fill="#707F9B"/>
<path d="M33.9062 13.5625H28.0938C27.8368 13.5625 27.5904 13.6646 27.4087 13.8462C27.2271 14.0279 27.125 14.2743 27.125 14.5312V20.3438C27.125 20.6007 27.2271 20.8471 27.4087 21.0288C27.5904 21.2104 27.8368 21.3125 28.0938 21.3125H33.9062C34.1632 21.3125 34.4096 21.2104 34.5913 21.0288C34.7729 20.8471 34.875 20.6007 34.875 20.3438V14.5312C34.875 14.2743 34.7729 14.0279 34.5913 13.8462C34.4096 13.6646 34.1632 13.5625 33.9062 13.5625ZM32.9375 19.375H29.0625V15.5H32.9375V19.375Z" fill="#707F9B"/>
<path d="M24.2188 13.5625H18.4062C18.1493 13.5625 17.9029 13.6646 17.7212 13.8462C17.5396 14.0279 17.4375 14.2743 17.4375 14.5312V20.3438C17.4375 20.6007 17.5396 20.8471 17.7212 21.0288C17.9029 21.2104 18.1493 21.3125 18.4062 21.3125H24.2188C24.4757 21.3125 24.7221 21.2104 24.9038 21.0288C25.0854 20.8471 25.1875 20.6007 25.1875 20.3438V14.5312C25.1875 14.2743 25.0854 14.0279 24.9038 13.8462C24.7221 13.6646 24.4757 13.5625 24.2188 13.5625ZM23.25 19.375H19.375V15.5H23.25V19.375Z" fill="#707F9B"/>
<path d="M43.5938 13.5625H37.7812C37.5243 13.5625 37.2779 13.6646 37.0962 13.8462C36.9146 14.0279 36.8125 14.2743 36.8125 14.5312V20.3438C36.8125 20.6007 36.9146 20.8471 37.0962 21.0288C37.2779 21.2104 37.5243 21.3125 37.7812 21.3125H43.5938C43.8507 21.3125 44.0971 21.2104 44.2788 21.0288C44.4604 20.8471 44.5625 20.6007 44.5625 20.3438V14.5312C44.5625 14.2743 44.4604 14.0279 44.2788 13.8462C44.0971 13.6646 43.8507 13.5625 43.5938 13.5625ZM42.625 19.375H38.75V15.5H42.625V19.375Z" fill="#707F9B"/>
</svg>
