<svg width="66" height="66" viewBox="0 0 66 66" fill="none" xmlns="http://www.w3.org/2000/svg">
<g clip-path="url(#clip0)">
<path d="M38.5 24.9971L62.7275 29.8096C64.68 30.2221 66 31.8721 66 33.8246V61.8746C66 64.1571 64.1575 65.9996 61.875 65.9996H37.125C37.895 65.9996 38.5 65.3946 38.5 64.6246V63.2496H61.875C62.6175 63.2496 63.25 62.6446 63.25 61.8746V33.8246C63.25 33.1921 62.81 32.6146 62.1775 32.4771L38.5 27.8021V24.9971Z" fill="#707F9B"/>
<path d="M53.625 38.5C54.395 38.5 55 39.105 55 39.875C55 40.645 54.395 41.25 53.625 41.25H48.125C47.355 41.25 46.75 40.645 46.75 39.875C46.75 39.105 47.355 38.5 48.125 38.5H53.625Z" fill="#707F9B"/>
<path d="M53.625 46.75C54.395 46.75 55 47.355 55 48.125C55 48.895 54.395 49.5 53.625 49.5H48.125C47.355 49.5 46.75 48.895 46.75 48.125C46.75 47.355 47.355 46.75 48.125 46.75H53.625Z" fill="#707F9B"/>
<path d="M53.625 55C54.395 55 55 55.605 55 56.375C55 57.145 54.395 57.75 53.625 57.75H48.125C47.355 57.75 46.75 57.145 46.75 56.375C46.75 55.605 47.355 55 48.125 55H53.625Z" fill="#707F9B"/>
<path d="M38.5 64.6246C38.5 65.3946 37.895 65.9996 37.125 65.9996C36.355 65.9996 35.75 65.3946 35.75 64.6246V63.2496V26.1246C35.75 25.7121 35.9425 25.3271 36.245 25.0521C36.575 24.8046 36.9875 24.6946 37.4 24.7771L38.5 24.9971V27.8021V63.2496V64.6246Z" fill="#707F9B"/>
<path d="M35.75 63.25V64.625C35.75 65.395 36.355 66 37.125 66H26.125C26.895 66 27.5 65.395 27.5 64.625V63.25H35.75Z" fill="#707F9B"/>
<path d="M28.875 13.75C29.645 13.75 30.25 14.355 30.25 15.125C30.25 15.895 29.645 16.5 28.875 16.5H23.375C22.605 16.5 22 15.895 22 15.125C22 14.355 22.605 13.75 23.375 13.75H28.875Z" fill="#707F9B"/>
<path d="M30.25 23.375C30.25 24.145 29.645 24.75 28.875 24.75H23.375C22.605 24.75 22 24.145 22 23.375C22 22.605 22.605 22 23.375 22H28.875C29.645 22 30.25 22.605 30.25 23.375Z" fill="#707F9B"/>
<path d="M28.875 30.25C29.645 30.25 30.25 30.855 30.25 31.625C30.25 32.395 29.645 33 28.875 33H23.375C22.605 33 22 32.395 22 31.625C22 30.855 22.605 30.25 23.375 30.25H28.875Z" fill="#707F9B"/>
<path d="M28.875 38.5C29.645 38.5 30.25 39.105 30.25 39.875C30.25 40.645 29.645 41.25 28.875 41.25H23.375C22.605 41.25 22 40.645 22 39.875C22 39.105 22.605 38.5 23.375 38.5H28.875Z" fill="#707F9B"/>
<path d="M16.5 39.875C16.5 40.645 15.895 41.25 15.125 41.25H9.625C8.855 41.25 8.25 40.645 8.25 39.875C8.25 39.105 8.855 38.5 9.625 38.5H15.125C15.895 38.5 16.5 39.105 16.5 39.875Z" fill="#707F9B"/>
<path d="M15.125 13.75C15.895 13.75 16.5 14.355 16.5 15.125C16.5 15.895 15.895 16.5 15.125 16.5H9.625C8.855 16.5 8.25 15.895 8.25 15.125C8.25 14.355 8.855 13.75 9.625 13.75H15.125Z" fill="#707F9B"/>
<path d="M15.125 22C15.895 22 16.5 22.605 16.5 23.375C16.5 24.145 15.895 24.75 15.125 24.75H9.625C8.855 24.75 8.25 24.145 8.25 23.375C8.25 22.605 8.855 22 9.625 22H15.125Z" fill="#707F9B"/>
<path d="M15.125 30.25C15.895 30.25 16.5 30.855 16.5 31.625C16.5 32.395 15.895 33 15.125 33H9.625C8.855 33 8.25 32.395 8.25 31.625C8.25 30.855 8.855 30.25 9.625 30.25H15.125Z" fill="#707F9B"/>
<path d="M24.75 50.875C24.75 50.105 24.1175 49.5 23.375 49.5H15.125C14.355 49.5 13.75 50.105 13.75 50.875V63.25H11V50.875C11 48.5925 12.8425 46.75 15.125 46.75H23.375C25.6575 46.75 27.5 48.5925 27.5 50.875V63.25H24.75V50.875Z" fill="#707F9B"/>
<path d="M13.75 63.25H24.75H27.5V64.625C27.5 65.395 26.895 66 26.125 66H12.375C11.605 66 11 65.395 11 64.625V63.25H13.75Z" fill="#707F9B"/>
<path d="M4.8125 0.549633L35.035 5.14213C37.0425 5.47213 38.5 7.17713 38.5 9.21213V24.9971L37.4 24.7771C36.9875 24.6946 36.575 24.8046 36.245 25.0521C35.9425 25.3271 35.75 25.7121 35.75 26.1246V9.21213C35.75 8.52463 35.255 7.94713 34.595 7.83713L4.3725 3.27213C4.29 3.24463 4.2075 3.24463 4.125 3.24463C3.795 3.24463 3.4925 3.35463 3.245 3.57463C2.915 3.84963 2.75 4.20713 2.75 4.61963V61.8746C2.75 62.6446 3.3825 63.2496 4.125 63.2496H11V64.6246C11 65.3946 11.605 65.9996 12.375 65.9996H4.125C1.8425 65.9996 0 64.1571 0 61.8746V4.61963C0 3.40963 0.5225 2.25463 1.4575 1.48463C2.3925 0.687134 3.6025 0.357133 4.8125 0.549633Z" fill="#707F9B"/>
</g>
<defs>
<clipPath id="clip0">
<rect width="66" height="66" fill="white"/>
</clipPath>
</defs>
</svg>
