<svg width="66" height="66" viewBox="0 0 66 66" fill="none" xmlns="http://www.w3.org/2000/svg">
<g clip-path="url(#clip0)">
<path d="M65.6024 12.0677L60.7916 8.57013V3.96223C60.7916 3.07399 60.0685 2.3509 59.1803 2.3509H56.6143C55.7255 2.3509 55.0029 3.07399 55.0029 3.96223V4.36154L51.9515 2.14344C51.3301 1.69177 50.393 1.69177 49.7722 2.14344L36.1212 12.0677C35.6891 12.3819 35.5935 12.9862 35.9077 13.4182C36.097 13.6785 36.3916 13.817 36.6902 13.817C36.8876 13.817 37.0865 13.7566 37.2582 13.6317L38.7809 12.5249V24.2851H37.3695C36.8352 24.2851 36.4027 24.7176 36.4027 25.2519C36.4027 25.7857 36.8352 26.2187 37.3695 26.2187H55.6882C56.2225 26.2187 56.655 25.7857 56.655 25.2519C56.655 24.7176 56.2225 24.2851 55.6882 24.2851H54.9314V15.0587C54.9314 14.2601 54.2819 13.6101 53.4827 13.6101H48.2404C47.4418 13.6101 46.7922 14.2601 46.7922 15.0587V24.2851H40.7145L40.714 11.2792C40.7205 11.2122 40.793 11.0692 40.8373 11.0299L50.8618 3.74168L60.8813 11.0259C60.9316 11.0717 61.0031 11.2122 61.0092 11.2711V24.2851H60.3289C59.7951 24.2851 59.3621 24.7176 59.3621 25.2519C59.3621 25.7862 59.7951 26.2187 60.3289 26.2187H64.3542C64.8884 26.2187 65.321 25.7862 65.321 25.2519C65.321 24.7176 64.8884 24.2851 64.3542 24.2851H62.9433V12.5249L64.466 13.6317C64.898 13.9459 65.5022 13.8502 65.8165 13.4182C66.1302 12.9862 66.0345 12.3819 65.6024 12.0677ZM48.7253 15.5437H52.9978V24.2851H48.7253V15.5437ZM58.858 7.16424L56.9365 5.76742V4.2845H58.858V7.16424Z" fill="#707F9B"/>
<path d="M61.8007 43.7445L56.6913 40.0299C56.6908 40.0299 56.6903 40.0294 56.6898 40.0289L54.381 38.3506V30.867C54.381 29.9783 53.6585 29.2557 52.7697 29.2557H48.2736C47.3854 29.2557 46.6623 29.9783 46.6623 30.867V32.7392L41.0539 28.6615C40.4325 28.2098 39.4954 28.2098 38.8746 28.6615L31.5994 33.9507V24.3502L33.6519 25.8427C34.0839 26.1564 34.6881 26.0607 35.0023 25.6292C35.3161 25.1972 35.2204 24.5924 34.7888 24.2782L30.682 21.2932C30.6815 21.2922 30.6805 21.2917 30.6795 21.2912L29.0752 20.1245V14.5221C29.0752 13.6339 28.3526 12.9108 27.4639 12.9108H24.2306C23.3419 12.9108 22.6193 13.6339 22.6193 14.5221V15.431L18.6832 12.5699C18.6449 12.5417 18.6051 12.5155 18.5638 12.4909C18.5583 12.4873 18.5522 12.4848 18.5467 12.4813C18.2682 12.3181 17.9359 12.2285 17.5935 12.2285C17.2526 12.2285 16.9213 12.3176 16.6438 12.4793C16.6368 12.4833 16.6297 12.4868 16.6227 12.4909C16.5819 12.5155 16.5421 12.5417 16.5033 12.5699L4.50703 21.2912C4.50653 21.2917 4.50552 21.2922 4.50452 21.2932L0.398158 24.2787C-0.0333744 24.5929 -0.129047 25.1972 0.184658 25.6292C0.373988 25.8895 0.668559 26.0275 0.967661 26.0275C1.16454 26.0275 1.36344 25.9676 1.53515 25.8427L3.58757 24.3507V38.6437H1.76426C1.23051 38.6437 0.797464 39.0762 0.797464 39.6104C0.797464 40.1442 1.23051 40.5772 1.76426 40.5772H22.4849L18.1283 43.7445C17.6962 44.0587 17.6006 44.6635 17.9148 45.0955C18.2285 45.527 18.8332 45.6227 19.2653 45.3085L22.3187 43.0884V62.171H19.7164C19.1827 62.171 18.7496 62.6035 18.7496 63.1378C18.7496 63.6715 19.1827 64.1046 19.7164 64.1046H60.212C60.7463 64.1046 61.1788 63.6715 61.1788 63.1378C61.1788 62.6035 60.7463 62.171 60.212 62.171H57.6097V56.8008C57.6097 56.267 57.1767 55.834 56.6429 55.834C56.1087 55.834 55.6761 56.267 55.6761 56.8008V62.171H45.5877V47.8418C45.5877 46.9097 44.8294 46.1514 43.8979 46.1514H36.0311C35.099 46.1514 34.3412 46.9097 34.3412 47.8418V62.171H24.2528L24.2523 41.8426C24.2588 41.7757 24.3303 41.6342 24.3752 41.5939L39.9647 30.2597L55.5482 41.5894C55.5986 41.6352 55.6701 41.7757 55.6761 41.8346V52.1596C55.6761 52.6939 56.1087 53.1264 56.6429 53.1264C57.1772 53.1264 57.6097 52.6939 57.6097 52.1596V43.0884L60.6637 45.3085C60.8354 45.4334 61.0343 45.4938 61.2317 45.4938C61.5303 45.4938 61.8254 45.3553 62.0142 45.095C62.3279 44.663 62.2322 44.0587 61.8007 43.7445ZM36.2743 48.085H43.6542V62.171H36.2743V48.085ZM24.5529 14.8449H27.1416V18.7191L24.5529 16.8369V14.8449ZM5.52116 23.105C5.5272 23.0375 5.59971 22.8955 5.64402 22.8557L17.5935 14.1681L29.5379 22.8517C29.5883 22.8975 29.6598 23.038 29.6658 23.0964V35.3561L25.1441 38.6432H22.2009V34.8862C22.2009 34.3525 21.7678 33.9195 21.2341 33.9195C20.7003 33.9195 20.2673 34.3525 20.2673 34.8862V38.6432H14.9197V28.0532H20.2673V29.8594C20.2673 30.3932 20.7003 30.8262 21.2341 30.8262C21.7678 30.8262 22.2009 30.3932 22.2009 29.8594V27.6519C22.2009 26.807 21.5136 26.1196 20.6686 26.1196H14.5184C13.6735 26.1196 12.9861 26.807 12.9861 27.6519V38.6437H5.52116V23.105ZM48.5964 31.1893H52.448V36.9447L48.5964 34.1445V31.1893Z" fill="#707F9B"/>
<path d="M48.9141 46.1523C48.0253 46.1523 47.3027 46.8749 47.3027 47.7637V56.1642C47.3027 57.053 48.0253 57.7756 48.9141 57.7756H52.1287C53.0174 57.7756 53.74 57.053 53.74 56.1642V47.7637C53.74 46.8749 53.0174 46.1523 52.1287 46.1523H48.9141ZM51.8064 55.842H49.2363V48.0859H51.8064V55.842Z" fill="#707F9B"/>
<path d="M27.7148 46.1523C26.8266 46.1523 26.1035 46.8749 26.1035 47.7637V56.1642C26.1035 57.053 26.8266 57.7756 27.7148 57.7756H30.9299C31.8182 57.7756 32.5413 57.053 32.5413 56.1642V47.7637C32.5413 46.8749 31.8182 46.1523 30.9299 46.1523H27.7148ZM30.6077 55.842H28.0371V48.0859H30.6077V55.842Z" fill="#707F9B"/>
</g>
<defs>
<clipPath id="clip0">
<rect width="66" height="66" fill="white"/>
</clipPath>
</defs>
</svg>
