<svg width="60" height="60" viewBox="0 0 60 60" fill="none" xmlns="http://www.w3.org/2000/svg">
<path d="M54.2183 23.7905L55.4922 24.6556C55.654 24.765 55.8429 24.8232 56.0367 24.8232C56.0967 24.8232 56.1587 24.8174 56.2188 24.8057C56.4707 24.7573 56.6935 24.611 56.8378 24.3979L59.0136 21.1903C59.3149 20.7476 59.1987 20.1451 58.756 19.8448L30.544 0.701289C30.2146 0.478477 29.7855 0.478477 29.4561 0.701289L1.24224 19.8457C0.799525 20.146 0.684244 20.7486 0.984557 21.1913L3.16037 24.3989C3.30374 24.612 3.52753 24.7583 3.7794 24.8067C4.03321 24.8551 4.29381 24.7999 4.50596 24.6565L5.78084 23.7905V33.4828C5.21315 33.7308 4.74912 34.189 4.50596 34.7916C2.87749 38.8177 0.937088 44.109 0.937088 46.4689C0.937088 49.9467 2.96178 52.6476 5.78084 53.1562V57.1252H0.937088V59.0627H59.0621V57.1252H54.2183V23.7905ZM4.22018 22.5088L3.13228 20.9036L29.9996 2.67269L56.8669 20.9036L55.779 22.5079L30.544 5.38423C30.3793 5.27282 30.1895 5.21663 29.9996 5.21663C29.8097 5.21663 29.6198 5.27282 29.4551 5.38423L4.22018 22.5088ZM2.87459 46.4689C2.87459 44.8947 4.12331 40.9034 6.30106 35.5182C6.41246 35.244 6.65174 35.2149 6.74959 35.2149C6.84743 35.2149 7.08671 35.244 7.19812 35.5182C9.37587 40.9034 10.6246 44.8947 10.6246 46.4689C10.6246 49.2754 8.99418 51.3127 6.74959 51.3127C4.50499 51.3127 2.87459 49.2754 2.87459 46.4689ZM7.71834 53.1562C10.5374 52.6476 12.5621 49.9467 12.5621 46.4689C12.5621 44.109 10.6217 38.8177 8.99321 34.7916C8.75006 34.189 8.28603 33.7308 7.71834 33.4828V22.4759L29.9996 7.3566L52.2808 22.4759V41.3326L52.1181 41.0885C51.7587 40.5489 50.8655 40.5489 50.5061 41.0885L48.5686 43.9947C48.463 44.1526 48.4058 44.3406 48.4058 44.5314V46.4689H46.4683V44.5314C46.4683 44.3406 46.4112 44.1526 46.3056 43.9938L44.3681 41.0875C44.0087 40.5479 43.1155 40.5479 42.7561 41.0875L40.8186 43.9938C40.713 44.1526 40.6558 44.3406 40.6558 44.5314V46.4689H38.7183V44.5314C38.7183 44.3406 38.6612 44.1526 38.5556 43.9938L36.6181 41.0875C36.2587 40.5479 35.3655 40.5479 35.0061 41.0875L33.0686 43.9938C32.963 44.1526 32.9058 44.3406 32.9058 44.5314V57.1252H27.0933V38.7189C27.0933 38.1832 26.6603 37.7502 26.1246 37.7502H15.4683C14.9326 37.7502 14.4996 38.1832 14.4996 38.7189V57.1252H7.71834V53.1562ZM36.7808 57.1252H34.8433V44.8249L35.8121 43.3718L36.7808 44.8249V57.1252ZM38.7183 48.4064H40.6558V50.3439H38.7183V48.4064ZM38.7183 52.2814H40.6558V57.1252H38.7183V52.2814ZM44.5308 57.1252H42.5933V44.8249L43.5621 43.3718L44.5308 44.8249V57.1252ZM46.4683 48.4064H48.4058V50.3439H46.4683V48.4064ZM46.4683 52.2814H48.4058V57.1252H46.4683V52.2814ZM25.1558 57.1252H16.4371V39.6877H25.1558V57.1252ZM50.3433 57.1252V44.8249L51.3121 43.3718L52.2808 44.8249V57.1252H50.3433Z" fill="#707F9B"/>
<path d="M27.0938 30.9688H32.9062C35.0433 30.9688 36.7812 29.2308 36.7812 27.0938V21.2812C36.7812 19.1442 35.0433 17.4062 32.9062 17.4062H27.0938C24.9567 17.4062 23.2188 19.1442 23.2188 21.2812V27.0938C23.2188 29.2308 24.9567 30.9688 27.0938 30.9688ZM25.1562 27.0938V25.1562H29.0312V29.0312H27.0938C26.0252 29.0312 25.1562 28.1623 25.1562 27.0938ZM32.9062 29.0312H30.9688V25.1562H34.8438V27.0938C34.8438 28.1623 33.9748 29.0312 32.9062 29.0312ZM34.8438 21.2812V23.2188H30.9688V19.3438H32.9062C33.9748 19.3438 34.8438 20.2127 34.8438 21.2812ZM27.0938 19.3438H29.0312V23.2188H25.1562V21.2812C25.1562 20.2127 26.0252 19.3438 27.0938 19.3438Z" fill="#707F9B"/>
<path d="M21.2812 47.4375H23.2188V49.375H21.2812V47.4375Z" fill="#707F9B"/>
</svg>
