<svg width="79" height="52" viewBox="0 0 79 52" fill="none" xmlns="http://www.w3.org/2000/svg">
<path d="M36.3287 0.53125H14.4388C10.3361 0.53125 6.36524 0.665167 3.22123 3.69169C-0.199924 7.05301 0.00452761 11.1509 0.00452761 15.1193V51.3305H10.9495V15.1193C10.9495 13.7087 10.8813 12.2267 11.7718 11.2893C12.6623 10.4143 14.1662 10.3474 15.3974 10.3474H22.2943C23.4665 8.82072 24.7795 7.36102 26.2652 5.9906C29.0412 3.43279 32.2351 1.45974 36.3287 0.53125Z" fill="#102A59"/>
<path d="M72.1576 33.5144C75.6469 32.4386 77.6323 29.6844 77.6323 26.39C77.6323 24.6402 77.1553 22.8279 76.0603 21.4842C73.5297 18.3238 69.3543 18.3907 66.1422 18.3907H46.0923C47.2736 19.7567 48.4412 21.1271 49.5316 22.5466C50.8401 24.2563 51.8169 26.024 52.5121 27.8006H63.2026C64.7746 27.8006 67.3053 27.6667 67.3053 29.7514C67.3053 31.3628 65.0472 31.5012 63.9522 31.5012H57.1781V37.5498H63.6751C65.7287 37.5498 68.0549 37.5498 68.0549 39.3666C68.0549 41.7191 65.5243 41.5182 63.7433 41.5182H54.3021V51.3299H65.3153C68.3911 51.3299 74.2066 51.3968 77.3552 47.1606C78.5183 45.5491 78.9953 43.5314 78.9953 41.5138C78.9953 40.1701 78.7227 38.8265 78.1048 37.6168C77.4279 36.3401 75.715 34.0546 72.1576 33.5144Z" fill="#102A59"/>
<path d="M70.7992 14.4275H72.2576V5.6381H70.7992V14.4275ZM65.3926 5.6381V12.508C65.3926 13.5169 65.4699 14.6909 66.3694 15.5167C67.1918 16.28 68.2822 16.3247 69.2136 16.3247H77.6642V5.6381H76.2058V14.9811H69.309C68.6729 14.9811 67.896 14.9498 67.3826 14.4454C66.8238 13.9097 66.8556 13.0884 66.8556 12.5705V5.6381H65.3926ZM56.4922 16.3202V9.45474C56.4922 7.68257 57.6098 6.82996 58.7457 6.82996C60.1132 6.82996 60.9992 7.99058 60.9992 9.45474V10.1243H57.0555V11.468H60.9992V16.3202H62.4576V9.42349C62.4576 7.37902 61.0446 5.48633 58.7457 5.48633C56.4467 5.48633 55.0337 7.37902 55.0337 9.42349V16.3247H56.4922V16.3202ZM45.9152 16.3202V11.468H50.6358V16.3202H52.0942V5.6381H50.6358V10.1243H45.9152V5.6381H44.4568V16.3247H45.9152V16.3202Z" fill="#FFCF1C"/>
<path d="M50.9267 36.2067C50.9267 35.8184 50.913 35.4434 50.8949 35.0684C51.0993 30.9706 49.7999 26.6049 46.7013 22.5516C45.0112 20.342 43.1257 18.2574 41.3129 16.1281C36.7378 10.7535 36.8922 6.78513 41.8808 1.77663C42.317 1.33917 42.7304 0.888317 43.5801 0C37.6555 0.379432 33.4484 2.72298 29.9 5.99056C24.5661 10.9053 21.2358 16.8914 19.9682 23.6944C18.7188 30.3992 22.776 35.7023 30.2498 36.854C27.0286 33.7337 24.448 30.7161 24.875 26.5022C25.2885 22.4445 27.7373 19.4492 30.8723 16.4004C37.6328 22.3954 43.0757 28.7699 43.3211 37.5861C43.5028 44.2596 38.3007 49.1967 30.5997 49.8261C27.6965 50.0671 24.7524 49.8663 21.9764 49.8663C25.0295 51.6429 28.7869 52.2723 32.6987 51.8929C35.3838 51.634 37.8191 50.9867 39.9772 50.0448V51.3304H50.9221V36.2067H50.9267Z" fill="#FFCF1C"/>
<path d="M24.4933 10.959C5.22035 42.9295 33.3029 42.2733 39.918 41.7153C40.7631 41.6438 41.2628 41.5724 41.2628 41.5724V42.6616C38.9821 44.7061 36.8013 46.0631 34.7568 46.9023C34.2842 47.1077 33.789 47.2862 33.2665 47.4291C30.3406 48.3085 27.7236 48.1567 25.511 47.5362C21.3402 46.514 17.6192 43.4607 16.0381 39.7601C8.39162 24.9355 24.4933 10.959 24.4933 10.959Z" fill="#102A59"/>
</svg>
