<svg width="156" height="150" viewBox="0 0 156 150" fill="none" xmlns="http://www.w3.org/2000/svg">
<path d="M150.553 60.4368C148.957 57.7559 147.449 55.2233 146.63 52.7005C145.76 50.0211 145.468 46.9873 145.159 43.7753C144.665 38.6428 144.154 33.3355 141.106 29.1472C138.026 24.9154 133.115 22.7908 128.366 20.736C125.425 19.4636 122.647 18.2617 120.405 16.6304C118.206 15.0298 116.233 12.78 114.143 10.3983C110.71 6.48487 107.16 2.43832 102.108 0.798183C97.2751 -0.771262 92.1168 0.37223 87.1281 1.47764C84.0669 2.15618 80.9015 2.85757 78 2.85757C75.0988 2.85757 71.9331 2.15587 68.8719 1.47764C63.8832 0.37223 58.7246 -0.771262 53.8913 0.798488C48.8399 2.43862 45.29 6.48517 41.8568 10.3986C39.7675 12.78 37.7937 15.0298 35.5945 16.6304C34.8206 17.1937 33.9376 17.7379 32.895 18.2939C31.7813 18.8878 31.3603 20.272 31.9541 21.3856C32.5479 22.4992 33.9321 22.92 35.0461 22.3262C36.2776 21.6693 37.337 21.0148 38.284 20.3253C40.8942 18.4256 43.1303 15.8769 45.2927 13.4122C48.4578 9.80475 51.4471 6.39712 55.3032 5.14486C58.9531 3.96023 63.2909 4.92152 67.8835 5.93948C71.1847 6.67103 74.5988 7.42757 78.0006 7.42757C81.4025 7.42757 84.8162 6.67103 88.1178 5.93918C92.7109 4.92152 97.0494 3.96023 100.698 5.14455C104.554 6.39651 107.543 9.80414 110.709 13.4119C112.871 15.8766 115.107 18.4253 117.717 20.325C120.368 22.2543 123.512 23.6144 126.552 24.9297C130.931 26.824 135.066 28.6134 137.412 31.8358C139.725 35.0149 140.155 39.4825 140.611 44.2125C140.93 47.5278 141.26 50.9558 142.284 54.1112C143.261 57.1209 144.973 59.995 146.628 62.7744C149.096 66.9239 151.43 70.8425 151.43 74.9999C151.43 79.1574 149.096 83.0763 146.626 87.2252C144.971 90.0046 143.26 92.8784 142.283 95.8878C141.258 99.0431 140.929 102.471 140.609 105.787C140.154 110.516 139.724 114.984 137.41 118.163C135.065 121.386 130.93 123.175 126.551 125.069C123.511 126.385 120.367 127.745 117.716 129.674C115.106 131.574 112.87 134.122 110.707 136.587C107.542 140.195 104.553 143.602 100.697 144.854C97.0475 146.039 92.7097 145.077 88.1165 144.059C84.8149 143.328 81.4012 142.571 77.9997 142.571C74.5979 142.571 71.1841 143.328 67.8825 144.059C63.2897 145.077 58.9519 146.039 55.3023 144.854C51.4462 143.602 48.4566 140.195 45.2918 136.587C43.1294 134.122 40.8936 131.573 38.2831 129.674C35.6323 127.744 32.4882 126.384 29.448 125.069C25.0697 123.175 20.9339 121.385 18.5887 118.163C16.2752 114.984 15.8453 110.516 15.3898 105.786C15.0708 102.471 14.7408 99.0431 13.7164 95.8878C12.7393 92.8784 11.0282 90.0043 9.37341 87.2252C6.90361 83.0763 4.57031 79.1574 4.57031 74.9999C4.57031 70.8425 6.90361 66.9239 9.37402 62.775C11.0288 59.9956 12.7399 57.1215 13.717 54.1121C14.7417 50.9568 15.0714 47.5284 15.3907 44.2131C15.8459 39.4831 16.2758 35.0155 18.5896 31.8364C19.9226 30.0049 21.9195 28.4885 25.0648 26.9196C26.1943 26.3563 26.6531 24.984 26.0898 23.8548C25.5264 22.7253 24.1541 22.2665 23.0249 22.8298C20.4424 24.118 17.1844 26.0004 14.894 29.1475C11.8459 33.3358 11.3353 38.6428 10.8411 43.7756C10.5321 46.9876 10.2399 50.0214 9.37006 52.7011C8.55105 55.2239 7.04316 57.7562 5.4469 60.4371C2.769 64.9343 0 69.585 0 74.9999C0 80.4152 2.769 85.0659 5.4469 89.5634C7.04316 92.2443 8.55105 94.7766 9.37006 97.2994C10.2399 99.9788 10.5318 103.013 10.8411 106.224C11.335 111.357 11.8459 116.664 14.894 120.853C17.9738 125.084 22.8848 127.209 27.6339 129.264C30.5751 130.536 33.3532 131.738 35.5945 133.37C37.7937 134.97 39.7672 137.22 41.8568 139.601C45.29 143.515 48.8402 147.562 53.8916 149.201C55.5939 149.754 57.3358 149.97 59.0969 149.97C62.3366 149.97 65.64 149.238 68.8719 148.522C71.9331 147.844 75.0988 147.142 78 147.142C80.9015 147.142 84.0669 147.844 87.1281 148.522C92.1168 149.628 97.2751 150.771 102.109 149.201C107.16 147.561 110.71 143.515 114.143 139.601C116.232 137.22 118.206 134.97 120.405 133.369C122.647 131.738 125.425 130.536 128.366 129.264C133.115 127.209 138.026 125.084 141.106 120.852C144.154 116.664 144.665 111.357 145.159 106.224C145.468 103.012 145.76 99.9785 146.63 97.2991C147.449 94.7763 148.957 92.244 150.553 89.5631C153.231 85.0656 156 80.4148 156 74.9999C156 69.585 153.231 64.9343 150.553 60.4368Z" fill="#FFCF1C"/>
<path d="M21.9535 56.7896C21.3045 58.7886 20.094 60.8209 18.8128 62.9729C16.612 66.669 14.3363 70.491 14.3363 74.9998C14.3363 79.5086 16.612 83.3306 18.8128 87.027C20.094 89.179 21.3042 91.2116 21.9535 93.2104C22.6442 95.3377 22.8785 97.774 23.1268 100.353C23.5327 104.572 23.9525 108.934 26.493 112.425C29.0591 115.951 33.0953 117.697 36.9984 119.386C39.36 120.408 41.5906 121.373 43.3688 122.667C45.1128 123.936 46.6972 125.742 48.3745 127.654C51.1962 130.871 54.1139 134.196 58.3222 135.563C59.7524 136.027 61.2091 136.208 62.6762 136.208C65.344 136.208 68.0478 135.609 70.6934 135.023C73.2653 134.453 75.6946 133.914 77.9992 133.914C80.3039 133.914 82.7332 134.453 85.305 135.023C89.4061 135.932 93.6459 136.872 97.6763 135.563C101.884 134.196 104.802 130.871 107.624 127.654C109.301 125.742 110.886 123.936 112.629 122.667C114.408 121.373 116.638 120.408 119 119.386C122.903 117.697 126.939 115.951 129.505 112.425C132.046 108.934 132.465 104.572 132.871 100.354C133.12 97.7743 133.354 95.3377 134.045 93.2107C134.694 91.2116 135.904 89.179 137.186 87.027C139.386 83.3309 141.662 79.5089 141.662 75.0001C141.662 70.4916 139.386 66.6693 137.186 62.9732C135.904 60.8212 134.694 58.7886 134.045 56.7896C133.354 54.6625 133.12 52.2259 132.871 49.6465C132.465 45.4281 132.046 41.0662 129.505 37.5754C126.939 34.0492 122.903 32.303 119 30.6145C116.638 29.5925 114.408 28.6276 112.629 27.3336C110.885 26.0643 109.301 24.2584 107.624 22.3462C104.802 19.1296 101.884 15.8039 97.6763 14.4374C93.6456 13.1288 89.4058 14.0684 85.305 14.9773C82.7332 15.5474 80.3039 16.0857 77.9992 16.0857C75.6946 16.0857 73.2653 15.5474 70.6934 14.9773C66.5927 14.0684 62.3523 13.1288 58.3222 14.4374C54.1139 15.8036 51.1962 19.1296 48.3745 22.3462C46.6972 24.2581 45.1128 26.0643 43.3688 27.3336C41.5906 28.6276 39.36 29.5928 36.9984 30.6145C33.0953 32.303 29.0591 34.0492 26.493 37.5754C23.9525 41.0662 23.533 45.4281 23.1268 49.6465C22.8785 52.2256 22.6442 54.6619 21.9535 56.7896ZM27.6761 50.084C28.0393 46.3101 28.3824 42.7459 30.1883 40.2642C32.0198 37.7478 35.3195 36.32 38.8134 34.8085C41.2996 33.7329 43.8706 32.6205 46.0582 31.0282C48.2133 29.46 50.042 27.3756 51.8104 25.3598C54.3357 22.4811 56.7211 19.7621 59.7338 18.7841C62.5793 17.8605 66.0403 18.6271 69.7047 19.4391C72.4037 20.0372 75.1946 20.6557 77.9995 20.6557C80.8045 20.6557 83.5954 20.0372 86.2944 19.4391C89.9582 18.6268 93.4189 17.8596 96.2653 18.7841C99.278 19.7621 101.663 22.4811 104.189 25.3598C105.957 27.3756 107.786 29.46 109.941 31.0282C112.129 32.6205 114.699 33.7329 117.186 34.8085C120.679 36.32 123.979 37.7475 125.811 40.2642C127.617 42.7459 127.96 46.3101 128.323 50.084C128.584 52.7948 128.854 55.5979 129.699 58.2009C130.506 60.6868 131.906 63.0375 133.26 65.3111C135.231 68.6218 137.093 71.7488 137.093 74.9998C137.093 78.2508 135.231 81.3781 133.26 84.6886C131.906 86.9618 130.506 89.3128 129.699 91.7988C128.854 94.4017 128.584 97.2048 128.323 99.9156C127.96 103.689 127.617 107.254 125.811 109.735C123.979 112.252 120.68 113.68 117.186 115.191C114.699 116.267 112.129 117.379 109.941 118.971C107.786 120.54 105.957 122.624 104.189 124.64C101.663 127.518 99.278 130.237 96.2653 131.216C93.4195 132.14 89.9585 131.372 86.2944 130.56C83.5954 129.962 80.8045 129.344 77.9995 129.344C75.1946 129.344 72.4037 129.962 69.7047 130.56C66.0409 131.372 62.5796 132.14 59.7338 131.216C56.7211 130.238 54.3357 127.518 51.8104 124.64C50.042 122.624 48.2133 120.54 46.0582 118.971C43.8706 117.379 41.2996 116.267 38.8134 115.191C35.3198 113.68 32.0201 112.252 30.1883 109.735C28.3824 107.254 28.0393 103.689 27.6761 99.9156C27.4153 97.2048 27.1457 94.402 26.3005 91.799C25.4934 89.3131 24.0936 86.9624 22.7399 84.6889C20.7686 81.3781 18.9066 78.2511 18.9066 74.9998C18.9066 71.7488 20.7686 68.6218 22.7399 65.3111C24.0933 63.0375 25.4934 60.6865 26.3005 58.2009C27.1454 55.5979 27.4153 52.7948 27.6761 50.084Z" fill="#FFCF1C"/>
<path d="M69.7681 105.294C69.6347 105.294 69.5015 105.292 69.3678 105.287C65.9894 105.173 62.8127 103.616 60.6522 101.017L49.3077 87.3672C46.7932 84.3413 47.2088 79.8338 50.2346 77.3189L53.4149 74.6757C56.4411 72.1611 60.948 72.5767 63.4632 75.6026L69.1785 82.4794C69.4997 82.8657 69.9092 82.9355 70.1246 82.9428C70.3379 82.9501 70.7529 82.9084 71.0996 82.5443C71.1188 82.5242 71.1383 82.5044 71.1584 82.4849L100.349 54.0039C101.661 52.6441 103.421 51.8708 105.311 51.8248C107.214 51.7772 109.026 52.4771 110.406 53.7915L113.4 56.644C116.249 59.3576 116.358 63.8828 113.645 66.7316C113.629 66.7484 113.613 66.7645 113.597 66.7807L98.0849 82.1128C97.1869 83.0004 95.74 82.9916 94.8533 82.094C93.9661 81.1963 93.9746 79.7494 94.8719 78.8624L110.356 63.558C111.311 62.5327 111.265 60.9215 110.248 59.9526L107.253 57.1001C106.757 56.6276 106.106 56.3747 105.422 56.393C104.737 56.4097 104.099 56.6919 103.627 57.1879C103.607 57.208 103.588 57.2278 103.568 57.2473L74.3759 85.7292C73.2263 86.9172 71.617 87.5668 69.9695 87.5092C68.3001 87.4528 66.7307 86.6838 65.6634 85.3992L59.948 78.5224C59.044 77.4347 57.4234 77.2854 56.336 78.1891L53.1553 80.8322C52.0676 81.7363 51.9183 83.3566 52.822 84.4443L64.1664 98.094C65.494 99.6915 67.4461 100.648 69.5219 100.718C71.5959 100.79 73.6099 99.9663 75.0426 98.4624C75.0584 98.4456 75.0745 98.4295 75.0907 98.4133L87.9025 85.7499C88.8004 84.8624 90.2474 84.8712 91.1343 85.7688C92.0216 86.6664 92.013 88.1134 91.1157 89.0003L78.3271 101.641C76.0898 103.977 72.9914 105.294 69.7681 105.294Z" fill="#FFCF1C"/>
</svg>
