<svg width="197" height="18" viewBox="0 0 197 18" fill="none" xmlns="http://www.w3.org/2000/svg">
<path d="M14.4076 0H13.1188V15.6326L1.08774 0H0V18H1.28881V2.36736L13.3463 18H14.4076V0V0Z" fill="#FFD100"/>
<path d="M37.9334 8.27906H26.4824V9.43592H37.9334V8.27906V8.27906ZM37.9334 0H26.4824V1.18368H37.9334V0V0ZM26.4824 16.8163V18H37.9334V16.8163H26.4824Z" fill="#FFD100"/>
<path d="M60.1622 18H61.6785L54.8784 8.69151L61.1972 0H59.7568L54.1203 7.7392L48.4838 0H46.9676L53.2864 8.71833L46.4863 18H48.0026L54.0676 9.67064L60.1622 18Z" fill="#FFD100"/>
<path d="M73.852 1.18368V18H75.1408V1.18368H81.509V0H67.4805V1.18368H73.852Z" fill="#FFD100"/>
<path d="M94.212 1.18368V18H95.5008V1.18368H101.869V0H87.8438V1.18368H94.212Z" fill="#1314EB"/>
<path d="M120.268 11.6993C121.583 11.3137 122.618 10.6464 123.327 9.66729C124.035 8.69151 124.414 7.50782 124.414 6.0693C124.414 4.19151 123.781 2.69933 122.519 1.6196C121.253 0.539866 119.51 0 117.285 0H110.939V1.18368H117.285C119.157 1.18368 120.594 1.6196 121.606 2.46796C122.591 3.31632 123.096 4.52683 123.096 6.0693C123.096 7.6386 122.588 8.84575 121.606 9.69411C120.594 10.5425 119.154 10.9516 117.285 10.9516H110.939V17.9966H112.228V12.1118H117.285C117.792 12.1118 118.372 12.0849 119.005 11.9844L123.224 18H124.691L120.268 11.6993Z" fill="#1314EB"/>
<path d="M141.525 0H140.236L132.098 18H133.489L140.869 1.44188L148.275 18H149.666L141.525 0Z" fill="#1314EB"/>
<path d="M173.989 4.37258C173.181 3.01118 172.067 1.95492 170.653 1.15686C169.239 0.385619 167.594 0 165.775 0H158.773V1.18368H165.672C167.291 1.18368 168.731 1.519 169.994 2.18629C171.233 2.85358 172.192 3.77906 172.875 4.93592C173.534 6.1196 173.886 7.481 173.886 9C173.886 10.5425 173.534 11.8804 172.875 13.0607C172.192 14.2444 171.23 15.1699 169.994 15.8372C168.731 16.5078 167.291 16.813 165.672 16.813H160.062V9H158.773V18H165.775C167.594 18 169.239 17.6144 170.653 16.8431C172.067 16.0719 173.181 15.0156 173.989 13.6542C174.773 12.2895 175.175 10.747 175.175 9C175.175 7.27645 174.773 5.73398 173.989 4.37258Z" fill="#1314EB"/>
<path d="M197 8.27906H185.553V9.43592H197V8.27906ZM197 0H185.553V1.18368H197V0ZM185.553 16.8163V18H197V16.8163H185.553Z" fill="#1314EB"/>
</svg>
