<svg width="24" height="25" viewBox="0 0 24 25" fill="none" xmlns="http://www.w3.org/2000/svg">
<g clip-path="url(#clip0)">
<path d="M11.9247 24.5506C18.5106 24.5506 23.8494 19.2117 23.8494 12.6259C23.8494 6.04005 18.5106 0.701172 11.9247 0.701172C5.33888 0.701172 0 6.04005 0 12.6259C0 19.2117 5.33888 24.5506 11.9247 24.5506Z" fill="#039BE5"/>
<path d="M5.4562 12.3681L16.9536 7.93511C17.4872 7.74233 17.9533 8.06529 17.7804 8.8722L17.7814 8.87121L15.8237 18.094C15.6787 18.7479 15.2901 18.9068 14.7465 18.5988L11.7654 16.4017L10.3274 17.7869C10.1684 17.9459 10.0343 18.0801 9.72624 18.0801L9.9379 15.0462L15.463 10.0547C15.7035 9.84307 15.4094 9.72382 15.0924 9.93449L8.26447 14.2334L5.32105 13.3151C4.68209 13.1124 4.66818 12.6762 5.4562 12.3681Z" fill="white"/>
</g>
<defs>
<clipPath id="clip0">
<rect width="23.8494" height="23.8494" fill="white" transform="translate(0 0.701172)"/>
</clipPath>
</defs>
</svg>
