<svg width="512" height="512" viewBox="0 0 512 512" fill="none" xmlns="http://www.w3.org/2000/svg">
<g clip-path="url(#clip0)">
<path d="M464.538 296.385C479.812 167.809 457.199 86.6352 416.41 49.9205L416.431 49.8992C350.596 -12.7995 128.26 -22.0795 49.4975 52.7152C14.1269 89.3019 1.66819 142.998 0.30286 209.473C-1.06247 275.969 -2.68381 400.534 113.391 434.326H113.498L113.391 485.931C113.391 485.931 112.602 506.838 125.956 511.041C141.231 515.99 148.143 506.283 195.652 449.537C275.098 456.427 336.111 440.641 343.044 438.337C359.087 432.961 449.86 420.95 464.538 296.385ZM203.482 413.227C203.482 413.227 153.199 475.926 137.562 492.203C132.442 497.494 126.831 497.003 126.916 486.507C126.916 479.617 127.3 400.833 127.3 400.833C28.8895 372.63 34.6922 266.561 35.7589 211.073C36.8255 155.563 46.9802 110.102 76.9322 79.4885C146.031 14.6992 340.954 29.1845 390.618 75.8619C451.332 129.686 429.722 281.75 429.85 286.934C417.37 390.913 343.812 397.505 330.287 402.006C324.506 403.926 270.852 417.729 203.482 413.227V413.227Z" fill="#8E24AA"/>
<path d="M231.3 91.6699C223.087 91.6699 223.087 104.47 231.3 104.577C295.023 105.067 347.503 149.483 348.079 230.955C348.079 239.553 360.665 239.446 360.559 230.849H360.537C359.855 143.062 302.553 92.1606 231.3 91.6699V91.6699Z" fill="#8E24AA"/>
<path d="M315.119 217.451C314.927 225.942 327.492 226.347 327.599 217.75C328.644 169.345 298.799 129.473 242.714 125.27C234.5 124.673 233.647 137.579 241.839 138.177C290.479 141.867 316.1 175.062 315.119 217.451V217.451Z" fill="#8E24AA"/>
<path d="M301.679 272.513C291.14 266.412 280.41 270.209 275.972 276.204L266.692 288.214C261.977 294.316 253.167 293.505 253.167 293.505C188.868 276.502 171.674 209.217 171.674 209.217C171.674 209.217 170.884 200.108 176.772 195.222L188.378 185.622C194.18 181.014 197.85 169.921 191.94 159.02C176.154 130.497 165.551 120.662 160.154 113.11C154.479 106.006 145.945 104.406 137.071 109.206H136.879C118.426 120.001 98.2228 140.204 104.687 161.004C115.716 182.934 135.983 252.844 200.58 305.665C230.937 330.646 278.98 356.246 299.375 362.156L299.567 362.454C319.663 369.153 339.204 348.161 349.636 329.153V329.004C354.265 319.809 352.73 311.105 345.967 305.409C333.978 293.718 315.887 280.812 301.679 272.513Z" fill="#8E24AA"/>
<path d="M251.503 172.885C272.004 174.08 281.946 184.789 283.012 206.784C283.396 215.381 295.876 214.784 295.492 206.186C294.127 177.472 279.151 161.472 252.186 159.978C243.972 159.488 243.204 172.394 251.503 172.885V172.885Z" fill="#8E24AA"/>
</g>
<defs>
<clipPath id="clip0">
<rect width="512" height="512" fill="white"/>
</clipPath>
</defs>
</svg>
