<svg width="25" height="25" viewBox="0 0 25 25" fill="none" xmlns="http://www.w3.org/2000/svg">
<g clip-path="url(#clip0)">
<path d="M24.1439 14.5431C24.8694 8.43643 23.7954 4.58116 21.8581 2.83742L21.8591 2.83641C18.7324 -0.141419 8.17268 -0.582166 4.4319 2.97015C2.752 4.70781 2.16028 7.25807 2.09544 10.4152C2.03059 13.5734 1.95359 19.4896 7.46647 21.0945H7.47154L7.46647 23.5454C7.46647 23.5454 7.42898 24.5384 8.06325 24.738C8.78871 24.9731 9.11699 24.512 11.3734 21.8169C15.1466 22.1442 18.0444 21.3944 18.3737 21.285C19.1356 21.0296 23.4468 20.4592 24.1439 14.5431ZM11.7453 20.0924C11.7453 20.0924 9.35712 23.0702 8.61444 23.8433C8.37127 24.0946 8.10479 24.0713 8.10885 23.5728C8.10885 23.2455 8.12709 19.5037 8.12709 19.5037C3.45314 18.1643 3.72874 13.1266 3.7794 10.4912C3.83006 7.85485 4.31235 5.69569 5.73489 4.24173C9.01669 1.16461 18.2744 1.85258 20.6332 4.06949C23.5168 6.62582 22.4904 13.848 22.4965 14.0942C21.9037 19.0326 18.4102 19.3457 17.7678 19.5595C17.4932 19.6507 14.945 20.3062 11.7453 20.0924Z" fill="#8E24AA"/>
<path d="M13.0665 4.82031C12.6764 4.82031 12.6764 5.42824 13.0665 5.43331C16.093 5.45661 18.5855 7.56612 18.6128 11.4356C18.6128 11.8439 19.2106 11.8388 19.2055 11.4305H19.2045C19.1721 7.26114 16.4506 4.84362 13.0665 4.82031Z" fill="#8E24AA"/>
<path d="M17.0475 10.7931C17.0384 11.1964 17.6352 11.2156 17.6403 10.8073C17.6899 8.50831 16.2724 6.61462 13.6087 6.41502C13.2186 6.38665 13.1781 6.99964 13.5671 7.02801C15.8773 7.2033 17.0941 8.77985 17.0475 10.7931Z" fill="#8E24AA"/>
<path d="M16.4091 13.4101C15.9086 13.1204 15.3989 13.3007 15.1882 13.5854L14.7474 14.1559C14.5235 14.4456 14.1051 14.4071 14.1051 14.4071C11.0512 13.5996 10.2346 10.4039 10.2346 10.4039C10.2346 10.4039 10.1971 9.9713 10.4768 9.73928L11.0279 9.28333C11.3035 9.06448 11.4778 8.53761 11.1971 8.01986C10.4474 6.66519 9.9438 6.1981 9.68746 5.83943C9.41795 5.50203 9.01266 5.42604 8.59117 5.65401H8.58205C7.70562 6.16669 6.74611 7.1262 7.05311 8.11408C7.57694 9.15567 8.53949 12.476 11.6075 14.9847C13.0493 16.1711 15.331 17.387 16.2997 17.6676L16.3088 17.6818C17.2632 18 18.1913 17.003 18.6868 16.1002V16.0931C18.9067 15.6564 18.8337 15.243 18.5125 14.9725C17.9431 14.4173 17.0839 13.8043 16.4091 13.4101Z" fill="#8E24AA"/>
<path d="M14.026 8.67809C14.9997 8.73483 15.4719 9.24347 15.5225 10.2881C15.5408 10.6964 16.1335 10.668 16.1152 10.2597C16.0504 8.89594 15.3391 8.13603 14.0584 8.0651C13.6683 8.0418 13.6319 8.65479 14.026 8.67809Z" fill="#8E24AA"/>
</g>
<defs>
<clipPath id="clip0">
<rect width="24.3171" height="24.3171" fill="white" transform="translate(0.683105 0.466797)"/>
</clipPath>
</defs>
</svg>
