<svg width="26" height="26" viewBox="0 0 26 26" fill="none" xmlns="http://www.w3.org/2000/svg">
<g clip-path="url(#clip0)">
<path d="M21.7305 3.62891C19.3316 1.30994 16.1751 0 12.8134 0C3.1651 0 -2.89325 10.4532 1.9246 18.7685L0.140137 25.2519L6.80558 23.5137C9.70955 25.0825 12.0885 24.9436 12.8197 25.0362C24.0074 25.0362 29.5765 11.5012 21.7147 3.66994L21.7305 3.62891Z" fill="#DDDDDD"/>
<path d="M12.8367 22.8858L12.8304 22.8847H12.8135C9.46556 22.8847 7.32651 21.2991 7.11608 21.2076L3.17047 22.2334L4.22789 18.3983L3.97643 18.0038C2.93478 16.3456 2.38135 14.4359 2.38135 12.4694C2.38135 3.21773 13.6868 -1.40862 20.2292 5.13056C26.7557 11.6014 22.1736 22.8858 12.8367 22.8858Z" fill="#4CAF50"/>
<path d="M18.5602 15.0532L18.5508 15.1321C18.2341 14.9742 16.6916 14.2198 16.4044 14.1157C15.7594 13.8768 15.9414 14.0778 14.703 15.4961C14.5189 15.7013 14.3358 15.7171 14.0233 15.575C13.7077 15.4172 12.6944 15.0858 11.495 14.0126C10.5607 13.1761 9.93358 12.1502 9.7484 11.8346C9.44011 11.3022 10.0851 11.2264 10.6722 10.1154C10.7774 9.8944 10.7237 9.7208 10.6459 9.56403C10.567 9.4062 9.93884 7.85952 9.6758 7.24295C9.42328 6.62849 9.16339 6.70635 8.96874 6.70635C8.3627 6.65374 7.91974 6.66216 7.52939 7.0683C5.8312 8.93483 6.25943 10.8603 7.71246 12.9078C10.568 16.6451 12.0895 17.3332 14.8714 18.2886C15.6226 18.5274 16.3076 18.4937 16.8494 18.4159C17.4534 18.3201 18.7086 17.6573 18.9706 16.9155C19.2389 16.1737 19.2389 15.5582 19.16 15.4162C19.0821 15.2741 18.8759 15.1952 18.5602 15.0532Z" fill="#FAFAFA"/>
</g>
<defs>
<clipPath id="clip0">
<rect width="25.2519" height="25.2519" fill="white" transform="translate(0.140137)"/>
</clipPath>
</defs>
</svg>
