<svg width="70" height="70" viewBox="0 0 70 70" fill="none" xmlns="http://www.w3.org/2000/svg">
<path d="M49.2188 63.4375C49.2181 64.0174 48.9874 64.5735 48.5773 64.9835C48.1672 65.3936 47.6112 65.6243 47.0312 65.625H9.84375C9.2638 65.6243 8.7078 65.3936 8.29771 64.9835C7.88763 64.5735 7.65694 64.0174 7.65625 63.4375V13.125C7.65694 12.545 7.88763 11.9891 8.29771 11.579C8.7078 11.1689 9.2638 10.9382 9.84375 10.9375H14.9749C14.58 11.6066 14.333 12.3525 14.2503 13.125H10.9375C10.6474 13.125 10.3692 13.2402 10.1641 13.4454C9.95898 13.6505 9.84375 13.9287 9.84375 14.2188V62.3438C9.84375 62.6338 9.95898 62.912 10.1641 63.1171C10.3692 63.3223 10.6474 63.4375 10.9375 63.4375H45.9375C46.2276 63.4375 46.5058 63.3223 46.7109 63.1171C46.916 62.912 47.0312 62.6338 47.0312 62.3438V41.5625H44.8438V56.875H20.7812V49.2188C20.7812 48.9287 20.666 48.6505 20.4609 48.4454C20.2558 48.2402 19.9776 48.125 19.6875 48.125H12.0312V15.3125H14.2188V16.4062C14.2188 16.6963 14.334 16.9745 14.5391 17.1796C14.7442 17.3848 15.0224 17.5 15.3125 17.5H41.5625C41.8526 17.5 42.1308 17.3848 42.3359 17.1796C42.541 16.9745 42.6562 16.6963 42.6562 16.4062V15.3125H44.8438V22.9688H47.0312V14.2188C47.0312 13.9287 46.916 13.6505 46.7109 13.4454C46.5058 13.2402 46.2276 13.125 45.9375 13.125H42.6243C42.5416 12.3525 42.2946 11.6066 41.8997 10.9375H47.0312C47.6112 10.9382 48.1672 11.1689 48.5773 11.579C48.9874 11.9891 49.2181 12.545 49.2188 13.125V19.6875H51.4062V13.125C51.4049 11.9651 50.9436 10.853 50.1234 10.0328C49.3032 9.21266 48.1912 8.7513 47.0312 8.75H39.4965C38.9809 8.50874 38.4306 8.34994 37.8658 8.27941L33.9062 7.78449V7.65625C33.9062 6.20585 33.3301 4.81485 32.3045 3.78926C31.2789 2.76367 29.8879 2.1875 28.4375 2.1875C26.9871 2.1875 25.5961 2.76367 24.5705 3.78926C23.5449 4.81485 22.9688 6.20585 22.9688 7.65625V7.78449L19.0092 8.27941C18.4444 8.34994 17.8941 8.50874 17.3785 8.75H9.84375C8.68383 8.7513 7.57179 9.21266 6.7516 10.0328C5.93141 10.853 5.47005 11.9651 5.46875 13.125V63.4375C5.47005 64.5974 5.93141 65.7095 6.7516 66.5297C7.57179 67.3498 8.68383 67.8112 9.84375 67.8125H47.0312C48.1912 67.8112 49.3032 67.3498 50.1234 66.5297C50.9436 65.7095 51.4049 64.5974 51.4062 63.4375V38.2812H49.2188V63.4375ZM12.0312 61.25V51.8593L18.9141 58.7422C19.0157 58.8437 19.1362 58.9243 19.2689 58.9793C19.4016 59.0342 19.5439 59.0625 19.6875 59.0625H44.8438V61.25H12.0312ZM18.5938 55.3283L13.5779 50.3125H18.5938V55.3283ZM19.2805 10.4501L24.1981 9.83486C24.4626 9.80182 24.7059 9.67334 24.8823 9.47358C25.0587 9.27382 25.1561 9.01652 25.1562 8.75V7.65625C25.1562 6.78601 25.502 5.95141 26.1173 5.33606C26.7327 4.7207 27.5673 4.375 28.4375 4.375C29.3077 4.375 30.1423 4.7207 30.7577 5.33606C31.373 5.95141 31.7188 6.78601 31.7188 7.65625V8.75C31.7188 9.01659 31.8161 9.27399 31.9926 9.47384C32.169 9.67369 32.4123 9.80222 32.6769 9.83527L37.5945 10.4505C38.3876 10.5507 39.1169 10.9366 39.646 11.5358C40.175 12.135 40.4675 12.9066 40.4688 13.7059V15.3125H16.4062V13.7059C16.4074 12.9065 16.6998 12.1349 17.2289 11.5356C17.758 10.9362 18.4874 10.5503 19.2805 10.4501Z" fill="#707F9B"/>
<path d="M31.7188 22.9688C31.7188 22.3198 31.5263 21.6854 31.1658 21.1458C30.8052 20.6062 30.2928 20.1856 29.6932 19.9373C29.0936 19.6889 28.4339 19.6239 27.7974 19.7505C27.1609 19.8772 26.5762 20.1897 26.1173 20.6486C25.6584 21.1074 25.3459 21.6921 25.2193 22.3286C25.0927 22.9651 25.1577 23.6249 25.406 24.2244C25.6544 24.824 26.0749 25.3365 26.6145 25.697C27.1541 26.0576 27.7885 26.25 28.4375 26.25C29.3074 26.249 30.1414 25.903 30.7566 25.2878C31.3717 24.6727 31.7177 23.8387 31.7188 22.9688ZM27.3438 22.9688C27.3438 22.7524 27.4079 22.541 27.5281 22.3611C27.6483 22.1812 27.8191 22.041 28.0189 21.9583C28.2188 21.8755 28.4387 21.8538 28.6509 21.896C28.863 21.9382 29.0579 22.0424 29.2109 22.1954C29.3639 22.3483 29.468 22.5432 29.5102 22.7554C29.5524 22.9675 29.5308 23.1875 29.448 23.3873C29.3652 23.5872 29.225 23.758 29.0452 23.8782C28.8653 23.9984 28.6538 24.0625 28.4375 24.0625C28.1475 24.0622 27.8695 23.9468 27.6645 23.7418C27.4594 23.5367 27.3441 23.2587 27.3438 22.9688Z" fill="#707F9B"/>
<path d="M22.9688 28.4375H39.375V30.625H22.9688V28.4375Z" fill="#707F9B"/>
<path d="M16.4062 28.4375H20.7812V30.625H16.4062V28.4375Z" fill="#707F9B"/>
<path d="M16.4062 32.8125H35V35H16.4062V32.8125Z" fill="#707F9B"/>
<path d="M16.4062 41.5625H32.8125V43.75H16.4062V41.5625Z" fill="#707F9B"/>
<path d="M22.9688 45.9375H40.4688V48.125H22.9688V45.9375Z" fill="#707F9B"/>
<path d="M16.4062 37.1875H33.9062V39.375H16.4062V37.1875Z" fill="#707F9B"/>
<path d="M38.518 51.0231C38.3772 50.799 38.1804 50.6156 37.947 50.4909C37.7136 50.3663 37.4517 50.3046 37.1872 50.3121C36.5214 50.3121 35.9294 50.6636 35.4372 51.1251C35.2671 50.8755 35.0388 50.6711 34.772 50.5294C34.5052 50.3878 34.208 50.3132 33.906 50.3121C32.2638 50.3121 31.0677 52.4493 30.7402 53.1042L32.6953 54.0841C32.9872 53.5049 33.449 52.8809 33.7602 52.6167C33.8525 52.9342 33.9015 53.2627 33.906 53.5934C33.906 53.8396 33.9891 54.0786 34.1418 54.2717C34.2946 54.4648 34.508 54.6007 34.7476 54.6575C34.9871 54.7142 35.2388 54.6885 35.462 54.5844C35.6851 54.4804 35.8666 54.3041 35.9771 54.0841C36.0207 53.9978 36.0679 53.9104 36.1179 53.8243C36.1707 54.0687 36.3056 54.2876 36.5002 54.4446C36.6947 54.6016 36.9372 54.6872 37.1872 54.6871H40.4685V52.4996H38.7161C38.8046 51.9801 38.7815 51.4495 38.518 51.0231Z" fill="#707F9B"/>
<path d="M27.3438 6.5625H29.5312V8.75H27.3438V6.5625Z" fill="#707F9B"/>
<path d="M62.7969 21.8751L63.305 21.367C64.0838 20.5804 64.5195 19.5174 64.5168 18.4104C64.514 17.3035 64.0731 16.2426 63.2903 15.4599C62.5076 14.6771 61.4467 14.2362 60.3398 14.2334C59.2328 14.2307 58.1698 14.6664 57.3832 15.4452L37.508 35.3204C37.388 35.4405 37.2978 35.587 37.2446 35.7482H37.2437L35.0562 42.3107C34.9919 42.5034 34.9826 42.7102 35.0292 42.908C35.0759 43.1057 35.1767 43.2865 35.3204 43.4301C35.464 43.5738 35.6448 43.6746 35.8425 43.7212C36.0402 43.7679 36.2471 43.7586 36.4398 43.6943L43.0023 41.5068V41.5059C43.1634 41.4526 43.3099 41.3625 43.4301 41.2425L61.2501 23.4219L61.8908 24.0626C62.0344 24.2062 62.1484 24.3767 62.2261 24.5644C62.3038 24.7521 62.3439 24.9532 62.3439 25.1563C62.3439 25.3595 62.3038 25.5606 62.2261 25.7483C62.1484 25.936 62.0344 26.1065 61.8908 26.2501L56.1017 32.0392L57.6485 33.586L63.4376 27.7969C63.7844 27.4502 64.0594 27.0385 64.2471 26.5854C64.4348 26.1323 64.5314 25.6467 64.5314 25.1563C64.5314 24.6659 64.4348 24.1803 64.2471 23.7273C64.0594 23.2742 63.7844 22.8625 63.4376 22.5158L62.7969 21.8751ZM60.3441 16.4063C60.7396 16.4063 61.1262 16.5236 61.4551 16.7434C61.784 16.9631 62.0403 17.2754 62.1917 17.6408C62.343 18.0063 62.3826 18.4084 62.3055 18.7963C62.2283 19.1842 62.0378 19.5405 61.7582 19.8202L61.2501 20.3283L58.4219 17.5001L58.93 16.992C59.1153 16.8058 59.3356 16.6581 59.5784 16.5575C59.8211 16.457 60.0813 16.4056 60.3441 16.4063ZM38.7599 38.1188L40.6314 39.9903L37.8232 40.9264L38.7599 38.1188ZM42.6564 38.9221L39.8281 36.0938L49.2189 26.7032L52.047 29.5313L42.6564 38.9221ZM53.5939 27.9846L50.7657 25.1563L56.8751 19.0469L59.7033 21.8751L53.5939 27.9846Z" fill="#707F9B"/>
</svg>
