<svg width="66" height="66" viewBox="0 0 66 66" fill="none" xmlns="http://www.w3.org/2000/svg">
<g clip-path="url(#clip0)">
<path d="M65.6917 15.749C65.4658 14.9091 64.9148 14.1931 64.1608 13.7589C63.4063 13.3227 62.5093 13.2047 61.6677 13.4306C60.8273 13.657 60.1112 14.2075 59.6771 14.9614L59.1303 15.913C58.6108 15.6145 57.947 15.7902 57.6432 16.307L54.8655 21.0417L53.914 20.4949C53.662 20.3492 53.3619 20.3096 53.081 20.3855C52.7996 20.4618 52.5604 20.6466 52.4157 20.8997C52.1193 21.4224 52.2998 22.0867 52.8204 22.3868L53.772 22.9336L44.4767 39.0417L42.1801 45.177L41.0865 47.2216C40.4463 48.3354 40.5146 49.72 41.2617 50.765L38.8011 53.783L38.1123 52.0556C37.8015 51.2856 37.0823 50.758 36.2552 50.6934C35.4275 50.6283 34.6346 51.0373 34.208 51.7491L33.8144 52.416L33.4428 48.0417C33.3573 47.0069 32.5559 46.175 31.5253 46.05C30.4942 45.9256 29.5181 46.5434 29.1887 47.5281L26.4985 55.5984C26.3106 56.1693 26.6182 56.7844 27.1874 56.9766C27.2942 57.0263 27.409 57.0562 27.5264 57.0636C27.9963 57.0652 28.4149 56.7657 28.5655 56.3204L31.2444 48.25L31.6273 52.6894C31.7063 53.6366 32.3871 54.4242 33.313 54.6389C34.2389 54.8536 35.1969 54.4456 35.6844 53.6302L36.0891 52.9628L36.7673 54.68C37.0551 55.4035 37.706 55.9199 38.4765 56.0347C39.247 56.1495 40.0202 55.8457 40.5072 55.2375L43.0552 52.0118C43.3372 52.0855 43.6277 52.1223 43.9192 52.1212C45.0913 52.1303 46.1795 51.5131 46.7733 50.5023L47.8668 48.6761L52.0334 43.613L61.4269 27.3078L62.3784 27.8546C62.6321 27.9998 62.8168 28.2396 62.8921 28.5221C62.9679 28.8024 62.9284 29.1014 62.7832 29.3529L58.4089 36.9315C58.2439 37.1803 58.1879 37.4858 58.2541 37.7773C58.3203 38.0683 58.5024 38.3198 58.7587 38.4731C59.0107 38.6194 59.3108 38.6589 59.5917 38.5831C59.8731 38.5067 60.1123 38.3219 60.257 38.0688L64.6312 30.4903C65.0675 29.7358 65.1855 28.8387 64.9591 27.9972C64.7327 27.1567 64.1822 26.4407 63.4282 26.0065L62.4767 25.4598L65.2106 20.7245C65.5091 20.205 65.3334 19.5418 64.8171 19.2374L65.3638 18.2859C65.8118 17.5197 65.9304 16.6045 65.6917 15.749ZM61.5689 16.055C61.7136 15.8019 61.9539 15.6166 62.2364 15.5413C62.5173 15.4719 62.8141 15.5109 63.0672 15.6508C63.3209 15.7955 63.5056 16.0358 63.5815 16.3177C63.6509 16.5986 63.6119 16.8955 63.472 17.1486L62.9252 18.1001L61.0222 17.0065L61.5689 16.055ZM46.6638 46.5878L46.117 46.2706L44.4986 45.3297L46.0513 41.1744L49.496 43.1645L46.6638 46.5878ZM43.3831 49.7478C42.9212 49.4258 42.7792 48.8064 43.0552 48.3151L43.602 47.3641L45.5046 48.4577L44.9578 49.398C44.8045 49.6639 44.5471 49.853 44.2476 49.9197C43.948 49.9859 43.6346 49.924 43.3831 49.7478ZM50.7428 41.3714L46.9591 39.1843L55.7076 24.0271L59.4913 26.2143L50.7428 41.3714ZM60.5848 24.3224L56.8011 22.1353L58.9883 18.3516L62.772 20.5387L60.5848 24.3224Z" fill="#707F9B"/>
<path d="M17.4436 49.2014L13.5728 53.062L11.2544 50.7435C10.8277 50.3195 10.1389 50.3195 9.71226 50.7435C9.50508 50.9491 9.38867 51.2283 9.38867 51.5199C9.38867 51.8114 9.50508 52.0912 9.71226 52.2963L12.0307 54.6148C12.4408 55.0216 12.9951 55.2496 13.5728 55.2491C14.1538 55.2523 14.7129 55.0243 15.1256 54.6148L18.9857 50.7435C19.3573 50.3094 19.3322 49.6628 18.9285 49.2591C18.5243 48.8549 17.8777 48.8298 17.4436 49.2014Z" fill="#707F9B"/>
<path d="M4.5625 52.1427C4.5625 57.2767 8.72424 61.4379 13.8578 61.4379C18.9914 61.4379 23.1531 57.2767 23.1531 52.1427C23.1531 51.5387 22.6634 51.0491 22.0595 51.0491C21.4556 51.0491 20.966 51.5387 20.966 52.1427C20.966 56.0684 17.7835 59.2508 13.8578 59.2508C9.93207 59.2508 6.74963 56.0684 6.74963 52.1427C6.74963 48.2169 9.93207 45.0345 13.8578 45.0345C15.3967 45.0302 16.8945 45.5295 18.1226 46.4564C18.6058 46.819 19.2914 46.7208 19.6535 46.2375C20.016 45.7543 19.9183 45.0692 19.4351 44.7066C16.6184 42.5943 12.8497 42.2547 9.70086 43.8288C6.55153 45.4035 4.5625 48.6222 4.5625 52.1427Z" fill="#707F9B"/>
<path d="M39.5555 8.94689C40.1594 8.94689 40.6491 8.45778 40.6491 7.85333C40.6491 7.24941 40.1594 6.75977 39.5555 6.75977H11.1229C10.5189 6.75977 10.0293 7.24941 10.0293 7.85333V12.2276C10.0293 12.832 10.5189 13.3211 11.1229 13.3211H39.5555C40.1594 13.3211 40.6491 12.832 40.6491 12.2276C40.6491 11.6237 40.1594 11.134 39.5555 11.134H12.2164V8.94689H39.5555Z" fill="#707F9B"/>
<path d="M14.4041 15.5088C13.8002 15.5088 13.3105 15.9984 13.3105 16.6024C13.3105 17.2068 13.8002 17.6959 14.4041 17.6959H36.2754C36.8793 17.6959 37.3689 17.2068 37.3689 16.6024C37.3689 15.9984 36.8793 15.5088 36.2754 15.5088H14.4041Z" fill="#707F9B"/>
<path d="M42.8356 23.1631H18.7772C18.1732 23.1631 17.6836 23.6527 17.6836 24.2566C17.6836 24.8611 18.1732 25.3502 18.7772 25.3502H42.8356C43.4395 25.3502 43.9291 24.8611 43.9291 24.2566C43.9291 23.6527 43.4395 23.1631 42.8356 23.1631Z" fill="#707F9B"/>
<path d="M31.9002 30.8182C31.9002 30.2143 31.4105 29.7246 30.8066 29.7246H8.93536C8.33144 29.7246 7.8418 30.2143 7.8418 30.8182C7.8418 31.4226 8.33144 31.9117 8.93536 31.9117H30.8066C31.4105 31.9117 31.9002 31.4226 31.9002 30.8182Z" fill="#707F9B"/>
<path d="M42.8364 29.7246H35.1815C34.5775 29.7246 34.0879 30.2143 34.0879 30.8182C34.0879 31.4226 34.5775 31.9117 35.1815 31.9117H42.8364C43.4403 31.9117 43.93 31.4226 43.93 30.8182C43.93 30.2143 43.4403 29.7246 42.8364 29.7246Z" fill="#707F9B"/>
<path d="M19.871 37.3795C20.4749 37.3795 20.9646 36.8904 20.9646 36.286C20.9646 35.682 20.4749 35.1924 19.871 35.1924H8.93536C8.33144 35.1924 7.8418 35.682 7.8418 36.286C7.8418 36.8904 8.33144 37.3795 8.93536 37.3795H19.871Z" fill="#707F9B"/>
<path d="M24.2459 37.3795H31.9009C32.5048 37.3795 32.9944 36.8904 32.9944 36.286C32.9944 35.682 32.5048 35.1924 31.9009 35.1924H24.2459C23.642 35.1924 23.1523 35.682 23.1523 36.286C23.1523 36.8904 23.642 37.3795 24.2459 37.3795Z" fill="#707F9B"/>
<path d="M49.3979 50.5031C48.7939 50.5031 48.3043 50.9928 48.3043 51.5967V62.5323C48.3043 63.1368 47.8147 63.6259 47.2107 63.6259H3.46819C2.86427 63.6259 2.37463 63.1368 2.37463 62.5323V3.47991C2.37463 2.87599 2.86427 2.38635 3.46819 2.38635H47.2107C47.8147 2.38635 48.3043 2.87599 48.3043 3.47991V24.0173C48.3043 24.6213 48.7939 25.1109 49.3979 25.1109C50.0018 25.1109 50.4914 24.6213 50.4914 24.0173V3.47991C50.4914 1.66816 49.0225 0.199219 47.2107 0.199219H3.46819C1.65644 0.199219 0.1875 1.66816 0.1875 3.47991V62.5323C0.1875 64.3446 1.65644 65.813 3.46819 65.813H47.2107C49.0225 65.813 50.4914 64.3446 50.4914 62.5323V51.5967C50.4914 50.9928 50.0018 50.5031 49.3979 50.5031Z" fill="#707F9B"/>
</g>
<defs>
<clipPath id="clip0">
<rect width="65.625" height="65.625" fill="white" transform="translate(0.1875 0.1875)"/>
</clipPath>
</defs>
</svg>
