<svg width="66" height="70" viewBox="0 0 66 70" fill="none" xmlns="http://www.w3.org/2000/svg">
<path d="M61.875 1.09375H4.125C3.30449 1.09375 2.51758 1.43945 1.93739 2.05481C1.3572 2.67016 1.03125 3.50476 1.03125 4.375V45.9375C1.03125 46.8077 1.3572 47.6423 1.93739 48.2577C2.51758 48.873 3.30449 49.2188 4.125 49.2188H25.7812V60.1562C25.7813 60.3725 25.8418 60.584 25.9551 60.7638C26.0684 60.9436 26.2295 61.0838 26.4179 61.1665C26.6063 61.2493 26.8136 61.2709 27.0136 61.2288C27.2136 61.1866 27.3974 61.0824 27.5416 60.9295L29.9062 58.4216V67.8125C29.9063 68.0288 29.9668 68.2402 30.0801 68.42C30.1934 68.5999 30.3545 68.74 30.5429 68.8228C30.7313 68.9055 30.9386 68.9272 31.1386 68.885C31.3386 68.8428 31.5224 68.7387 31.6666 68.5858L35.0625 64.9841L38.4584 68.5858C38.6518 68.7909 38.914 68.9062 39.1875 68.9062C39.3231 68.9067 39.4573 68.8785 39.5825 68.8231C39.7709 68.7403 39.9319 68.6001 40.0451 68.4202C40.1584 68.2403 40.2188 68.0288 40.2188 67.8125V49.2188H61.875C62.6955 49.2188 63.4824 48.873 64.0626 48.2577C64.6428 47.6423 64.9688 46.8077 64.9688 45.9375V4.375C64.9688 3.50476 64.6428 2.67016 64.0626 2.05481C63.4824 1.43945 62.6955 1.09375 61.875 1.09375ZM30.9622 48.3963C30.2932 47.7313 29.4244 47.3382 28.5089 47.2861C27.7295 47.2603 26.9886 46.9204 26.4372 46.3356C25.8857 45.7507 25.5653 44.965 25.541 44.1383C25.4918 43.1673 25.1212 42.2458 24.4943 41.5363C23.9947 40.941 23.7187 40.1719 23.7187 39.375C23.7187 38.5781 23.9947 37.809 24.4943 37.2137C25.1214 36.5039 25.4921 35.582 25.541 34.6106C25.5655 33.7841 25.8861 32.9986 26.4375 32.414C26.9889 31.8294 27.7296 31.4897 28.5089 31.4639C29.4244 31.4118 30.2932 31.0187 30.9622 30.3538C31.5306 29.8397 32.253 29.5573 33 29.5573C33.7469 29.5573 34.4694 29.8397 35.0378 30.3538C35.7068 31.0187 36.5756 31.4118 37.4911 31.4639C38.2704 31.4897 39.0111 31.8294 39.5625 32.414C40.1139 32.9986 40.4345 33.7841 40.459 34.6106C40.5079 35.582 40.8786 36.5039 41.5058 37.2137C42.0053 37.809 42.2813 38.5781 42.2813 39.375C42.2813 40.1719 42.0053 40.941 41.5058 41.5363C40.8788 42.2458 40.5082 43.1673 40.459 44.1383C40.4347 44.965 40.1143 45.7507 39.5628 46.3356C39.0114 46.9204 38.2705 47.2603 37.4911 47.2861C36.5756 47.3382 35.7068 47.7313 35.0378 48.3963C34.4694 48.9103 33.7469 49.1927 33 49.1927C32.253 49.1927 31.5306 48.9103 30.9622 48.3963ZM43.0485 35.7656C42.7457 35.4336 42.559 35.0018 42.5195 34.5417C42.4779 33.1608 41.9421 31.8485 41.0208 30.8717C40.0996 29.8948 38.8622 29.3268 37.5602 29.283C37.1268 29.241 36.7199 29.043 36.4072 28.7219C35.4562 27.8641 34.2485 27.393 33 27.393C31.7515 27.393 30.5438 27.8641 29.5927 28.7219C29.2801 29.043 28.8732 29.241 28.4398 29.283C27.1378 29.3268 25.9004 29.8948 24.9792 30.8717C24.0579 31.8485 23.5221 33.1608 23.4805 34.5417C23.441 35.0018 23.2543 35.4336 22.9515 35.7656C22.16 36.7046 21.7035 37.9079 21.6613 39.1666C21.6191 40.4254 21.9938 41.66 22.7205 42.6562H11.2406C11.0369 41.606 10.5474 40.6422 9.83251 39.8841C9.11768 39.1259 8.20894 38.6067 7.21875 38.3906V11.9219C8.20894 11.7058 9.11768 11.1866 9.83251 10.4284C10.5474 9.67027 11.0369 8.70645 11.2406 7.65625H54.7594C54.9631 8.70645 55.4526 9.67027 56.1675 10.4284C56.8823 11.1866 57.7911 11.7058 58.7812 11.9219V38.3906C57.7911 38.6067 56.8823 39.1259 56.1675 39.8841C55.4526 40.6422 54.9631 41.606 54.7594 42.6562H43.2795C44.0062 41.66 44.3809 40.4254 44.3387 39.1666C44.2965 37.9079 43.84 36.7046 43.0485 35.7656ZM27.8438 49.3916C28.0408 49.4308 28.2398 49.4575 28.4398 49.4714C28.8732 49.5134 29.2801 49.7114 29.5927 50.0325C30.5316 50.9174 31.744 51.4062 33 51.4062C33.3467 51.4036 33.6923 51.3633 34.0312 51.2859V57.5203L31.6666 55.0123C31.4732 54.8073 31.211 54.6921 30.9375 54.6921C30.664 54.6921 30.4018 54.8073 30.2084 55.0123L27.8438 57.5159V49.3916ZM35.7916 62.6642C35.5982 62.4592 35.3359 62.344 35.0625 62.344C34.7891 62.344 34.5268 62.4592 34.3334 62.6642L31.9688 65.1722V58.4216L34.3334 60.9295C34.5268 61.1347 34.789 61.2499 35.0625 61.25C35.1981 61.2505 35.3323 61.2222 35.4575 61.1669C35.6459 61.084 35.8069 60.9438 35.9201 60.7639C36.0334 60.584 36.0938 60.3726 36.0938 60.1562V50.3125H36.0484C36.168 50.2184 36.2948 50.1375 36.4072 50.0325C36.7199 49.7114 37.1268 49.5134 37.5602 49.4714C37.7602 49.4575 37.9592 49.4308 38.1562 49.3916V65.1722L35.7916 62.6642ZM62.9062 45.9375C62.9062 46.2276 62.7976 46.5058 62.6042 46.7109C62.4108 46.916 62.1485 47.0312 61.875 47.0312H41.6697C42.0753 46.3707 42.3396 45.6241 42.4442 44.8438H55.6875C55.961 44.8438 56.2233 44.7285 56.4167 44.5234C56.6101 44.3183 56.7188 44.0401 56.7188 43.75C56.7188 42.8798 57.0447 42.0452 57.6249 41.4298C58.2051 40.8145 58.992 40.4688 59.8125 40.4688C60.086 40.4688 60.3483 40.3535 60.5417 40.1484C60.7351 39.9433 60.8438 39.6651 60.8438 39.375V10.9375C60.8438 10.6474 60.7351 10.3692 60.5417 10.1641C60.3483 9.95898 60.086 9.84375 59.8125 9.84375C58.992 9.84375 58.2051 9.49805 57.6249 8.88269C57.0447 8.26734 56.7188 7.43274 56.7188 6.5625C56.7188 6.27242 56.6101 5.99422 56.4167 5.7891C56.2233 5.58398 55.961 5.46875 55.6875 5.46875H10.3125C10.039 5.46875 9.77669 5.58398 9.5833 5.7891C9.3899 5.99422 9.28125 6.27242 9.28125 6.5625C9.28125 7.43274 8.9553 8.26734 8.37511 8.88269C7.79492 9.49805 7.00801 9.84375 6.1875 9.84375C5.914 9.84375 5.65169 9.95898 5.4583 10.1641C5.2649 10.3692 5.15625 10.6474 5.15625 10.9375V39.375C5.15625 39.6651 5.2649 39.9433 5.4583 40.1484C5.65169 40.3535 5.914 40.4688 6.1875 40.4688C7.00801 40.4688 7.79492 40.8145 8.37511 41.4298C8.9553 42.0452 9.28125 42.8798 9.28125 43.75C9.28125 44.0401 9.3899 44.3183 9.5833 44.5234C9.77669 44.7285 10.039 44.8438 10.3125 44.8438H23.5558C23.6604 45.6241 23.9247 46.3707 24.3303 47.0312H4.125C3.8515 47.0312 3.58919 46.916 3.3958 46.7109C3.2024 46.5058 3.09375 46.2276 3.09375 45.9375V4.375C3.09375 4.08492 3.2024 3.80672 3.3958 3.6016C3.58919 3.39648 3.8515 3.28125 4.125 3.28125H61.875C62.1485 3.28125 62.4108 3.39648 62.6042 3.6016C62.7976 3.80672 62.9062 4.08492 62.9062 4.375V45.9375Z" fill="#707F9B"/>
<path d="M33 32.8125C31.7762 32.8125 30.5799 33.1974 29.5624 33.9185C28.5449 34.6396 27.7518 35.6645 27.2835 36.8636C26.8152 38.0628 26.6926 39.3823 26.9314 40.6553C27.1701 41.9283 27.7594 43.0976 28.6248 44.0154C29.4901 44.9332 30.5926 45.5582 31.7929 45.8114C32.9931 46.0646 34.2372 45.9347 35.3679 45.438C36.4985 44.9413 37.4648 44.1001 38.1447 43.0209C38.8246 41.9417 39.1875 40.6729 39.1875 39.375C39.1859 37.635 38.5334 35.9669 37.3734 34.7365C36.2134 33.5062 34.6405 32.8142 33 32.8125ZM33 43.75C32.1842 43.75 31.3866 43.4934 30.7083 43.0127C30.0299 42.5319 29.5012 41.8487 29.189 41.0492C28.8768 40.2498 28.7951 39.3701 28.9543 38.5215C29.1134 37.6728 29.5063 36.8933 30.0832 36.2814C30.6601 35.6696 31.3951 35.2529 32.1953 35.0841C32.9954 34.9153 33.8248 35.0019 34.5786 35.333C35.3323 35.6642 35.9766 36.2249 36.4298 36.9444C36.8831 37.6638 37.125 38.5097 37.125 39.375C37.125 40.5353 36.6904 41.6481 35.9168 42.4686C35.1432 43.2891 34.094 43.75 33 43.75Z" fill="#707F9B"/>
<path d="M23.7188 9.84375H42.2812V12.0312H23.7188V9.84375Z" fill="#707F9B"/>
<path d="M17.5312 14.2188H48.4688V16.4062H17.5312V14.2188Z" fill="#707F9B"/>
<path d="M13.4062 18.5938H52.5938V20.7812H13.4062V18.5938Z" fill="#707F9B"/>
<path d="M46.4062 38.2812H52.5938V40.4688H46.4062V38.2812Z" fill="#707F9B"/>
<path d="M13.4062 38.2812H19.5938V40.4688H13.4062V38.2812Z" fill="#707F9B"/>
</svg>
