<svg width="70" height="70" viewBox="0 0 70 70" fill="none" xmlns="http://www.w3.org/2000/svg">
<g clip-path="url(#clip0)">
<path d="M51.7578 0H10.6622C8.76699 0 7.22535 1.54178 7.22535 3.43697V4.74537H5.53742C3.64236 4.74537 2.10059 6.28715 2.10059 8.18234V52.1123C2.10059 52.6787 2.55969 53.1377 3.12598 53.1377C3.69227 53.1377 4.15137 52.6787 4.15137 52.1123V8.18234C4.15137 7.41795 4.77316 6.79615 5.53742 6.79615H46.633C47.3973 6.79615 48.0191 7.41795 48.0191 8.18234V66.5632C48.0191 67.3276 47.3973 67.9494 46.633 67.9494H5.53742C4.77316 67.9494 4.15137 67.3276 4.15137 66.5632V56.8976C4.15137 56.3311 3.69227 55.8722 3.12598 55.8722C2.55969 55.8722 2.10059 56.3311 2.10059 56.8976V66.5632C2.10059 68.4582 3.64236 70.0001 5.53742 70.0001H46.633C48.5281 70.0001 50.0699 68.4584 50.0699 66.5632V65.2548H51.7577C53.6527 65.2548 55.1945 63.713 55.1945 61.8178V16.4731C55.1945 15.9067 54.7354 15.4477 54.1691 15.4477C53.6028 15.4477 53.1437 15.9067 53.1437 16.4731V61.8177C53.1437 62.5821 52.5219 63.2038 51.7577 63.2038H50.4491V8.18234C50.4491 6.28728 48.9073 4.74537 47.0123 4.74537C46.4476 4.74537 9.53604 4.74537 9.276 4.74537V3.43697C9.27613 2.67258 9.89779 2.05078 10.6622 2.05078H51.7578C52.5221 2.05078 53.1439 2.67258 53.1439 3.43697V11.6881C53.1439 12.2545 53.603 12.7135 54.1692 12.7135C54.7355 12.7135 55.1946 12.2545 55.1946 11.6881V3.43697C55.1946 1.54178 53.6529 0 51.7578 0V0Z" fill="#707F9B"/>
<path d="M65.5859 20.3428H60.1153C58.8402 20.3428 57.8027 21.3802 57.8027 22.6554V51.7632C57.8027 51.783 57.8046 51.8023 57.8057 51.8219C57.8063 51.8325 57.8064 51.8432 57.8074 51.8538C57.8146 51.9359 57.8317 52.0149 57.857 52.0902C57.8597 52.0982 57.8629 52.1061 57.8658 52.114C57.8772 52.1455 57.8902 52.1762 57.9046 52.2063C57.9069 52.2111 57.9084 52.2163 57.9109 52.2211L61.2755 58.9621C61.6034 59.6191 62.1922 60.0113 62.8508 60.0113C63.5094 60.0113 64.0982 59.6191 64.4259 58.9623L67.7906 52.2211C67.7936 52.2152 67.7954 52.2089 67.7982 52.203C67.8115 52.1753 67.8234 52.1468 67.8342 52.1177C67.8379 52.1077 67.8417 52.098 67.845 52.088C67.8568 52.0529 67.867 52.0169 67.8749 51.9802C67.8755 51.9776 67.8764 51.9751 67.877 51.9725C67.8849 51.9345 67.8903 51.8955 67.8938 51.856C67.895 51.8426 67.8952 51.8292 67.8959 51.8158C67.8968 51.7983 67.8985 51.781 67.8985 51.7632C67.8985 50.6995 67.8985 24.1081 67.8985 22.6554C67.8985 21.3802 66.861 20.3428 65.5859 20.3428ZM62.8507 57.5262L60.4861 52.7887H65.2154L62.8507 57.5262ZM65.8477 50.7378H59.8537V28.8106H65.8477V50.7378ZM65.8477 26.7598H59.8537V22.6554C59.8537 22.511 59.9711 22.3936 60.1155 22.3936H65.586C65.7304 22.3936 65.8478 22.511 65.8478 22.6554V26.7598H65.8477Z" fill="#707F9B"/>
<path d="M7.95898 62.379C7.95898 63.5475 8.90959 64.4981 10.0781 64.4981H15.7291C16.8977 64.4981 17.8483 63.5475 17.8483 62.379V56.9791L20.1877 54.4904C20.5755 54.0778 20.5554 53.4288 20.1428 53.041C19.7302 52.6531 19.0813 52.6732 18.6933 53.0858L16.9178 54.9747C16.5786 54.7439 16.1694 54.6088 15.7291 54.6088H10.0781C8.90959 54.6088 7.95898 55.5594 7.95898 56.728V62.379ZM15.7975 59.1608V62.379C15.7975 62.4166 15.7669 62.4473 15.7291 62.4473H12.6903C12.7306 62.4158 12.7696 62.3818 12.8053 62.344L15.7975 59.1608ZM10.0098 56.728C10.0098 56.6904 10.0404 56.6596 10.0781 56.6596H15.334L12.2018 59.9917L10.3641 57.1913C10.271 57.0494 10.1483 56.9388 10.0099 56.861V56.728H10.0098ZM10.0098 60.3896C11.3082 62.3682 11.2456 62.3064 11.4249 62.4473H10.0781C10.0404 62.4473 10.0098 62.4166 10.0098 62.379V60.3896Z" fill="#707F9B"/>
<path d="M43.151 58.5283H21.3672C20.8009 58.5283 20.3418 58.9873 20.3418 59.5537C20.3418 60.1201 20.8009 60.5791 21.3672 60.5791H43.151C43.7173 60.5791 44.1764 60.1201 44.1764 59.5537C44.1764 58.9873 43.7173 58.5283 43.151 58.5283Z" fill="#707F9B"/>
<path d="M10.3516 33.2104H28.5295C29.8487 33.2104 30.9221 32.137 30.9221 30.8178V12.6396C30.9221 11.3204 29.8487 10.2471 28.5295 10.2471H10.3516C9.03236 10.2471 7.95898 11.3204 7.95898 12.6396V30.8178C7.95898 32.1371 9.03236 33.2104 10.3516 33.2104ZM10.0098 12.6396C10.0098 12.4511 10.1632 12.2979 10.3516 12.2979H28.5295C28.7179 12.2979 28.8713 12.4511 28.8713 12.6396V30.8178C28.8713 31.0063 28.7179 31.1596 28.5295 31.1596H10.3516C10.1632 31.1596 10.0098 31.0063 10.0098 30.8178V12.6396Z" fill="#707F9B"/>
<path d="M15.4488 29.5158C16.0148 29.5158 16.4756 29.0565 16.4756 28.4918V26.277C16.4783 24.6488 17.8016 23.3202 19.4282 23.3104C19.4324 23.3104 19.4365 23.3107 19.4407 23.3107C19.4451 23.3107 19.4494 23.3104 19.4536 23.3104C21.0803 23.32 22.4037 24.6486 22.4064 26.277V27.4663H20.234C19.6693 27.4663 19.2086 27.9257 19.2086 28.4917C19.2086 29.0563 19.6693 29.5171 20.234 29.5171C20.2354 29.5171 20.2367 29.5171 20.2367 29.5157H23.4318C23.7012 29.5157 23.9664 29.4063 24.1564 29.2164C24.3479 29.025 24.4572 28.7611 24.4572 28.4917V26.277C24.4572 24.9356 23.935 23.6764 22.9875 22.7291C22.8088 22.5504 22.619 22.3869 22.4197 22.2393C23.4611 21.3792 24.126 20.0787 24.126 18.6258C24.126 16.0423 22.0242 13.9404 19.4407 13.9404C16.8573 13.9404 14.7555 16.0422 14.7555 18.6258C14.7555 20.0786 15.4203 21.379 16.4615 22.2391C16.262 22.3869 16.072 22.5504 15.8932 22.7293C14.9457 23.6767 14.4248 24.9359 14.4248 26.2771V28.4918C14.4248 28.7613 14.5342 29.025 14.7242 29.2166C14.9156 29.4065 15.1795 29.5158 15.4488 29.5158ZM19.4407 15.9912C20.8934 15.9912 22.0752 17.1731 22.0752 18.6258C22.0752 20.0754 20.8982 21.2547 19.4496 21.2597C19.4468 21.2597 19.4439 21.2595 19.441 21.2595C19.438 21.2595 19.435 21.2597 19.432 21.2598C17.9835 21.255 16.8063 20.0755 16.8063 18.6259C16.8063 17.173 17.9881 15.9912 19.4407 15.9912Z" fill="#707F9B"/>
<path d="M34.0889 17.3037H43.1517C43.718 17.3037 44.1771 16.8447 44.1771 16.2783C44.1771 15.7119 43.718 15.2529 43.1517 15.2529H34.0889C33.5226 15.2529 33.0635 15.7119 33.0635 16.2783C33.0635 16.8447 33.5226 17.3037 34.0889 17.3037Z" fill="#707F9B"/>
<path d="M34.0889 23.1172H43.1517C43.718 23.1172 44.1771 22.6582 44.1771 22.0918C44.1771 21.5254 43.718 21.0664 43.1517 21.0664H34.0889C33.5226 21.0664 33.0635 21.5254 33.0635 22.0918C33.0635 22.6582 33.5226 23.1172 34.0889 23.1172Z" fill="#707F9B"/>
<path d="M34.0889 29.3184H43.1517C43.718 29.3184 44.1771 28.8594 44.1771 28.293C44.1771 27.7265 43.718 27.2676 43.1517 27.2676H34.0889C33.5226 27.2676 33.0635 27.7265 33.0635 28.293C33.0635 28.8594 33.5226 29.3184 34.0889 29.3184Z" fill="#707F9B"/>
<path d="M8.98438 39.2197H43.1513C43.7176 39.2197 44.1767 38.7608 44.1767 38.1943C44.1767 37.6279 43.7176 37.1689 43.1513 37.1689H8.98438C8.41809 37.1689 7.95898 37.6279 7.95898 38.1943C7.95898 38.7608 8.41809 39.2197 8.98438 39.2197Z" fill="#707F9B"/>
<path d="M8.98438 45.0332H43.1513C43.7176 45.0332 44.1767 44.5742 44.1767 44.0078C44.1767 43.4414 43.7176 42.9824 43.1513 42.9824H8.98438C8.41809 42.9824 7.95898 43.4414 7.95898 44.0078C7.95898 44.5742 8.41809 45.0332 8.98438 45.0332Z" fill="#707F9B"/>
<path d="M8.98438 50.8467H43.1513C43.7176 50.8467 44.1767 50.3877 44.1767 49.8213C44.1767 49.2549 43.7176 48.7959 43.1513 48.7959H8.98438C8.41809 48.7959 7.95898 49.2549 7.95898 49.8213C7.95898 50.3877 8.41809 50.8467 8.98438 50.8467Z" fill="#707F9B"/>
</g>
<defs>
<clipPath id="clip0">
<rect width="70" height="70" fill="white"/>
</clipPath>
</defs>
</svg>
